<svg id="圖層_1" data-name="圖層 1" xmlns="http://www.w3.org/2000/svg" viewBox="0 0 905.42 906.31"><defs><style>.cls-1{fill:#fff;}.cls-2{fill:#231815;}.cls-3{fill:#666135;}.cls-4{fill:#8f6b1e;}.cls-5{fill:#f8fcfe;}.cls-6{fill:#e9e4b7;}</style></defs><title>logo_o</title><path class="cls-1" d="M817.21,628.49c-38.36,78.93-100,141.72-176.73,181.08a68.63,68.63,0,0,0-126.63,36.72c0,1.25,0,2.51.1,3.75a396.52,396.52,0,0,1-56.85,4.08c-152.38,0-296-87.66-362.88-229.93A68.65,68.65,0,0,0,58.51,498.51C40.2,337.24,122.19,178.41,266.26,100.7A68.65,68.65,0,0,0,390.45,60.35c0-.8,0-1.58-.06-2.36a401.3,401.3,0,0,1,414,195.64A68.63,68.63,0,0,0,848.5,374.81c.44,0,.85,0,1.29,0C867.07,460.29,856,548.69,817.21,628.49Z"/><path class="cls-2" d="M457.1,861.23c-157.47,0-302.44-91.85-369.32-234l-2.6-5.53,5.08-3.4a61.53,61.53,0,0,0-32-112.66l-6.13-.21-.69-6.1C32.83,335.4,117.8,172.69,262.89,94.44l5.47-3,3.65,5A61.53,61.53,0,0,0,383.33,60.34L383.11,52l6.08-1A408.39,408.39,0,0,1,810.52,250.1l2.94,5.16-4.54,3.82A61.5,61.5,0,0,0,848.5,367.69l7-.28,1.25,5.95c17.75,87.83,6.28,177.13-33.15,258.24h0c-39,80.18-101.17,143.9-179.88,184.3l-5.77,3-3.48-5.48A61.53,61.53,0,0,0,521,846.29c0,1.14,0,2.28.09,3.4l.32,6.46-6.4.92A403.93,403.93,0,0,1,457.1,861.23ZM103.19,626.44C168.8,760.63,307.07,847,457.1,847a390.81,390.81,0,0,0,49.68-3.18,75.75,75.75,0,0,1,136-43.47c73.34-39.09,131.38-99.47,168.08-175h0c37.21-76.56,48.62-160.66,33.09-243.6a75.74,75.74,0,0,1-48.6-129.54A392.55,392.55,0,0,0,397.47,64.05a75.76,75.76,0,0,1-133,45.77C129.3,185.44,49.84,337.63,65,491.87a75.76,75.76,0,0,1,38.23,134.57Z"/><path class="cls-2" d="M456.48,790.93a338.35,338.35,0,1,1,110.58-18.71A336.09,336.09,0,0,1,456.48,790.93ZM457,119.69a334.07,334.07,0,1,0,145.49,33.72A334.06,334.06,0,0,0,457,119.69Z"/><path class="cls-2" d="M733.92,297.77C658.78,163.51,498.51,102.61,352.86,153A317.24,317.24,0,0,0,179.64,297.77l-5,8.89H738.9ZM195.26,294.7A305.35,305.35,0,0,1,356.79,164.28C493.69,116.94,644,171.73,718.32,294.7Z"/><path class="cls-2" d="M774.05,434.53a320.19,320.19,0,0,0-40.13-136.76l-1.69-3.07H181.36l-1.72,3.07a320.18,320.18,0,0,0-40.19,136.76l-.38,6.31H774.43Zm-622.23-5.64a308.6,308.6,0,0,1,36.55-122.23h536.8a308.52,308.52,0,0,1,36.51,122.23Z"/><path class="cls-2" d="M564.11,838.54l14.39,41.59c.82,2.38.07,4.07-2.31,4.9L564,889.24c-2.38.83-4,0-4.83-2.43l-24.25-70.08c-.82-2.38,0-4,2.34-4.81l14-4.85c2.38-.82,4.62-.26,6.82,1.64l39.49,32.91L583.2,800c-.82-2.38,0-4,2.43-4.84L597.72,791q3.59-1.25,4.81,2.33l24.25,70.09c.82,2.38.07,4.07-2.31,4.9l-13.93,4.81c-2.38.83-4.75.21-6.94-1.7Z"/><path class="cls-2" d="M84.67,522.51l2,5.68c.82,2.38,0,4-2.34,4.81L41.42,547.83a1.74,1.74,0,0,0-1.19,2.47l5.45,15.75a1.67,1.67,0,0,0,2.43,1.11l41.13-14.23q3.58-1.23,4.81,2.34l2,5.77c.82,2.38,0,4-2.34,4.81L52.58,580.08a1.67,1.67,0,0,0-1.23,2.37l5.45,15.76a1.74,1.74,0,0,0,2.46,1.2l42.88-14.83c2.38-.83,4-.05,4.81,2.34l2,5.68c.83,2.38.08,4.07-2.3,4.9L46.14,618.41c-2.38.83-4,0-4.84-2.43L17.06,545.9c-.82-2.38,0-4,2.34-4.81l60.46-20.91C82.24,519.35,83.85,520.13,84.67,522.51Z"/><path class="cls-2" d="M360,59.63,365.68,76c3.29,9.52.21,16-9.32,19.32l-39,13.5c-9.53,3.3-16,.09-19.26-9.44l-2-5.68q-1.23-3.57,2.34-4.81l12.18-4.21c2.39-.82,4,0,4.81,2.34l1.24,3.57c.82,2.38,2.43,3.16,4.81,2.33l21.8-7.54q3.57-1.23,2.34-4.8L341.4,68.42q-1.23-3.57-4.81-2.34L306.18,76.6q-14.3,5-19.24-9.34l-5.7-16.5q-5-14.28,9.35-19.23l39-13.5q14.29-4.94,19.24,9.35l2,5.68c.86,2.47.08,4.07-2.3,4.9l-12.09,4.18c-2.48.86-4.08.08-4.94-2.39l-1.23-3.58q-1.25-3.57-4.81-2.34l-21.8,7.55c-2.39.82-3.16,2.42-2.34,4.81l4.21,12.18q1.25,3.57,4.81,2.34l30.42-10.52C350.26,46.89,356.68,50,360,59.63Z"/><path class="cls-2" d="M798.49,284c-1.19-2.26-.69-3.76,1.69-4.59L812,275.29a4.07,4.07,0,0,1,5.45,2.11l16.38,30.44-6-34c-.36-2.54.6-4.21,3-5l10.08-3.49c2.38-.82,4.17-.11,5.45,2.12l16.28,30.47-5.93-34.05a4.07,4.07,0,0,1,3-5l11.82-4.09c2.38-.82,3.71.05,4.16,2.56l13,74c.36,2.54-.57,4.3-3,5.12l-14.11,4.88a4.14,4.14,0,0,1-5.48-2.2l-15-27.86,5.44,31.15a4.14,4.14,0,0,1-2.94,5.12l-14.11,4.88c-2.38.83-4.2,0-5.48-2.2Z"/><path class="cls-3" d="M699,640.05A306,306,0,0,1,362.57,744.31,308.51,308.51,0,0,1,214.89,640.59C282.18,633,516.4,610.34,699,640.05Z"/><path class="cls-4" d="M706.92,629.25c-191.75-32.62-442.69-6.5-500.22.26a307.17,307.17,0,0,1-55.59-188.67H762.39A306.85,306.85,0,0,1,706.92,629.25Z"/><path class="cls-5" d="M718.32,294.7H195.26A305.35,305.35,0,0,1,356.79,164.28C493.69,116.94,644,171.73,718.32,294.7Z"/><path class="cls-6" d="M761.68,428.89H151.82a308.6,308.6,0,0,1,36.55-122.23h536.8a308.52,308.52,0,0,1,36.51,122.23Z"/><path class="cls-2" d="M774.05,434.53l-.34-5.64H139.79l-.34,5.64A319.11,319.11,0,0,0,199,639.35l2.07,2.85,3.49-.42c50-6,309.22-34.15,504-.12l3.69.64,2.19-3A318.92,318.92,0,0,0,774.05,434.53ZM706.92,629.25c-191.75-32.62-442.69-6.5-500.22.26a307.17,307.17,0,0,1-55.59-188.67H762.39A306.85,306.85,0,0,1,706.92,629.25Z"/><path class="cls-2" d="M710.65,629.89c-196.42-34.32-457.2-6-507.47,0l-10.07,1.19,5.92,8.23A320.22,320.22,0,0,0,358.88,755.68,317.85,317.85,0,0,0,714.47,639.27l5.58-7.75ZM556.71,742.35a302.93,302.93,0,0,1-194.14,2A308.51,308.51,0,0,1,214.89,640.59c67.29-7.61,301.51-30.25,484.1-.54A303.63,303.63,0,0,1,556.71,742.35Z"/></svg>