<svg id="圖層_1" data-name="圖層 1" xmlns="http://www.w3.org/2000/svg" viewBox="0 0 573.81 168.54"><defs><style>.cls-1{fill:#543a00;}.cls-2{fill:#fff;}</style></defs><title>logo_w_03</title><path class="cls-1" d="M83.46,41.34H66.61v69.48H29.8V41.34H13V11.43l14.32,0,21.38,0,19.6,0,15.21,0Z"/><path class="cls-1" d="M168.08,108.41l-36.26,3.52c-.24-3.06-.52-6.48-.85-10.24s-.67-7.25-1.05-10.47H119.79c-.31,3.17-.65,6.68-1,10.55s-.68,7.25-.91,10.16L82,108q2.74-11.51,10.35-45.52t11.55-51.09h42.38q4.31,18.11,11.8,51.94T168.08,108.41Zm-40-37.67q-.78-5.47-1.47-15.41t-1.33-15.27l-.75-.1q-.66,5.34-1.46,15.46t-1.39,15.32v.15h6.43Z"/><path class="cls-1" d="M249.59,13.69q-1.49,6.76-9.62,42.63T227.62,111H187.83q-3.86-18.27-9-40.69T165.56,13.69l36.3-3.08q.58,5.06,2.45,26.43t3.26,33.25h.82Q210.1,58,211.88,36.7t2.23-26.16Z"/><path class="cls-1" d="M335.1,61.16a79,79,0,0,1-2.86,21.49,42.25,42.25,0,0,1-9.76,17.56,36.46,36.46,0,0,1-13.47,9.5,47.24,47.24,0,0,1-33.44-.34,35.1,35.1,0,0,1-13.66-9.91A45.69,45.69,0,0,1,252.48,82a76.65,76.65,0,0,1-2.67-20.64,76.68,76.68,0,0,1,2.82-21.53,47.64,47.64,0,0,1,9.65-17.66,33.19,33.19,0,0,1,12.88-9.24,44.71,44.71,0,0,1,17.18-3.16,45.2,45.2,0,0,1,16.41,2.9,39.06,39.06,0,0,1,13.95,9.57,40.81,40.81,0,0,1,9.47,17A78.73,78.73,0,0,1,335.1,61.16Zm-37.19,0q0-5-.41-10.78A74.35,74.35,0,0,0,296,39.86a9.85,9.85,0,0,0-1.49-3.15,2.67,2.67,0,0,0-2.17-1,2.91,2.91,0,0,0-2.28,1A8.84,8.84,0,0,0,288.57,40a43.11,43.11,0,0,0-1.42,9.52q-.45,6.54-.45,11.6,0,6,.45,11.15c.3,3.41.77,6.84,1.42,10.26a10.54,10.54,0,0,0,1.57,3,2.7,2.7,0,0,0,2.16,1.11,2.65,2.65,0,0,0,2.25-1.11A12,12,0,0,0,296,82.46a99.67,99.67,0,0,0,1.42-10.22C297.76,68.79,297.91,65.12,297.91,61.2Z"/><path class="cls-1" d="M404.05,79.79q-1.19,7.58-2,15.44t-1.82,16.7h-4.08q-14.12,0-24.05-3.11A51,51,0,0,1,353.51,98a41.76,41.76,0,0,1-11.66-16,55.38,55.38,0,0,1-3.63-20.72,52.58,52.58,0,0,1,5.3-23.7A42.23,42.23,0,0,1,358,20.72a55,55,0,0,1,18.85-8.21,91.94,91.94,0,0,1,20-2.19h3.12q.59,5.34,1.56,14.69t2.3,17.52c-.5,0-1.08,0-1.75,0s-1.27,0-1.82,0q-2.37.22-6.53,1a31,31,0,0,0-7.27,2.16,22.19,22.19,0,0,0-8.28,6.51,14.6,14.6,0,0,0-3,9q0,6.41,3,9.93a19.43,19.43,0,0,0,7.73,5.47A42,42,0,0,0,393,78.79a40.5,40.5,0,0,0,6.87.93c.89,0,1.69.07,2.41.07Z"/><path class="cls-1" d="M490.75,108.41l-36.26,3.52c-.24-3.06-.52-6.48-.85-10.24s-.68-7.25-1.05-10.47H442.45c-.3,3.17-.64,6.68-1,10.55s-.68,7.25-.91,10.16L404.65,108Q407.4,96.54,415,62.52t11.55-51.09h42.38q4.31,18.11,11.8,51.94T490.75,108.41Zm-40-37.67q-.78-5.47-1.47-15.41t-1.34-15.27l-.74-.1q-.66,5.34-1.46,15.46t-1.39,15.32v.15h6.42Z"/><path class="cls-1" d="M573.74,11.43q0,14.92,0,27.54t0,19.37q0,7.57.08,24.38t.07,25.5l-31.4,3.71q-4.44-9-8.79-19.37T527.2,76.08l-.52.3v34.44H492.76q-.08-6.45,0-19.63t.12-31.66q0-8.53,0-20.82T492.76,14l31.77-3.71a121.2,121.2,0,0,0,6.23,17.22q3.93,8.84,8.54,17.81l.37-.22V11.43Z"/><path class="cls-2" d="M70.52,31.62H53.67V101.1H16.85V31.62H0V1.71l14.33,0q11.05,0,21.37,0,7.13,0,19.6,0l15.22,0Z"/><path class="cls-2" d="M155.14,98.69l-36.26,3.52q-.37-4.6-.85-10.24T117,81.5H106.84q-.47,4.75-1,10.54t-.91,10.17L69,98.31q2.75-11.49,10.36-45.52T90.93,1.71h42.38q4.31,18.11,11.81,51.94T155.14,98.69ZM115.12,61q-.8-5.46-1.47-15.41t-1.34-15.26l-.75-.1q-.66,5.34-1.46,15.46T108.71,61v.15h6.43Z"/><path class="cls-2" d="M236.64,4q-1.48,6.76-9.61,42.62t-12.36,54.66H174.88q-3.85-18.27-9-40.7T152.61,4L188.91.89q.6,5.06,2.45,26.43t3.27,33.25h.81q1.71-12.32,3.49-33.59T201.16.82Z"/><path class="cls-2" d="M322.15,51.44a79.06,79.06,0,0,1-2.86,21.49,42.1,42.1,0,0,1-9.76,17.55A36.49,36.49,0,0,1,296.06,100a47.24,47.24,0,0,1-33.44-.34A35.1,35.1,0,0,1,249,89.74a45.79,45.79,0,0,1-9.43-17.52,76.52,76.52,0,0,1-2.67-20.63,76.68,76.68,0,0,1,2.82-21.53,47.64,47.64,0,0,1,9.65-17.66,33.32,33.32,0,0,1,12.88-9.25,48.23,48.23,0,0,1,33.59-.26,39,39,0,0,1,13.95,9.58,40.81,40.81,0,0,1,9.47,17A78.73,78.73,0,0,1,322.15,51.44Zm-37.19,0c0-3.32-.14-6.92-.41-10.78a72.55,72.55,0,0,0-1.46-10.56A9.81,9.81,0,0,0,281.6,27a2.66,2.66,0,0,0-2.17-1,2.88,2.88,0,0,0-2.28,1,8.77,8.77,0,0,0-1.53,3.34,43,43,0,0,0-1.42,9.52q-.45,6.54-.45,11.59c0,4,.15,7.73.45,11.15a103.21,103.21,0,0,0,1.42,10.26,10.47,10.47,0,0,0,1.57,3,2.71,2.71,0,0,0,2.17,1.11,2.65,2.65,0,0,0,2.24-1.11,12,12,0,0,0,1.49-3.05,99.48,99.48,0,0,0,1.42-10.23Q285,57.35,285,51.48Z"/><path class="cls-2" d="M391.11,70.07q-1.2,7.58-2,15.44t-1.82,16.7h-4.08q-14.1,0-24.05-3.12a50.88,50.88,0,0,1-18.63-10.84,41.91,41.91,0,0,1-11.66-16,55.38,55.38,0,0,1-3.63-20.72,52.55,52.55,0,0,1,5.3-23.7A42.34,42.34,0,0,1,345,11a55.19,55.19,0,0,1,18.85-8.2,91.4,91.4,0,0,1,20-2.2H387c.39,3.57.92,8.47,1.56,14.7s1.41,12.07,2.3,17.52c-.5,0-1.08,0-1.74,0l-1.82,0c-1.59.15-3.76.47-6.54,1A30.57,30.57,0,0,0,373.44,36a22,22,0,0,0-8.28,6.51,14.6,14.6,0,0,0-3,9q0,6.41,3,9.93A19.49,19.49,0,0,0,372.85,67a42.22,42.22,0,0,0,7.23,2.12A40.5,40.5,0,0,0,387,70c.89,0,1.69.07,2.41.07Z"/><path class="cls-2" d="M477.8,98.69l-36.26,3.52q-.36-4.6-.84-10.24T439.64,81.5H429.51q-.47,4.75-1,10.54c-.37,3.86-.68,7.25-.91,10.17l-35.88-3.9q2.74-11.49,10.35-45.52T413.6,1.71H456q4.31,18.11,11.81,51.94T477.8,98.69ZM437.78,61q-.78-5.46-1.47-15.41T435,30.34l-.75-.1q-.66,5.34-1.45,15.46T431.38,61v.15h6.43Z"/><path class="cls-2" d="M560.79,1.71q0,14.91,0,27.53t0,19.38q0,7.58.07,24.38t.08,25.5l-31.4,3.71q-4.46-9-8.8-19.37t-6.42-16.48l-.52.3V101.1H479.81q-.07-6.46,0-19.63T480,49.81q0-8.54,0-20.83T479.81,4.3L511.58.59a120.76,120.76,0,0,0,6.23,17.22q3.95,8.84,8.54,17.82l.37-.22V1.71Z"/><path class="cls-1" d="M68.9,133.34Q65.68,143.85,63,153.43c-1.77,6.36-2.83,10.29-3.2,11.67l-5.88.59c-.21-.82-.82-3.09-1.85-6.82s-2.36-8.38-4-14H48c-1.52,5.15-2.89,9.92-4.1,14.27s-1.92,7-2.14,7.81l-5.9.64c-.2-.8-1.08-4.13-2.64-10.06s-3.6-13.37-6.14-22.48c2.69-1.14,4-1.7,6.73-2.81.14.65.74,3.2,1.82,7.59s2.36,9.54,3.86,15.41l.15,0q2.2-7.91,3.93-14.43c1.14-4.36,1.79-6.77,1.92-7.3l5.57-.2c.18.8.81,3.23,1.89,7.26l3.6,13.32h.14q2.37-8.77,4-15t1.88-7.54C65.07,132.16,66.34,132.56,68.9,133.34Z"/><path class="cls-1" d="M79.91,163.11l-6.72.62c0-1.36,0-3.32.07-5.89s.06-6.06.08-10.46q0-2.77,0-7c0-2.83,0-5.72,0-8.67l6.73-.2q0,3.24-.08,7.45c0,2.81-.06,5.31-.07,7.5q0,6.69,0,10.33C79.9,159.2,79.91,161.32,79.91,163.11Z"/><path class="cls-1" d="M113.37,130.61q-.06,3.87-.1,7.77t-.06,6.12c0,3.36,0,6.37,0,9s0,4.35,0,5.06c-2,1-2.93,1.51-4.88,2.53q-5.1-7.12-9.45-12.87c-2.9-3.82-4.67-6.18-5.3-7l-.1.05q0,5,0,12c0,4.69,0,7.56,0,8.64l-6.26.54c0-.78,0-2.49.07-5.13s.06-5.92.08-9.85c0-1.59,0-3.65,0-6.15s0-5.2,0-8.07l5.28-2.56c.6.8,2.35,3.23,5.28,7.19s6,7.92,9.12,11.86l.08,0c0-2.07,0-5.13,0-9.18s0-7.31,0-9.76Z"/><path class="cls-1" d="M146.17,144.13a12.37,12.37,0,0,1-1.8,6.58,15.4,15.4,0,0,1-4.59,4.78,21.89,21.89,0,0,1-5.5,2.65,30,30,0,0,1-7.1,1.28l-4.16.24c-1.51.07-2.36.11-2.53.13,0-.15,0-1.7.07-4.65s.07-6.4.09-10.34c0-1.63,0-3.68,0-6.13s0-5.19,0-8.23l2.7-.08,3.33-.1a34.15,34.15,0,0,1,7.8.62,17.79,17.79,0,0,1,5.89,2.36,12.3,12.3,0,0,1,4.38,4.6A13,13,0,0,1,146.17,144.13Zm-6.92.05a8.2,8.2,0,0,0-.87-3.85,7.21,7.21,0,0,0-2.79-2.89,10.76,10.76,0,0,0-3.73-1.39,18.32,18.32,0,0,0-3.83-.3h-.73c0,1.48,0,2.87,0,4.2s0,2.42,0,3.27,0,2,0,3.66,0,4,0,6.88l.33,0,.34,0a17.25,17.25,0,0,0,3.88-.71,12.69,12.69,0,0,0,3.38-1.49,9.47,9.47,0,0,0,3.09-3.2A8.39,8.39,0,0,0,139.25,144.18Z"/><path class="cls-1" d="M184.4,148.13a6.39,6.39,0,0,1-1.43,4,9.59,9.59,0,0,1-4,2.87,21.79,21.79,0,0,1-4.91,1.28c-1.85.28-3.89.48-6.1.59-1.2.07-2.45.12-3.76.15l-2.89.07q.06-3.39.1-6.9t.06-7.55q0-4.41,0-8.62c0-2.8,0-4.28,0-4.43l2.26-.13c1.27-.07,2.65-.12,4.11-.15,2.21,0,4.05,0,5.51.1a18.65,18.65,0,0,1,4,.67,7.56,7.56,0,0,1,3.57,2.06,4.92,4.92,0,0,1,1.31,3.5,6,6,0,0,1-1.15,3.5,7,7,0,0,1-3,2.4v.15a9.22,9.22,0,0,1,2.22.5,7.25,7.25,0,0,1,1.84,1.06,5.75,5.75,0,0,1,1.76,2.06A6.24,6.24,0,0,1,184.4,148.13Zm-6.92-.49a3.34,3.34,0,0,0-.36-1.6,4.09,4.09,0,0,0-1-1.22,4.15,4.15,0,0,0-1.46-.72,6,6,0,0,0-2-.23l-1.35.06-.65,0c-.22-1-.33-1.54-.56-2.57a8,8,0,0,0,2-.38,5.22,5.22,0,0,0,1.57-.76,4.31,4.31,0,0,0,1.12-1.28,3.73,3.73,0,0,0,.45-1.83,3.14,3.14,0,0,0-.47-1.67,3.2,3.2,0,0,0-1.31-1.19,5.48,5.48,0,0,0-1.67-.47,11.36,11.36,0,0,0-2-.12l-1.13,0c-.39,0-.65,0-.78,0,0,1.38-.06,2.9-.08,4.58s0,3.16,0,4.45,0,3.18,0,5.53v3.81h.87l1.31,0a27.26,27.26,0,0,0,3.07-.31,7.4,7.4,0,0,0,2.46-.82,4.2,4.2,0,0,0,1.47-1.4A3.6,3.6,0,0,0,177.48,147.64Z"/><path class="cls-1" d="M215.29,153.31l-6.66,2.34c-.14-.42-.49-1.35-1-2.79s-1.21-3.07-2-4.88l-10.38.31q-1.2,2.86-2.05,5.12c-.57,1.5-.91,2.46-1,2.88l-6.24-1.82c.37-.81,1.8-4.05,4.29-9.64s4.87-10.9,7.14-16l6.9-.08q3.47,7.83,7.12,15.89C213.8,150.05,215.11,152.91,215.29,153.31ZM204.06,144l-1.68-4.37q-.91-2.39-1.82-4.68h-.09q-.78,1.92-1.86,4.76c-.72,1.89-1.3,3.39-1.75,4.48v0l7.22-.19Z"/><path class="cls-1" d="M244.85,128.65q0,3.32-.08,6.65t0,5.25q0,4.32,0,7.75c0,2.28,0,3.73,0,4.34l-4.88,1.94q-5.14-6.32-9.52-11.28c-2.91-3.3-4.69-5.32-5.32-6l-.11,0q0,4.14,0,10t0,7.23l-6.28.18c0-.65,0-2.07.07-4.26s0-4.92.06-8.18c0-1.33,0-3,0-5.12s0-4.31,0-6.7l5.28-2.06c.6.68,2.36,2.73,5.29,6.12s6,6.83,9.18,10.29l.08,0c0-1.76,0-4.36,0-7.81s0-6.22,0-8.3Z"/><path class="cls-1" d="M277.75,141.27A9.88,9.88,0,0,1,276,147.1a13.35,13.35,0,0,1-4.57,4.05,22,22,0,0,1-5.51,2.08,32.85,32.85,0,0,1-7.11.77c-1.26,0-2.65,0-4.17,0s-2.36,0-2.54,0c0-.13,0-1.47,0-4s.06-5.53.06-8.94c0-1.42,0-3.19,0-5.31s0-4.49,0-7.12l2.7,0,3.34,0a38.3,38.3,0,0,1,7.8.68,18.93,18.93,0,0,1,5.91,2.19,12,12,0,0,1,4.42,4.2A11,11,0,0,1,277.75,141.27Zm-6.93-.18a6.86,6.86,0,0,0-.89-3.44,7.18,7.18,0,0,0-2.81-2.63,12,12,0,0,0-3.74-1.31,21.92,21.92,0,0,0-3.84-.35h-.73q0,1.92,0,3.66v2.85c0,.67,0,1.73,0,3.2s0,3.46,0,6h.68a19.61,19.61,0,0,0,3.88-.47,12.66,12.66,0,0,0,3.38-1.16,8.43,8.43,0,0,0,3.08-2.71A6.57,6.57,0,0,0,270.82,141.09Z"/><path class="cls-1" d="M318.51,152.45l-6.65,2c-.14-.42-.49-1.34-1.05-2.75s-1.23-3-2-4.8l-10.37-.06c-.8,1.79-1.47,3.39-2,4.8s-.9,2.3-1,2.69l-6.26-2q.56-1.12,4.25-9t7.05-15l6.9,0q3.53,7.59,7.22,15.53C317,149.2,318.33,152.06,318.51,152.45ZM307.22,143c-.52-1.29-1.09-2.71-1.7-4.25s-1.24-3.06-1.86-4.55h-.08q-.76,1.83-1.83,4.52c-.71,1.8-1.29,3.21-1.73,4.24v0l7.22,0Z"/><path class="cls-1" d="M347.55,141.8a10,10,0,0,1-1.74,5.9,12.78,12.78,0,0,1-4.56,4,20.66,20.66,0,0,1-5.5,2,31.83,31.83,0,0,1-7.11.56c-1.26,0-2.65-.06-4.16-.12l-2.54-.08q0-.19,0-4t0-9c0-1.41,0-3.18,0-5.3s0-4.5-.07-7.13h2.7c1.59,0,2.7,0,3.34,0a37.25,37.25,0,0,1,7.8.75,19.28,19.28,0,0,1,5.92,2.29,12.3,12.3,0,0,1,4.43,4.34A11.58,11.58,0,0,1,347.55,141.8Zm-6.93-.33a7.17,7.17,0,0,0-.91-3.51,7.31,7.31,0,0,0-2.82-2.71,11.91,11.91,0,0,0-3.74-1.38,21.24,21.24,0,0,0-3.84-.4h-.73c0,1.29,0,2.52,0,3.69V140c0,.68,0,1.75,0,3.22s0,3.48,0,6h.67a19.07,19.07,0,0,0,3.88-.36,12.22,12.22,0,0,0,3.37-1.1,8,8,0,0,0,3.07-2.66A6.68,6.68,0,0,0,340.62,141.47Z"/><path class="cls-1" d="M378.43,130.6c-.24.57-1.65,3.74-4.23,9.45s-4.89,10.81-6.95,15.32l-6.69-.23q-3.29-7.3-6.34-13.9t-4.9-10.91l6.66-2c.18.54,1.16,2.95,3,7.25s3.49,8.3,5.09,12h.15q2.47-5.79,5.11-12.12c1.75-4.21,2.7-6.54,2.85-7C374.66,129.33,375.92,129.75,378.43,130.6Z"/><path class="cls-1" d="M402.15,156.65l-4-.22q-3.33-.19-6.6-.34c-1.89-.08-3.73-.16-5.52-.22l-3.92-.15c0-.7,0-2.23,0-4.57s0-5.33,0-8.93c0-1.52,0-3.46-.05-5.82s-.06-4.76-.1-7.21l3.94.07,5.14.08,6.9.09,3.83,0c0,2,0,3,0,5l-2.67-.08c-1.55,0-3.1-.09-4.66-.12l-3.18-.05-2.85-.05c0,1,0,2.06,0,3.17s0,2.11,0,3l2.7.08,2.7.09,4.91.12,2.93.07c0,1.61,0,2.42,0,4l-3.16-.13-4.6-.18-2.72-.07-2.76-.08c0,1.56,0,2.89,0,4a16.7,16.7,0,0,0,.05,2.73,17.59,17.59,0,0,0,3.26.16l3.68.16c1.55.07,3,.12,4.22.16l2.46.09C402.14,153.62,402.14,154.63,402.15,156.65Z"/><path class="cls-1" d="M434.16,130q0,3.71,0,7.44c0,2.49,0,4.44,0,5.86,0,3.22,0,6.1.08,8.66s.05,4.17.06,4.85l-4.86,1.75c-3.46-5-6.66-9.28-9.61-13.05s-4.74-6-5.38-6.77l-.1,0c0,3,0,6.55.11,10.75s.09,6.79.1,7.76l-6.28-.35q0-1,0-4.5c0-2.32,0-5.2,0-8.66,0-1.4,0-3.21-.05-5.42s-.06-4.57-.1-7.09l5.26-2c.6.74,2.38,3,5.35,6.76s6.05,7.69,9.27,11.72l.08,0q0-2.91-.11-8.62t-.12-9.16Z"/><path class="cls-1" d="M462.5,136.8l-3.26-.14-5.8-.22c0,2.3,0,4.14,0,5.53s0,3.18,0,5.39c0,2.5,0,4.92.08,7.25s.06,4.07.08,5.22l-6.74-.49c0-1.08,0-2.73,0-5s0-4.68,0-7.39c0-2,0-3.69,0-5.09s0-3.3-.07-5.69c-2.23-.07-4.21-.12-6-.16l-3.12-.08c0-2.33,0-3.5,0-5.83l5.19.12,7.18.17,7.91.17,4.56.1C462.48,133.15,462.48,134.36,462.5,136.8Z"/><path class="cls-1" d="M491,131.42q0,4.4,0,6.93c0,1.69,0,3.25,0,4.65q0,2.69,0,4.62t0,3.33a14.25,14.25,0,0,1-.92,5.48,9.25,9.25,0,0,1-2.55,3.64,10.41,10.41,0,0,1-4,2.15,14.48,14.48,0,0,1-5.05.35,15.49,15.49,0,0,1-5.4-1.33,13.72,13.72,0,0,1-3.79-2.68,11.6,11.6,0,0,1-2.58-4,14.84,14.84,0,0,1-.9-5.34c0-.88,0-1.93,0-3.17s0-2.7,0-4.4q0-2.22-.06-4.47c0-1.51-.05-3.66-.06-6.47l6.73.17c0,1.28,0,2.89,0,4.81s0,4.08,0,6.48l0,3.49q0,1.74,0,3.57a7.5,7.5,0,0,0,1.64,5.13,6.17,6.17,0,0,0,4.35,2,5.22,5.22,0,0,0,4.41-1.35c1-1.06,1.5-2.75,1.49-5.07,0-1.25,0-2.5,0-3.74v-3.47q0-3.73-.07-6.7c0-2,0-3.59,0-4.86Z"/><path class="cls-1" d="M523,163.69c-2.47.95-3.71,1.42-6.19,2.34-.5-.94-1.49-2.63-3-5.05s-3.74-6.14-6.76-11.06l.1-.48a6.5,6.5,0,0,0,1.77-.71,6.69,6.69,0,0,0,1.82-1.39,6.14,6.14,0,0,0,1.13-1.84,7.09,7.09,0,0,0,.38-2.56,5.64,5.64,0,0,0-.65-2.7,4.42,4.42,0,0,0-1.76-1.82,5.87,5.87,0,0,0-1.9-.65,15.92,15.92,0,0,0-1.89-.19l-.83,0h-.39c0,1.91,0,3.87,0,5.88s0,3.8,0,5.4q0,3.93.05,8.61c0,3.11.05,5.37.06,6.75l-6.72-.63c0-1.26,0-3.1,0-5.54s0-6,0-10.81c0-1.27,0-3.09,0-5.45s-.05-5.74-.11-10.11c.39,0,1.21,0,2.45,0s2.4,0,3.47.06c2,.06,3.77.18,5.25.37a15.54,15.54,0,0,1,4.21,1.17,8.87,8.87,0,0,1,4.2,3.51,9.57,9.57,0,0,1,1.39,5.06,9.46,9.46,0,0,1-1.42,5.36,11.53,11.53,0,0,1-2.94,3.19v.15c1.41,2.25,2.92,4.56,4.52,6.95A60.29,60.29,0,0,1,523,163.69Z"/><path class="cls-1" d="M546.5,168.54l-4-.49-6.57-.75q-2.82-.31-5.5-.57l-3.89-.39q0-1.34,0-5.82t0-11.37q0-2.9,0-7.41t-.09-9.18l3.94.15,5.13.19,6.89.23,3.82.12c0,2.61,0,3.91,0,6.52l-2.67-.16c-1.54-.1-3.09-.19-4.65-.26l-3.17-.14-2.84-.13c0,1.29,0,2.64,0,4.06s0,2.71,0,3.85l2.69.19,2.69.19,4.91.31,2.91.17c0,2.1,0,3.15,0,5.25l-3.15-.28-4.59-.39-2.7-.19-2.76-.2c0,2,0,3.71,0,5.14a21.13,21.13,0,0,0,0,3.5,18.4,18.4,0,0,0,3.25.34l3.67.37,4.2.39c1.26.1,2.07.18,2.45.22C546.49,164.61,546.5,165.92,546.5,168.54Z"/><path class="cls-2" d="M64.34,130.05c-2.15,7-4.11,13.72-5.87,20.08s-2.83,10.29-3.2,11.68l-5.88.59c-.2-.83-.82-3.09-1.85-6.82s-2.36-8.38-4-14h-.14q-2.3,7.72-4.11,14.27c-1.2,4.35-1.92,7-2.13,7.81l-5.91.64c-.2-.8-1.08-4.13-2.64-10.06s-3.6-13.38-6.14-22.48c2.69-1.14,4-1.71,6.73-2.82.14.66.74,3.21,1.82,7.59S33.4,146.1,34.9,152l.15,0Q37.26,144,39,137.52l1.93-7.31,5.57-.19c.17.8.8,3.23,1.89,7.26s2.28,8.48,3.59,13.31h.15c1.57-5.86,2.89-10.84,4-15s1.7-6.66,1.88-7.55C60.51,128.87,61.79,129.26,64.34,130.05Z"/><path class="cls-2" d="M75.35,159.82l-6.72.62c0-1.36.05-3.32.08-5.89s.05-6.06.07-10.46q0-2.78,0-7t0-8.67l6.73-.2q0,3.24-.08,7.45t-.06,7.5q0,6.69,0,10.33T75.35,159.82Z"/><path class="cls-2" d="M108.81,127.32q-.06,3.87-.1,7.76t-.06,6.13c0,3.36,0,6.37,0,9v5.07c-2,1-2.93,1.51-4.87,2.53q-5.11-7.12-9.46-12.87c-2.9-3.82-4.67-6.18-5.3-7l-.1.05q0,4.95,0,12c0,4.69,0,7.56,0,8.64l-6.26.54c0-.78,0-2.49.07-5.13s.06-5.92.08-9.85q0-2.4,0-6.15t0-8.07c2.11-1,3.16-1.55,5.28-2.56.59.8,2.35,3.23,5.27,7.19s6,7.92,9.12,11.86l.09-.05c0-2.06,0-5.12,0-9.17s0-7.31,0-9.77Z"/><path class="cls-2" d="M141.61,140.83a12.47,12.47,0,0,1-1.79,6.59,15.55,15.55,0,0,1-4.6,4.78,22.07,22.07,0,0,1-5.5,2.65,30,30,0,0,1-7.1,1.27c-1.26.09-2.65.17-4.16.25l-2.53.12c0-.14,0-1.69.07-4.64s.07-6.4.1-10.34c0-1.63,0-3.68,0-6.13s0-5.2,0-8.23l2.7-.09,3.34-.09a33.55,33.55,0,0,1,7.79.62,17.91,17.91,0,0,1,5.89,2.35,12.43,12.43,0,0,1,4.39,4.61A13.07,13.07,0,0,1,141.61,140.83Zm-6.92.06a8.17,8.17,0,0,0-.87-3.85,7.21,7.21,0,0,0-2.79-2.89,10.69,10.69,0,0,0-3.73-1.39,18.32,18.32,0,0,0-3.83-.3h-.73c0,1.47,0,2.87,0,4.2s0,2.42,0,3.27,0,2,0,3.66,0,4,0,6.88l.32,0,.35,0a16.94,16.94,0,0,0,3.88-.72,12.31,12.31,0,0,0,3.37-1.48,9.38,9.38,0,0,0,3.09-3.2A8.39,8.39,0,0,0,134.69,140.89Z"/><path class="cls-2" d="M179.84,144.84a6.38,6.38,0,0,1-1.42,4,9.62,9.62,0,0,1-4,2.87,21.79,21.79,0,0,1-4.91,1.28c-1.85.28-3.89.48-6.1.59-1.2.07-2.45.11-3.75.15l-2.9.07c0-2.26.08-4.56.1-6.9s.05-4.86.07-7.55c0-2.94,0-5.81,0-8.62s0-4.29,0-4.44c.23,0,1,0,2.26-.12s2.65-.12,4.11-.15c2.21,0,4.05,0,5.52.1a19.33,19.33,0,0,1,4,.66,7.65,7.65,0,0,1,3.58,2.07,4.92,4.92,0,0,1,1.3,3.5,6,6,0,0,1-1.15,3.5,6.9,6.9,0,0,1-3,2.4v.14a9.73,9.73,0,0,1,2.22.51,7.25,7.25,0,0,1,1.84,1.06,5.88,5.88,0,0,1,1.77,2.06A6.38,6.38,0,0,1,179.84,144.84Zm-6.92-.49a3.13,3.13,0,0,0-.36-1.6,4.09,4.09,0,0,0-1-1.22,4,4,0,0,0-1.46-.72,6,6,0,0,0-2-.23c-.55,0-1,0-1.35.06l-.65,0-.55-2.56a8.43,8.43,0,0,0,2-.38,5.17,5.17,0,0,0,1.58-.77,4.43,4.43,0,0,0,1.11-1.28,3.48,3.48,0,0,0,.45-1.82,3,3,0,0,0-.47-1.67A3.2,3.2,0,0,0,169,131a5.4,5.4,0,0,0-1.67-.47,11.36,11.36,0,0,0-2-.12c-.36,0-.74,0-1.13,0l-.78,0c0,1.38-.06,2.9-.08,4.58s0,3.16,0,4.45,0,3.18,0,5.53,0,3.62,0,3.81h.87l1.31,0a27,27,0,0,0,3.07-.31,7.32,7.32,0,0,0,2.46-.82,4.12,4.12,0,0,0,1.47-1.4A3.62,3.62,0,0,0,172.92,144.35Z"/><path class="cls-2" d="M210.73,150l-6.66,2.34c-.14-.42-.49-1.35-1-2.79s-1.2-3.07-2-4.89L190.7,145c-.81,1.91-1.49,3.62-2.06,5.12s-.91,2.46-1,2.87l-6.24-1.81c.37-.81,1.8-4.05,4.3-9.64s4.87-10.9,7.13-15.95l6.9-.08q3.47,7.83,7.12,15.89Zm-11.23-9.36-1.68-4.37c-.61-1.59-1.21-3.15-1.82-4.69h-.08c-.53,1.28-1.15,2.86-1.87,4.76s-1.3,3.39-1.75,4.48v0l7.22-.19Z"/><path class="cls-2" d="M240.29,125.36c0,2.21-.06,4.42-.08,6.65s0,4,0,5.25q0,4.32,0,7.74c0,2.29,0,3.73,0,4.34l-4.88,1.94q-5.15-6.3-9.51-11.27t-5.33-6l-.1,0q0,4.14,0,10t0,7.23c-2.52.06-3.77.1-6.28.18q0-1,.06-4.26t.07-8.18V133.9c0-2.08,0-4.32,0-6.7l5.28-2.06c.6.68,2.36,2.73,5.3,6.12s6,6.82,9.17,10.29l.08,0q0-2.64,0-7.81c0-3.45,0-6.22,0-8.3Z"/><path class="cls-2" d="M273.19,138a9.89,9.89,0,0,1-1.76,5.82,13.4,13.4,0,0,1-4.58,4.06,22,22,0,0,1-5.51,2.07,32.81,32.81,0,0,1-7.11.78c-1.26,0-2.65,0-4.17,0s-2.36,0-2.53,0c0-.13,0-1.47.05-4s0-5.53.06-8.94c0-1.42,0-3.19,0-5.31s0-4.49,0-7.12l2.71,0,3.33,0a39.12,39.12,0,0,1,7.81.67,19.38,19.38,0,0,1,5.91,2.19,12,12,0,0,1,4.41,4.21A11,11,0,0,1,273.19,138Zm-6.93-.18a6.74,6.74,0,0,0-.89-3.44,7.11,7.11,0,0,0-2.81-2.63,12,12,0,0,0-3.74-1.31,21,21,0,0,0-3.83-.35h-.74c0,1.29,0,2.51,0,3.67v2.85c0,.67,0,1.73,0,3.19s0,3.47,0,6h.68a18.77,18.77,0,0,0,3.88-.46,12.31,12.31,0,0,0,3.38-1.17,8.32,8.32,0,0,0,3.08-2.7A6.57,6.57,0,0,0,266.26,137.8Z"/><path class="cls-2" d="M314,149.16l-6.65,2c-.14-.42-.49-1.34-1.05-2.75s-1.23-3-2-4.8l-10.38-.06q-1.19,2.69-2,4.79c-.56,1.41-.9,2.3-1,2.69l-6.25-2q.54-1.12,4.24-9t7.05-15l6.91,0q3.51,7.59,7.21,15.53T314,149.16Zm-11.29-9.5-1.7-4.24c-.62-1.55-1.24-3.06-1.85-4.55H299q-.78,1.83-1.84,4.52c-.71,1.8-1.29,3.21-1.73,4.24v0l7.22,0Z"/><path class="cls-2" d="M343,138.51a10,10,0,0,1-1.74,5.9,12.78,12.78,0,0,1-4.56,4,20.71,20.71,0,0,1-5.49,2,32.54,32.54,0,0,1-7.11.56q-1.9,0-4.17-.12l-2.54-.09c0-.12,0-1.46,0-4s0-5.54,0-8.95c0-1.41,0-3.18,0-5.3s0-4.5-.07-7.13h6a37.88,37.88,0,0,1,7.8.76,19.42,19.42,0,0,1,5.92,2.28,12.33,12.33,0,0,1,4.43,4.35A11.58,11.58,0,0,1,343,138.51Zm-6.93-.33a7,7,0,0,0-.91-3.51,7.31,7.31,0,0,0-2.82-2.71,11.91,11.91,0,0,0-3.74-1.38,20.38,20.38,0,0,0-3.84-.4H324c0,1.29,0,2.52,0,3.68s0,2.13,0,2.87v3.21q0,2.2,0,6h.67a19.11,19.11,0,0,0,3.88-.37,11.91,11.91,0,0,0,3.37-1.09,8,8,0,0,0,3.07-2.67A6.62,6.62,0,0,0,336.06,138.18Z"/><path class="cls-2" d="M373.88,127.31c-.24.56-1.65,3.73-4.23,9.45s-4.9,10.81-7,15.31l-6.69-.22q-3.28-7.31-6.34-13.9T344.76,127l6.66-2c.18.55,1.17,3,3,7.26s3.49,8.3,5.09,12h.15c1.65-3.87,3.35-7.9,5.11-12.12s2.7-6.54,2.85-7C370.1,126,371.36,126.46,373.88,127.31Z"/><path class="cls-2" d="M397.59,153.35l-4-.22-6.6-.33c-1.89-.09-3.73-.16-5.52-.22l-3.92-.15c0-.7,0-2.23,0-4.58s0-5.32,0-8.92c0-1.52,0-3.46,0-5.82s-.06-4.76-.1-7.21l3.94.07,5.14.08,6.9.09,3.83,0c0,2,0,3,0,5l-2.67-.08c-1.55,0-3.1-.09-4.66-.12L386.7,131l-2.85,0c0,1,0,2.06,0,3.16s0,2.11,0,3l2.7.08,2.7.09,4.92.12,2.92.07c0,1.61,0,2.42,0,4l-3.16-.13-4.6-.18-2.72-.08-2.76-.07c0,1.56,0,2.89,0,4a18.05,18.05,0,0,0,.05,2.73,17.59,17.59,0,0,0,3.26.16l3.69.16c1.54.07,2.95.12,4.21.16l2.47.09C397.58,150.33,397.58,151.34,397.59,153.35Z"/><path class="cls-2" d="M429.6,126.74q0,3.71,0,7.44c0,2.48,0,4.44,0,5.86,0,3.21,0,6.1.08,8.66s.05,4.17.06,4.85l-4.86,1.75c-3.46-5-6.66-9.28-9.61-13.05s-4.74-6-5.38-6.78l-.1,0c0,3,0,6.54.11,10.75s.09,6.79.1,7.76l-6.27-.35c0-.68,0-2.18,0-4.5s0-5.21,0-8.66c0-1.41,0-3.21-.05-5.42s-.06-4.57-.1-7.09l5.26-2c.6.73,2.38,3,5.35,6.76s6.06,7.69,9.27,11.72l.08,0q0-2.91-.11-8.62t-.12-9.16Z"/><path class="cls-2" d="M457.94,133.5l-3.26-.13-5.8-.22c0,2.3,0,4.14,0,5.53s0,3.18,0,5.39q0,3.75.07,7.25c0,2.34.06,4.07.08,5.21l-6.74-.48c0-1.08,0-2.73,0-5s0-4.68,0-7.39q0-3,0-5.1c0-1.4,0-3.29-.07-5.68-2.22-.07-4.21-.13-6-.16l-3.11-.08c0-2.33,0-3.5,0-5.83l5.19.12,7.18.17,7.91.17,4.56.1C457.92,129.85,457.92,131.07,457.94,133.5Z"/><path class="cls-2" d="M486.46,128.13q0,4.4,0,6.93c0,1.69,0,3.24,0,4.65q0,2.68,0,4.62c0,1.29,0,2.4,0,3.33a14.25,14.25,0,0,1-.92,5.48,9.25,9.25,0,0,1-2.55,3.64,10.41,10.41,0,0,1-4,2.15,14.46,14.46,0,0,1-5.05.35,15.71,15.71,0,0,1-5.4-1.33,13.55,13.55,0,0,1-3.78-2.69,11.44,11.44,0,0,1-2.59-3.95,14.84,14.84,0,0,1-.9-5.34c0-.88,0-1.94,0-3.17s0-2.7,0-4.4c0-1.48,0-3-.05-4.48s-.06-3.65-.07-6.46l6.73.17c0,1.28,0,2.89,0,4.81s0,4.08,0,6.48l0,3.49c0,1.15,0,2.35,0,3.57a7.52,7.52,0,0,0,1.64,5.13,6.19,6.19,0,0,0,4.35,2,5.22,5.22,0,0,0,4.41-1.36c1-1.05,1.5-2.74,1.49-5.06,0-1.25,0-2.5,0-3.75s0-2.4,0-3.46q0-3.74-.06-6.7t-.06-4.86Z"/><path class="cls-2" d="M518.45,160.4c-2.47.95-3.71,1.42-6.19,2.34-.5-.94-1.49-2.64-3-5.05s-3.74-6.14-6.76-11.06l.1-.48a7.69,7.69,0,0,0,3.59-2.11,5.91,5.91,0,0,0,1.13-1.84,7,7,0,0,0,.38-2.55,5.61,5.61,0,0,0-.65-2.7,4.36,4.36,0,0,0-1.76-1.82,5.79,5.79,0,0,0-1.9-.65,15.92,15.92,0,0,0-1.89-.19l-.83,0h-.38c0,1.91,0,3.87,0,5.88s0,3.8,0,5.39q0,3.94.05,8.62t.07,6.75l-6.72-.63c0-1.26,0-3.1,0-5.54s0-6,0-10.81q0-1.91,0-5.46t-.12-10.1l2.45,0c1.24,0,2.4,0,3.47.06,2,.06,3.77.18,5.26.37A15.47,15.47,0,0,1,509,130a8.92,8.92,0,0,1,4.21,3.5,9.6,9.6,0,0,1,1.38,5.07,9.48,9.48,0,0,1-1.42,5.36,11.67,11.67,0,0,1-2.94,3.19v.15c1.42,2.25,2.92,4.56,4.52,6.94A61.38,61.38,0,0,1,518.45,160.4Z"/><path class="cls-2" d="M541.94,165.25l-4-.49c-2.21-.26-4.39-.52-6.57-.75q-2.82-.31-5.5-.57l-3.89-.39c0-.89,0-2.84,0-5.82s0-6.78,0-11.37q0-2.91,0-7.41t-.09-9.18l3.94.15,5.13.19,6.89.23,3.82.12c0,2.61,0,3.91,0,6.51l-2.66-.16c-1.55-.09-3.1-.18-4.66-.25-.9-.05-2-.09-3.17-.14l-2.84-.13c0,1.29,0,2.64,0,4.06s0,2.7,0,3.85l2.69.19c1.08.08,2,.15,2.69.19l4.9.31,2.91.17c0,2.1,0,3.14,0,5.24l-3.15-.27-4.58-.39-2.71-.19-2.75-.2c0,2,0,3.71,0,5.13a21.06,21.06,0,0,0,0,3.5,17.15,17.15,0,0,0,3.25.35l3.67.37,4.2.39,2.45.21C541.94,161.32,541.94,162.63,541.94,165.25Z"/></svg>