<svg id="圖層_1" data-name="圖層 1" xmlns="http://www.w3.org/2000/svg" viewBox="0 0 540.37 105.06"><defs><style>.cls-1{fill:#231815;}</style></defs><title>logo_w_02</title><path class="cls-1" d="M449.18,82.91V63.23q0-4.74-4.75-4.74h-1.94q-4.74,0-4.74,4.74V82.4Z"/><path class="cls-1" d="M372.94,35.26l.72-.48a4.59,4.59,0,0,0,4,1.82h43.77a4.57,4.57,0,0,0,4-1.82l.73.48c3.16,1.83,4.75,1.22,4.75-1.94V23.83c0-3.28-1.59-5.71-4.75-7.54L399.57,0,372.94,16.29c-3.17,1.83-4.75,4.26-4.75,7.54v9.49C368.19,36.48,369.77,37.09,372.94,35.26ZM399.57,19l7.78,4.86H391.9Z"/><path class="cls-1" d="M425.22,78.43c0-3.16-1.58-4.75-4.74-4.75h-9c-3.16,0-4.74,1.59-4.74,4.75V81l18.48.84Z"/><path class="cls-1" d="M442.49,53.74h9V83l16.17.72V79.4h2.43a5.9,5.9,0,0,0,2.8-.61v1.1c0,3.16,1.58,4.62,4.74,4.13l13.86-3.53v4.33l13.74.61v-66a6.22,6.22,0,0,0,2.31-.36q0,4.74,4.74,4.74h14.35V43.17L524,46.57l-2.56-3.4V32.83q0-4.74-4.74-4.74h-4.38q-4.74,0-4.74,4.74V43.41q0,4.74,4.74,10.94L515.2,58l-2.92,3.65q-4.74,6.2-4.74,10.94v13l3.74.17c.32-.37.64-.76,1-1.2L524,69.43l11.67,15.08a22.62,22.62,0,0,0,2.13,2.39l2.49.11a5.19,5.19,0,0,0,.12-1.17V72.59q0-4.74-4.74-10.94L532.71,58l2.92-3.65q4.74-6.19,4.74-10.94v-32q0-4.74-4.74-4.74H512.28a6.67,6.67,0,0,0-2.31.36c0-3.16-1.58-4.62-4.74-4.62h-27.6q-4.74,0-4.74,4.74v4.38a6,6,0,0,0-2.8-.61h-2.43V4.74q0-4.74-4.74-4.74h-9q-4.74,0-4.74,4.74v6.2h-6.69q-4.74,0-4.74,4.75v7.66q0,4.74,4.74,4.74h6.69V36.6h-6.69q-4.74,0-4.74,4.74V49Q437.75,53.74,442.49,53.74Zm46.57-34.29h4.74v4.38h-4.74Zm0,19.58h4.74v4.26h-4.74Zm0,19.46h4.74v4.37l-4.74,1.22Zm-21.4-4.75h2.43q4.74,0,4.74-4.74V41.34q0-4.74-4.74-4.74h-2.43V28.09h2.43q4.74,0,4.74-4.74v-4.5a4.84,4.84,0,0,0,2.8.6V66.88a4.84,4.84,0,0,0-2.8,1.09V67c0-3.16-1.58-4.75-4.74-4.75h-2.43Z"/><path class="cls-1" d="M426.19,70.77c3.16,0,4.75-1.58,4.75-4.75V44.14c0-3.16-1.59-4.74-4.75-4.74H405.76q-4.74,0-4.74,4.74V66q0,4.76,4.74,4.75ZM413.3,52.28h4.75V58H413.3Z"/><path class="cls-1" d="M360.66,2.43H333.05q-4.74,0-4.74,4.74v93c0,3.16,1.58,4.87,4.74,4.87h9c3.16,0,4.74-1.71,4.74-4.87V87.91h13.87q4.74,0,4.74-4.74V41.34q0-4.74-4.74-4.74h-.25l4.26-17.15a21.83,21.83,0,0,0,.73-5.71V7.17Q365.4,2.43,360.66,2.43Zm-16.18,17h4l-4,16.18Zm4.75,51.32h-4.75v-17h4.75Z"/><path class="cls-1" d="M393.36,86.09l-1-.73V78.43c0-3.16-1.58-4.75-4.74-4.75h-9c-3.16,0-4.74,1.59-4.74,4.75v6.93l-1,.73c-3.17,2.67-4.75,5.47-4.75,8.75v7.54c0,3.16,1.58,3.41,4.75.85l10.21-8.14,10.21,8.14c3.17,2.56,4.75,2.31,4.75-.85V94.84C398.11,91.56,396.53,88.76,393.36,86.09Z"/><path class="cls-1" d="M477.63,87.91h-10V87l-16.17-1.45v2.35h-2.31V85.35l-11.43-1v15.87c0,3.16,1.58,4.87,4.74,4.87h93.14c3.16,0,4.74-1.71,4.74-4.87V93.55Z"/><path class="cls-1" d="M316.76,2.43h-58Q254,2.43,254,7.17V23.35q0,4.74,4.74,4.74h7.66q4.74,0,4.74-4.74v-3.9h2.31V27.6q0,4.74-4.74,4.74h-10q-4.74,0-4.74,4.75v7.53q0,4.76,4.74,4.75h8.63a25.65,25.65,0,0,0,9.12-1.46,6,6,0,0,0-.12,1.46v4.86H258.76Q254,54.23,254,59v7.54q0,4.74,4.74,4.74h10.7l-10.7,10.46Q254,86.45,254,91.19v11.43q0,4.75,4.74,0l17.63-17.14v14.71c0,3.16,1.58,4.87,4.74,4.87h13.25c3.16,0,4.74-1.71,4.74-4.87V85.48l17.64,17.14q4.74,4.75,4.74,0V91.19q0-4.74-4.74-9.48l-10.7-10.46h10.7q4.74,0,4.74-4.74V59q0-4.74-4.74-4.74H299.12V49.37h17.64q4.74,0,4.74-4.75V37.09q0-4.76-4.74-4.75H302V19.45h2.31v3.9c0,3.16,1.59,4.74,4.75,4.74h7.66q4.74,0,4.74-4.74V7.17Q321.5,2.43,316.76,2.43Zm-27.6,42.19h-7.54q4.74-4.74,4.74-14.22V19.45h2.8Z"/><path class="cls-1" d="M372.94,70.77h20.42q4.75,0,4.75-4.75V44.14q0-4.74-4.75-4.74H372.94q-4.76,0-4.75,4.74V66Q368.19,70.78,372.94,70.77Zm8.14-18.49h4.74V58h-4.74Z"/><path class="cls-1" d="M426.19,86.09l-1-.73V83.2l-18.48-1.67v3.83l-1,.73c-3.16,2.67-4.74,5.47-4.74,8.75v7.54c0,3.16,1.58,3.41,4.74.85L416,95.09l10.21,8.14c3.16,2.56,4.75,2.31,4.75-.85V94.84C430.94,91.56,429.35,88.76,426.19,86.09Z"/><path class="cls-1" d="M44.66,13.31,0,10.14v4.57q0,4.74,4.74,4.74h5.72v2.44q0,4.74,4.74,4.74H28.94q4.74,0,4.74-4.74V19.45H44.14q4.74,0,4.74-4.74V9.48q0-4.74-4.74-4.74H25.66Q25.66,0,20.91,0H4.74Q0,0,0,4.74V7Z"/><path class="cls-1" d="M97.88,29.43H64.08V27.11q0-4.74-4.74-4.74H43.29c-3.16,0-4.75,1.58-4.75,4.74v2.32H4.74Q0,29.43,0,34.17V50.34q0,4.74,4.74,4.74H7.17V97.8l25.66-5.74V87.91H72.22v4.26H34.64l-27.46,8.2c.07,3,1.64,4.69,4.74,4.69H93.14c3.16,0,4.74-1.71,4.74-4.87V81.71q0-4.74-4.74-4.74H32.83V72.71H90.71q4.74,0,4.74-4.74V55.08h2.43q4.74,0,4.74-4.74V34.17Q102.62,29.43,97.88,29.43ZM69.79,61.77h-37V57.51h37ZM77,46.57H25.66V42.31H77Z"/><path class="cls-1" d="M254,48.88c0-3.16-1.59-4.38-4.75-3.4V36.6c3.16,0,4.75-1.58,4.75-4.74V24.2c0-3.16-1.59-4.75-4.75-4.75V4.74q0-4.74-4.74-4.74H230.79q-4.74,0-4.74,4.74V19.45h-2.43c-3.16,0-4.74,1.59-4.74,4.75v7.66q0,4.74,4.74,4.74h2.43v6.7L244,56.81l-17.92-6.75v2.59l-2.43.73c-3.16,1-4.74,2.92-4.74,6.08v7.66q0,4.74,4.74,3.28l2.43-.73V87.91h-2.43q-4.74,0-4.74,4.74v7.54c0,3.16,1.58,4.87,4.74,4.87h20.91c3.16,0,4.74-1.71,4.74-4.87V62.62c3.16-1,4.75-3,4.75-6.2Z"/><path class="cls-1" d="M207.32,38.54c-3.16,0-4.74,1.59-4.74,4.75h-1.46l10-19.09c1.7-3.16,1.09-4.75-2.19-4.75h-6.57c-3,0-5.35,1.46-7.17,4.38h-.73l10-19.09C206.22,1.58,205.49,0,202.33,0h-4.25c-3.17,0-5.72,1.58-7.42,4.74l-10,19.09a12.88,12.88,0,0,0-1.46,6.08V11.43q0-4.74-4.74-4.74h-1V4.74q0-4.74-4.75-4.74H152.72Q148,0,148,4.74v2h-1q-4.74,0-4.74,4.74V43.29c0-3.16-1.59-4.75-4.75-4.75s-4.74,1.59-4.74,4.75h-1.46l10-19.09c1.7-3.16,1-4.75-2.19-4.75h-6.56a8,8,0,0,0-7.18,4.38h-.73l10-19.09C136.31,1.58,135.7,0,132.54,0h-4.38q-4.74,0-7.29,4.74L119,8.34l8.53,4.28L118,10.23l-4.19,8,7.68,3.85L112.92,20l-2,3.87a12.76,12.76,0,0,0-1.46,6.08v4.26c0,3.28,1.58,4.86,4.74,4.86h3.28l-2.31,4.26h-1q-4.74,0-4.74,4.74v5.71c0,3.16,1.58,4.75,4.74,4.75h23.34c3.16,0,4.75-1.59,4.75-4.75,0,3.16,1.58,4.75,4.74,4.75h1v2.79h-33.8q-4.74,0-4.74,4.74v7.66q0,4.75,4.74,4.75h16.9l-16.9,6.93c-3.16,1.34-4.74,3.65-4.74,6.81v9.48c0,3.16,1.58,4.14,4.74,2.8L148,90.34v9.85c0,3.16,1.58,4.87,4.74,4.87h16.05c3.17,0,4.75-1.71,4.75-4.87V90.34l33.8,14.11c3.16,1.34,4.74.36,4.74-2.8V92.17c0-3.16-1.58-5.47-4.74-6.81l-16.9-6.93h16.9q4.74,0,4.74-4.75V66q0-4.74-4.74-4.74h-33.8V58.49h1c3.16,0,4.74-1.59,4.74-4.75,0,3.16,1.58,4.75,4.74,4.75h23.35c3.16,0,4.74-1.59,4.74-4.75V43.29C212.06,40.13,210.48,38.54,207.32,38.54Zm-44.14,4.75h-4.86V39h4.86Zm0-17.15h-4.86V21.89h4.86ZM185,43.29h-1q-4.74,0-4.74,4.74V34.17c0,3.28,1.58,4.86,4.74,4.86h3.29Z"/><path class="cls-1" d="M97.88,4.74H77Q77,0,72.22,0H56.05q-4.74,0-4.74,4.74v10q0,4.74,4.74,4.74H68.94v2.44q0,4.74,4.74,4.74H87.42q4.76,0,4.75-4.74V19.45h5.71q4.74,0,4.74-4.74V9.48Q102.62,4.74,97.88,4.74Z"/></svg>