<svg id="圖層_1" data-name="圖層 1" xmlns="http://www.w3.org/2000/svg" viewBox="0 0 550.66 129.64"><defs><style>.cls-1{fill:#fff;}.cls-2{fill:#f6ab00;}.cls-3{fill:#231815;}</style></defs><title>logo_w_01</title><path class="cls-1" d="M474,98.66a8.32,8.32,0,0,1-.85,0,7.22,7.22,0,0,1-6.68-7,2.17,2.17,0,0,1,0-.26l-.84,0H465a20.53,20.53,0,0,1-20.77-20.44c0-.55,0-1.1,0-1.64a6.79,6.79,0,0,1-3.38,1.14h-.38a6.94,6.94,0,0,1-6.88-6.77c-.05-2.56-.08-4.89-.08-7.12a6.71,6.71,0,0,1,6.88-6.84h.29a6.37,6.37,0,0,1,3.05.9h.63l3.4,0c4.18-.05,8.35-.12,12.53-.18l4.38-.08a6.94,6.94,0,0,1,1.49-4.07,6.14,6.14,0,0,1,4.57-2.3c1.5-.05,3-.08,4.52-.11h.12a6.71,6.71,0,0,1,1.1.09,6,6,0,0,1,1-.11c1.54,0,3.1,0,4.65,0a6.24,6.24,0,0,1,1,.08,7.15,7.15,0,0,1,1.49-.18c1.3,0,2.61-.06,3.92-.07a6.46,6.46,0,0,1,6.71,6.24h.33l17.74-.29c3.08-2,5.64-3.86,8-5.66a49.47,49.47,0,0,0,4.9-4.21,7.21,7.21,0,0,0,1.2-1.43,6.71,6.71,0,0,1,1.47-1.78A5.69,5.69,0,0,1,532.76,35H533a5.64,5.64,0,0,1,3.88,1.76,6.2,6.2,0,0,1,1.71,2.79l.08.29a15.11,15.11,0,0,1,.59,2.65l0,.1c.25,2.13.52,4.33.67,6.58a162.18,162.18,0,0,1,.25,17.74,48.34,48.34,0,0,1-.79,7.84,20.13,20.13,0,0,1-.54,2l-.08.25a7.16,7.16,0,0,1-1,2.06,6.21,6.21,0,0,1-5,2.59,6.15,6.15,0,0,1-4.49-2,7.81,7.81,0,0,1-1.33-1.93A6.57,6.57,0,0,0,525.56,76a37.81,37.81,0,0,0-6-4.81c-.74-.48-1.48-1-2.23-1.43a20.75,20.75,0,0,1-16.52,20.65,24.09,24.09,0,0,1-4.5.4c-.31,0-.62,0-.92,0H495c0,.12,0,.25,0,.38A6.92,6.92,0,0,1,491.94,97a7.82,7.82,0,0,1-4.48,1.43,7.91,7.91,0,0,1-3.32-.74l-.07,0-.18.08a7.72,7.72,0,0,1-3.43.8,7.91,7.91,0,0,1-3.14-.65A7.69,7.69,0,0,1,474,98.66Zm-8.82-30.22a7.33,7.33,0,0,0-1.32.12c-.21.06-.68.18-1.29,1.15a2.47,2.47,0,0,0,.39,2.84,2.38,2.38,0,0,0,1.77.77l1.33,0L466,68.42Zm29.58,4.33,2.17-.08a3.53,3.53,0,0,0,.76-.09,1.79,1.79,0,0,0,1-.81,2.43,2.43,0,0,0-1.9-3.89q-.89,0-1.77,0h-.38Z"/><path d="M452.34,62.71l-10.65.18c0,.14,0,.34,0,.55a1.32,1.32,0,0,1-1.12,1.32,1.25,1.25,0,0,1-1.27-1.21q-.07-3.51-.08-7c0-.79.5-1.18,1.29-1.15a1,1,0,0,1,.79.52.86.86,0,0,0,.84.38c1.91,0,3.82,0,5.73,0l12.55-.18,10.44-.19.67,0c0-.6,0-1.19,0-1.78s0-1.23,0-1.84c0-.25-.05-.39-.35-.38a.73.73,0,0,1-.43-.19,1.55,1.55,0,0,1-.13-1.83.53.53,0,0,1,.35-.2c1.48-.05,3-.09,4.45-.11A.66.66,0,0,1,476,50a1.74,1.74,0,0,1,.09,1.19.83.83,0,0,1-1,.65c0,1.35.05,2.68.07,4l2.9,0c0-1.3-.06-2.62-.08-4h0a.87.87,0,0,1-.95-.55,1.44,1.44,0,0,1,.11-1.47.67.67,0,0,1,.44-.24c1.52,0,3,0,4.54,0a.5.5,0,0,1,.34.21,1.53,1.53,0,0,1,.05,1.62.86.86,0,0,1-.81.42l.06,4,3.13-.12c0-1.24,0-2.56-.08-3.94.05,0,0,0,0,0-.83-.1-1.17-.57-1-1.43.09-.68.27-.86.94-.88l3.82-.06c.7,0,1,.25,1,1a2.54,2.54,0,0,1-.14.86c-.14.43-.54.46-.86.49,0,1.35,0,2.68,0,4.06l1.9-.06,24.18-.4a1.19,1.19,0,0,0,.61-.17c3.22-2.11,6.4-4.29,9.45-6.64a57.71,57.71,0,0,0,5.44-4.67,12.46,12.46,0,0,0,2.15-2.7c.08-.15.25-.25.37-.38.13.14.31.27.36.44a13.6,13.6,0,0,1,.51,2.07c.25,2.12.51,4.25.66,6.38a157.7,157.7,0,0,1,.24,17.12,43.64,43.64,0,0,1-.69,6.94,16.24,16.24,0,0,1-.47,1.65,1.66,1.66,0,0,1-.25.45.47.47,0,0,1-.76.07,2.16,2.16,0,0,1-.37-.54A12.14,12.14,0,0,0,529.58,72a43.41,43.41,0,0,0-6.93-5.54c-2.32-1.53-4.7-3-7-4.42a.86.86,0,0,0-.4-.13l-6,.1-.15,0,.18.31a14.84,14.84,0,0,1-9.66,22.52,26.39,26.39,0,0,1-4.46.31c-1.85.07-3.71.08-5.56.11l-.29,0c0,.13,0,.24,0,.36l0,5.6a1.28,1.28,0,0,1-.62,1.1,2.09,2.09,0,0,1-2.19.19,1.41,1.41,0,0,1-.9-1.33c-.05-1.83-.11-3.66-.16-5.5,0-.11,0-.22,0-.31l-3.17.09c0,.43.06.94.06,1.44,0,1.44,0,2.88,0,4.31a1.47,1.47,0,0,1-.93,1.42,2.12,2.12,0,0,1-2.38-.37,1.27,1.27,0,0,1-.34-.72c-.07-1.37-.11-2.74-.14-4.11,0-.66,0-1.31,0-1.94l-2.78,0c0,.88,0,1.79,0,2.7s.05,1.88,0,2.83A1.75,1.75,0,0,1,473.67,93a1.57,1.57,0,0,1-1.57-1.61c-.07-1.79-.1-3.6-.15-5.4a3,3,0,0,1,0-.36h-1.37c-1.72,0-3.45,0-5.17.08a14.75,14.75,0,0,1-10-3.23A14.81,14.81,0,0,1,452,63.18C452.13,63,452.24,62.85,452.34,62.71Zm36.82,15.9h.14c2.61-.08,5.23-.16,7.84-.27a8.55,8.55,0,0,0,2-.28,7.49,7.49,0,0,0,4.17-3A8.09,8.09,0,0,0,497,62.24c-2.4-.09-4.81,0-7.21,0h-.89C489,67.75,489.07,73.16,489.16,78.61ZM471.53,62.72c-2.18,0-4.35,0-6.52.05a11.62,11.62,0,0,0-2.64.31,7.84,7.84,0,0,0-4.62,3.59A8.13,8.13,0,0,0,464.59,79c2.37.05,4.74,0,7.11,0l.09,0C471.7,73.51,471.61,68.09,471.53,62.72Zm13.8,15.87v-.27q-.1-6.63-.23-13.27c0-.8,0-1.6-.07-2.4,0-.09-.11-.24-.17-.24-1,0-1.92,0-2.94,0,.12,5.45.23,10.85.35,16.28Zm-7,.24c-.08-5.47-.17-10.9-.26-16.32l-2.52,0q.06,8.12.13,16.28Z"/><path class="cls-1" d="M76.69,98.66a7.66,7.66,0,0,1-3.35-.74,8,8,0,0,1-3.14.65,7.79,7.79,0,0,1-3.44-.8l-.17-.08-.07,0a7.94,7.94,0,0,1-3.32.74A7.77,7.77,0,0,1,58.72,97a6.92,6.92,0,0,1-3-5.78v-.38l-.37,0-.92,0a24.09,24.09,0,0,1-4.5-.4A20.79,20.79,0,0,1,33.35,69.78l-2.22,1.43a37.36,37.36,0,0,0-6,4.81,6.58,6.58,0,0,0-1.33,1.68,8.09,8.09,0,0,1-1.33,1.93,6.15,6.15,0,0,1-9.5-.63,7,7,0,0,1-1.06-2.06l-.08-.26a20.13,20.13,0,0,1-.54-2,48,48,0,0,1-.79-7.84,162.11,162.11,0,0,1,.25-17.74c.15-2.27.42-4.49.68-6.64a15.85,15.85,0,0,1,.6-2.69l.08-.3a6.28,6.28,0,0,1,1.71-2.79A5.65,5.65,0,0,1,17.68,35h.22a5.7,5.7,0,0,1,3.86,1.52,6.58,6.58,0,0,1,1.46,1.77,6.56,6.56,0,0,0,1.2,1.43,47.82,47.82,0,0,0,4.89,4.2c2.36,1.82,4.93,3.63,8,5.67L55,49.84h.38A6.44,6.44,0,0,1,62,43.61c1.38,0,2.69,0,4,.07a7.14,7.14,0,0,1,1.48.18,6.22,6.22,0,0,1,1-.08c1.56,0,3.11,0,4.67,0a6.12,6.12,0,0,1,1,.11,6.5,6.5,0,0,1,1.09-.09h.12c1.51,0,3,.06,4.52.11a6.18,6.18,0,0,1,4.57,2.29A7,7,0,0,1,86,50.33l4.38.08c4.18.06,8.35.13,12.53.18l3.4,0h.62a6.37,6.37,0,0,1,3-.9h.3a6.71,6.71,0,0,1,6.88,6.83c0,2.19,0,4.53-.08,7.13a6.94,6.94,0,0,1-6.88,6.77h-.38a6.92,6.92,0,0,1-3.39-1.14c0,.54.06,1.09,0,1.64A20.53,20.53,0,0,1,85.67,91.36h-.6l-.84,0a2.44,2.44,0,0,1,0,.27,7.22,7.22,0,0,1-6.69,7A8.13,8.13,0,0,1,76.69,98.66Zm7.94-25.32,1.32,0a2.4,2.4,0,0,0,1.78-.77,2.47,2.47,0,0,0,.39-2.84c-.61-1-1.08-1.09-1.28-1.15a7.66,7.66,0,0,0-1.32-.12l-.81,0Zm-29-5.47q-.88,0-1.77,0A2.44,2.44,0,0,0,52,71.79a1.8,1.8,0,0,0,1,.81,3.53,3.53,0,0,0,.76.09l2.17.08L56,67.88Z"/><path d="M98.63,63.18a14.81,14.81,0,0,1-3.46,19.27,14.75,14.75,0,0,1-10,3.23c-1.73,0-3.45-.05-5.17-.08H78.67c0,.15,0,.26,0,.36,0,1.8-.08,3.61-.15,5.4A1.58,1.58,0,0,1,77,93a1.74,1.74,0,0,1-2.12-1.87c0-1,0-1.89,0-2.83s0-1.82,0-2.7l-2.78,0c0,.63,0,1.28,0,1.94,0,1.37-.07,2.74-.14,4.11a1.27,1.27,0,0,1-.34.72,2.12,2.12,0,0,1-2.38.37,1.49,1.49,0,0,1-.94-1.42c0-1.43,0-2.87,0-4.31,0-.5.05-1,.06-1.44l-3.16-.09c0,.09,0,.2,0,.31-.06,1.84-.11,3.67-.16,5.5a1.4,1.4,0,0,1-.91,1.33A2.07,2.07,0,0,1,62,92.38a1.28,1.28,0,0,1-.62-1.1l0-5.6c0-.12,0-.23,0-.36l-.29,0c-1.85,0-3.71,0-5.56-.11a26.39,26.39,0,0,1-4.46-.31,14.84,14.84,0,0,1-9.66-22.52l.18-.31-.15,0-6-.1a.86.86,0,0,0-.4.13c-2.35,1.46-4.73,2.89-7,4.42A43,43,0,0,0,21.08,72a12.14,12.14,0,0,0-2.41,3.19,2.16,2.16,0,0,1-.37.54.47.47,0,0,1-.76-.07,1.66,1.66,0,0,1-.25-.45,14,14,0,0,1-.47-1.65,43.64,43.64,0,0,1-.69-6.94,155.21,155.21,0,0,1,.24-17.12c.15-2.13.41-4.26.66-6.38a13.6,13.6,0,0,1,.51-2.07c0-.17.23-.3.35-.44.13.13.3.23.38.38a12.46,12.46,0,0,0,2.15,2.7,57.71,57.71,0,0,0,5.44,4.67c3.05,2.35,6.22,4.53,9.45,6.64a1.17,1.17,0,0,0,.61.17l24.18.4,1.9.06c0-1.38,0-2.71,0-4.06-.31,0-.71-.06-.85-.49a2.54,2.54,0,0,1-.14-.86c0-.71.32-1,1-1l3.82.06c.67,0,.85.2.94.88.12.86-.22,1.33-1,1.43h0c0,1.38-.06,2.7-.08,3.94l3.13.12.06-4a.86.86,0,0,1-.81-.42,1.53,1.53,0,0,1,0-1.62.5.5,0,0,1,.33-.21c1.52,0,3,0,4.54,0a.63.63,0,0,1,.44.24,1.41,1.41,0,0,1,.12,1.47.87.87,0,0,1-1,.55s0,0,0,0c0,1.37-.05,2.69-.08,4l2.9,0c0-1.31,0-2.64.07-4a.82.82,0,0,1-1-.65A1.74,1.74,0,0,1,74.64,50a.66.66,0,0,1,.63-.44c1.48,0,3,.06,4.44.11a.53.53,0,0,1,.35.2,1.55,1.55,0,0,1-.12,1.83.73.73,0,0,1-.44.19c-.29,0-.34.13-.34.38,0,.61,0,1.23,0,1.84s0,1.18,0,1.78l.67,0,10.44.19,12.55.18c1.91,0,3.82,0,5.73,0a.86.86,0,0,0,.84-.38,1,1,0,0,1,.79-.52c.79,0,1.29.36,1.29,1.15q0,3.51-.08,7a1.25,1.25,0,0,1-1.27,1.21A1.3,1.3,0,0,1,109,63.44c0-.21,0-.41,0-.55l-10.65-.18C98.42,62.85,98.53,63,98.63,63.18Zm-36.86-.91h-.89c-2.41,0-4.81-.13-7.21,0a8.09,8.09,0,0,0-6.34,12.84,7.55,7.55,0,0,0,4.18,3,8.55,8.55,0,0,0,2,.28c2.61.11,5.22.19,7.84.27h.14C61.59,73.16,61.68,67.75,61.77,62.27ZM78.87,79,79,79c2.37,0,4.74.07,7.11,0a8.05,8.05,0,0,0,5.61-2.38,8.14,8.14,0,0,0,1.23-9.94,7.84,7.84,0,0,0-4.62-3.59,11.62,11.62,0,0,0-2.64-.31c-2.17-.05-4.34,0-6.52-.05C79.05,68.09,79,73.51,78.87,79Zm-10.48-.24c.11-5.43.23-10.83.35-16.28-1,0-2,0-2.94,0-.06,0-.16.15-.17.24,0,.8-.06,1.6-.08,2.4q-.1,6.63-.22,13.27a2.36,2.36,0,0,0,0,.27Zm6.63.11q.06-8.17.13-16.28l-2.52,0c-.09,5.42-.18,10.85-.27,16.32Z"/><path class="cls-2" d="M426.7,64.82A52.86,52.86,0,0,1,329.3,93.3l-5-7.86-5,7.86a52.85,52.85,0,0,1-88.5.87l-5-7.43-5,7.43a52.86,52.86,0,1,1,0-58.7l5,7.43,5-7.43a52.86,52.86,0,0,1,88.5.88l5,7.85,5-7.85a52.86,52.86,0,0,1,97.4,28.47Z"/><path class="cls-3" d="M373.82,0a64.55,64.55,0,0,0-49.56,23.05,64.81,64.81,0,0,0-98.5-.73,64.82,64.82,0,1,0,0,85,64.81,64.81,0,0,0,98.5-.73A64.82,64.82,0,1,0,373.82,0Zm0,117.69A52.66,52.66,0,0,1,329.3,93.3l-5-7.86-5,7.86a52.85,52.85,0,0,1-88.5.87l-5-7.43-5,7.43a52.86,52.86,0,1,1,0-58.7l5,7.43,5-7.43a52.86,52.86,0,0,1,88.5.88l5,7.85,5-7.85a52.86,52.86,0,1,1,44.52,81.34Z"/><path class="cls-3" d="M183.57,59.66l23.06,22.21,22.63,9.65L202,112.05,173.93,76.43l-41.08,35.2L158.42,63l-21.79-2.09-10.06-13,38.14-7.13,6.71-30.59,16.77,10.89.83,21,27.25-5.87,12.16,21Z"/><path class="cls-3" d="M251.65,21.93l68.32-5-9.22,37.31v57.84L285.6,101.58l-47.79,5.86L236.14,68l-5.45-48.62Zm38.14,42.34,2.94-8.38L251.65,60.5,253.74,68ZM255,90.26l37.73-2.52-1.26-10.48-39.82,6.29Zm36.89-47.37,1.26-8.8L252.9,37.44l3.36,8Z"/><path class="cls-3" d="M422.42,50,409.84,65.53l-15.92-8,3.77,9.22L414.46,68,417,76l-21.38,2.51,1.26,4.61,19.7,1.68,5,8-23.05,2.52-4.61,13-10.06,3.77-5-14.67L358.7,96.13,363.32,81l-4.2-4.61-9.64,22.21-7.12-9.22-5,18-8.8,4.61-4.2-65.81-4.19-25.15,10.48.84L360,17.32l-9.22,36.89,5.45,7.54,19.28-18.44-5.87-1.68-15.09,5L376.73,10.2l11.32,12.15,16.76-5.45,13,15.93L398.53,44.15l10.9,3.77Zm-88-13.84L337.75,50l5-4.61.84-15.51Zm3.36,44.44,9.64-2.94L344,64.27,337.75,63ZM382.6,58.4l9.64-3.35-5.87-3.78L358.7,63l1.68,5.87,18.86-4.19Zm-2.52,27.25,1.26-9.22-13,.83L373,86.49Zm8-44L399,30.32l-21,1.25Z"/></svg>