<svg id="圖層_1" data-name="圖層 1" xmlns="http://www.w3.org/2000/svg" viewBox="0 0 342.13 78.73"><defs><style>.cls-1{fill:#fff;}</style></defs><title>logo_w_04</title><path class="cls-1" d="M96.27,78.08V67.64l20-37.73A13.89,13.89,0,0,0,118,25c.14-1.41.21-3.17.21-5.27,0-1,0-2,0-3a7.38,7.38,0,0,0-.6-2.77,5.12,5.12,0,0,0-1.63-2,5.23,5.23,0,0,0-3.15-.82,5.44,5.44,0,0,0-4,1.42,5.47,5.47,0,0,0-1.47,4.13V23H96.27V16.86a16.41,16.41,0,0,1,1.3-6.53A17,17,0,0,1,101.16,5a16.38,16.38,0,0,1,5.22-3.64A15.9,15.9,0,0,1,112.9,0a16.26,16.26,0,0,1,7.45,1.58,14.86,14.86,0,0,1,5.17,4.29,19,19,0,0,1,2.88,6.2,28.58,28.58,0,0,1,.92,7.4c0,1.88,0,3.46-.1,4.73a29.46,29.46,0,0,1-.44,3.64,16.06,16.06,0,0,1-1.09,3.48c-.51,1.16-1.19,2.57-2.06,4.24L109.32,67h20V78.08Z"/><path class="cls-1" d="M136.72,16.64a16.85,16.85,0,0,1,1.36-7,16.22,16.22,0,0,1,3.64-5.22A15.6,15.6,0,0,1,147,1.14a17.7,17.7,0,0,1,12.5,0,15.8,15.8,0,0,1,5.28,3.32,16.38,16.38,0,0,1,3.64,5.22,17,17,0,0,1,1.36,7V62.1a17,17,0,0,1-1.36,7,16.38,16.38,0,0,1-3.64,5.22,15.77,15.77,0,0,1-5.28,3.31,17.7,17.7,0,0,1-12.5,0,15.58,15.58,0,0,1-5.28-3.31,16.22,16.22,0,0,1-3.64-5.22,16.88,16.88,0,0,1-1.36-7ZM147.81,62.1a5.45,5.45,0,0,0,1.53,4,5.63,5.63,0,0,0,7.82,0,5.45,5.45,0,0,0,1.53-4V16.64a5.48,5.48,0,0,0-1.53-4,5.63,5.63,0,0,0-7.82,0,5.48,5.48,0,0,0-1.53,4Z"/><path class="cls-1" d="M177.17,78.08V67.64l20-37.73A13.65,13.65,0,0,0,198.92,25a51.45,51.45,0,0,0,.22-5.27c0-1,0-2,0-3a7.38,7.38,0,0,0-.6-2.77,5.21,5.21,0,0,0-1.63-2,5.24,5.24,0,0,0-3.16-.82,5.45,5.45,0,0,0-4,1.42,5.5,5.5,0,0,0-1.46,4.13V23h-11.1V16.86a16.42,16.42,0,0,1,1.31-6.53A16.81,16.81,0,0,1,182.07,5a16.38,16.38,0,0,1,5.22-3.64A15.9,15.9,0,0,1,193.81,0a16.29,16.29,0,0,1,7.45,1.58,14.86,14.86,0,0,1,5.17,4.29,19,19,0,0,1,2.88,6.2,29,29,0,0,1,.92,7.4c0,1.88,0,3.46-.11,4.73a29.49,29.49,0,0,1-.43,3.64,16.06,16.06,0,0,1-1.09,3.48q-.76,1.74-2.06,4.24L190.22,67h20V78.08Z"/><path class="cls-1" d="M230.78,33.28q5,0,6.91-1.2t1.9-5.54v-10a5.43,5.43,0,0,0-1.47-3.92,5.25,5.25,0,0,0-4-1.52A4.69,4.69,0,0,0,230,12.94a6.4,6.4,0,0,0-1.25,3.59v6.31H217.63V16.42a16.11,16.11,0,0,1,1.3-6.41,15.64,15.64,0,0,1,3.59-5.22,17.62,17.62,0,0,1,5.33-3.48A16.37,16.37,0,0,1,234.37,0a14.44,14.44,0,0,1,7.56,1.8,17.28,17.28,0,0,1,4.51,3.64,24,24,0,0,1,1.91,2.61,13.15,13.15,0,0,1,1.36,3.15,43.65,43.65,0,0,1,1,10.66c0,2.68-.05,4.86-.16,6.52a13.91,13.91,0,0,1-.81,4.14,8.37,8.37,0,0,1-2.12,2.93,25.21,25.21,0,0,1-3.75,2.61,21.29,21.29,0,0,1,4,3,9,9,0,0,1,2,3.26,16.94,16.94,0,0,1,.76,4.62q.1,2.67.1,6.8,0,3.81-.16,6.31a32.4,32.4,0,0,1-.49,4.13,12.24,12.24,0,0,1-.87,2.94,17.6,17.6,0,0,1-6.68,7.55,15.61,15.61,0,0,1-8.43,2,19.59,19.59,0,0,1-5.55-.87A15.21,15.21,0,0,1,223.17,75a15.47,15.47,0,0,1-4-5.11,17.21,17.21,0,0,1-1.57-7.73V55.9h11.09v5.76a6.32,6.32,0,0,0,1.47,4.3,5.52,5.52,0,0,0,7.93,0,6.65,6.65,0,0,0,1.47-4.52V50.35c0-3-.58-5-1.74-6a4.87,4.87,0,0,0-2.66-1.09,37.16,37.16,0,0,0-4.41-.21Z"/><rect class="cls-1" y="11.65" width="76.64" height="5.66"/><rect class="cls-1" x="20.1" y="37.39" width="56.54" height="5.66"/><rect class="cls-1" x="46.72" y="66.59" width="29.92" height="5.66"/><rect class="cls-1" x="265.5" y="11.65" width="76.64" height="5.66"/><rect class="cls-1" x="265.5" y="37.39" width="56.54" height="5.66"/><rect class="cls-1" x="265.5" y="66.59" width="29.92" height="5.66"/></svg>