<svg id="圖層_1" data-name="圖層 1" xmlns="http://www.w3.org/2000/svg" viewBox="0 0 842.6 163.81"><defs><style>.cls-1{fill:#231815;}</style></defs><title>title02</title><path class="cls-1" d="M692.19,127.89V98.1q0-7.17-7.18-7.18h-2.94q-7.19,0-7.18,7.18v29Z"/><path class="cls-1" d="M576.81,55.78l1.1-.74q1.94,2.76,6.07,2.76h66.25q4.14,0,6.07-2.76l1.11.74c4.78,2.76,7.17,1.84,7.17-3V38.48c0-5-2.39-8.65-7.17-11.41L617.11,2.41l-40.3,24.66c-4.79,2.76-7.18,6.44-7.18,11.41V52.83C569.63,57.62,572,58.54,576.81,55.78Zm40.3-24.66,11.77,7.36H605.51Z"/><path class="cls-1" d="M655.93,121.1q0-7.17-7.17-7.17H635.14q-7.18,0-7.18,7.17V125l28,1.26Z"/><path class="cls-1" d="M682.07,83.75h13.62v44.3l24.47,1.1v-6.57h3.68a8.9,8.9,0,0,0,4.23-.93v1.66c0,4.79,2.39,7,7.18,6.26l21-5.34v6.54l20.79.94V31.85a9.27,9.27,0,0,0,3.5-.55q0,7.19,7.18,7.18h21.71V67.74l-4,5.15-3.86-5.15V52.1q0-7.18-7.18-7.18H787.7q-7.19,0-7.18,7.18v16q0,7.17,7.18,16.56l4.41,5.52-4.41,5.52q-7.19,9.38-7.18,16.56v19.59l5.66.26c.48-.55,1-1.15,1.52-1.82l17.66-22.81L823,130.3a31.32,31.32,0,0,0,3.22,3.62l3.77.17a7.62,7.62,0,0,0,.18-1.76V112.27q0-7.17-7.17-16.56l-4.42-5.52L823,84.67q7.17-9.39,7.17-16.56V19.71q0-7.19-7.17-7.18H787.7a10.16,10.16,0,0,0-3.5.55c0-4.78-2.39-7-7.18-7H735.25q-7.18,0-7.18,7.18v6.62a9,9,0,0,0-4.23-.92h-3.68V9.59q0-7.18-7.18-7.18H699.37q-7.18,0-7.18,7.18V19H682.07q-7.19,0-7.18,7.18V37.74q0,7.18,7.18,7.18h10.12V57.8H682.07q-7.19,0-7.18,7.18V76.57Q674.89,83.76,682.07,83.75Zm70.48-51.9h7.17v6.63h-7.17Zm0,29.63h7.17v6.44h-7.17Zm0,29.44h7.17v6.63l-7.17,1.84Zm-32.39-7.17h3.68q7.17,0,7.18-7.18V65q0-7.19-7.18-7.18h-3.68V44.92h3.68q7.17,0,7.18-7.18V30.93a7.2,7.2,0,0,0,4.23.92v71.77a7.39,7.39,0,0,0-4.23,1.66v-1.47q0-7.19-7.18-7.18h-3.68Z"/><path class="cls-1" d="M657.41,109.51q7.17,0,7.17-7.18V69.21q0-7.17-7.17-7.18H626.49q-7.18,0-7.18,7.18v33.12q0,7.19,7.18,7.18Zm-19.51-28h7.17v8.65H637.9Z"/><path class="cls-1" d="M558.22,6.09H516.45q-7.19,0-7.18,7.18V154c0,4.79,2.39,7.36,7.18,7.36h13.61c4.79,0,7.18-2.57,7.18-7.36V135.46h21q7.17,0,7.18-7.18V65q0-7.19-7.18-7.18h-.37l6.44-25.95a32.59,32.59,0,0,0,1.11-8.65V13.27Q565.4,6.09,558.22,6.09ZM533.74,31.85h6.08l-6.08,24.48Zm7.18,77.66h-7.18V83.75h7.18Z"/><path class="cls-1" d="M607.72,132.7l-1.47-1.11V121.1q0-7.17-7.18-7.17H585.45q-7.17,0-7.18,7.17v10.49l-1.46,1.11c-4.79,4-7.18,8.28-7.18,13.25v11.4c0,4.79,2.39,5.16,7.18,1.29l15.45-12.33,15.46,12.33c4.79,3.87,7.18,3.5,7.18-1.29V146C614.9,141,612.51,136.74,607.72,132.7Z"/><path class="cls-1" d="M735.25,135.46H720.16V134.1l-24.47-2.2v3.56h-3.5v-3.88L674.89,130v24c0,4.79,2.39,7.36,7.18,7.36H823c4.78,0,7.17-2.57,7.17-7.36V144Z"/><path class="cls-1" d="M491.78,6.09H404q-7.18,0-7.18,7.18V37.74q0,7.18,7.18,7.18H415.6q7.17,0,7.17-7.18V31.85h3.5V44.18q0,7.18-7.18,7.18H404q-7.18,0-7.18,7.18V70q0,7.17,7.18,7.17h13.06a38.56,38.56,0,0,0,13.8-2.21,9.21,9.21,0,0,0-.18,2.21v7.36H404q-7.18,0-7.18,7.18v11.41q0,7.17,7.18,7.18H420.2L404,126.07q-7.18,7.19-7.18,14.36v17.29q0,7.18,7.18,0l26.68-25.94V154c0,4.79,2.39,7.36,7.17,7.36h20.06c4.79,0,7.18-2.57,7.18-7.36V131.78l26.68,25.94q7.17,7.18,7.18,0V140.43q0-7.19-7.18-14.36l-16.19-15.82h16.19q7.17,0,7.18-7.18V91.66q0-7.17-7.18-7.18H465.1V77.12h26.68Q499,77.12,499,70V58.54q0-7.18-7.18-7.18H469.52V31.85H473v5.89q0,7.18,7.18,7.18h11.59q7.17,0,7.18-7.18V13.27Q499,6.09,491.78,6.09ZM450,70H438.6q7.17-7.19,7.18-21.54V31.85H450Z"/><path class="cls-1" d="M576.81,109.51h30.91q7.18,0,7.18-7.18V69.21q0-7.17-7.18-7.18H576.81q-7.18,0-7.18,7.18v33.12Q569.63,109.52,576.81,109.51Zm12.32-28h7.18v8.65h-7.18Z"/><path class="cls-1" d="M657.41,132.7l-1.48-1.11v-3.27l-28-2.52v5.79l-1.47,1.11c-4.79,4-7.18,8.28-7.18,13.25v11.4c0,4.79,2.39,5.16,7.18,1.29L642,146.31l15.46,12.33c4.78,3.87,7.17,3.5,7.17-1.29V146C664.58,141,662.19,136.74,657.41,132.7Z"/><path class="cls-1" d="M80,22.56,12.4,17.76v6.92q0,7.17,7.18,7.17h8.64v3.68q0,7.19,7.18,7.18H56.2q7.17,0,7.17-7.18V31.85H79.2q7.17,0,7.18-7.17V16.77q0-7.18-7.18-7.18h-28q0-7.18-7.18-7.18H19.58q-7.18,0-7.18,7.18V13Z"/><path class="cls-1" d="M160.53,46.94H109.38V43.45q0-7.19-7.18-7.18H77.91q-7.17,0-7.18,7.18v3.49H19.58q-7.18,0-7.18,7.18V78.59q0,7.18,7.18,7.18h3.67v64.65l38.84-8.69v-6.27H121.7v6.44H64.82L23.27,154.31c.1,4.6,2.48,7.09,7.16,7.09H153.36c4.78,0,7.17-2.57,7.17-7.36v-28q0-7.17-7.17-7.18H62.09v-6.44h87.59q7.17,0,7.17-7.17V85.77h3.68q7.18,0,7.18-7.18V54.12Q167.71,47,160.53,46.94Zm-42.5,49H62.09V89.45H118Zm10.85-23H51.23V66.45h77.65Z"/><path class="cls-1" d="M396.83,76.39c0-4.79-2.4-6.63-7.18-5.16V57.8q7.17,0,7.18-7.18V39q0-7.17-7.18-7.18V9.59q0-7.18-7.18-7.18H361.68q-7.17,0-7.18,7.18V31.85h-3.68q-7.17,0-7.17,7.18V50.62q0,7.18,7.17,7.18h3.68V68l27.13,20.44L354.5,78.17v3.92l-3.68,1.1c-4.78,1.48-7.17,4.42-7.17,9.21V104q0,7.17,7.17,5l3.68-1.11v27.61h-3.68q-7.17,0-7.17,7.17V154c0,4.79,2.39,7.36,7.17,7.36h31.65c4.79,0,7.18-2.57,7.18-7.36V97.18q7.17-2.21,7.18-9.38Z"/><path class="cls-1" d="M326.16,60.74q-7.19,0-7.18,7.18h-2.21L331.86,39c2.58-4.78,1.66-7.18-3.31-7.18h-9.94c-4.6,0-8.09,2.21-10.86,6.63h-1.1L321.74,9.59c2.76-4.79,1.65-7.18-3.13-7.18h-6.44c-4.78,0-8.65,2.39-11.22,7.18L285.86,38.48a19.33,19.33,0,0,0-2.21,9.2v-28q0-7.19-7.18-7.18H275V9.59q0-7.18-7.18-7.18H243.53q-7.17,0-7.18,7.18v2.94h-1.47q-7.17,0-7.17,7.18V67.92q0-7.17-7.18-7.18t-7.18,7.18h-2.21L226.24,39q3.85-7.17-3.32-7.18H213c-4.6,0-8.29,2.21-10.86,6.63H201L216.11,9.59c2.58-4.79,1.66-7.18-3.12-7.18h-6.63q-7.17,0-11,7.18L192.48,15l12.91,6.48L191,17.89,184.64,30l11.63,5.83-13-3.25-3.06,5.86a19.44,19.44,0,0,0-2.21,9.2v6.44c0,5,2.39,7.36,7.18,7.36h5l-3.5,6.44H185.2q-7.19,0-7.18,7.18v8.65q0,7.17,7.18,7.17h35.33q7.17,0,7.18-7.17,0,7.17,7.17,7.17h1.47v4.24H185.2q-7.19,0-7.18,7.17v11.6q0,7.17,7.18,7.17h25.58L185.2,131.59c-4.79,2-7.18,5.52-7.18,10.31v14.35c0,4.78,2.39,6.26,7.18,4.23l51.15-21.34V154c0,4.79,2.4,7.36,7.18,7.36h24.29c4.79,0,7.18-2.57,7.18-7.36v-14.9l51.16,21.34c4.78,2,7.17.55,7.17-4.23V141.9c0-4.79-2.39-8.28-7.17-10.31L300.58,121.1h25.58q7.17,0,7.17-7.17v-11.6q0-7.17-7.17-7.17H275V90.92h1.47q7.18,0,7.18-7.17,0,7.17,7.18,7.17h35.33q7.17,0,7.17-7.17V67.92Q333.33,60.75,326.16,60.74Zm-66.8,7.18H252V61.48h7.36Zm0-25.95H252V35.53h7.36Zm32.94,26h-1.47q-7.18,0-7.18,7.18v-21c0,5,2.39,7.36,7.18,7.36h5Z"/><path class="cls-1" d="M160.53,9.59H128.88q0-7.18-7.18-7.18H97.23q-7.17,0-7.18,7.18V24.68q0,7.17,7.18,7.17h19.51v3.68q0,7.19,7.17,7.18h20.8q7.17,0,7.18-7.18V31.85h8.64q7.18,0,7.18-7.17V16.77Q167.71,9.59,160.53,9.59Z"/></svg>