<svg id="圖層_1" data-name="圖層 1" xmlns="http://www.w3.org/2000/svg" viewBox="0 0 512.03 71.39"><defs><style>.cls-1{fill:#fff;}.cls-2{fill:#513600;}</style></defs><title>title05</title><rect class="cls-1" x="26.23" y="10.23" width="80.2" height="4.75"/><rect class="cls-1" x="47.26" y="31.81" width="59.17" height="4.75"/><rect class="cls-1" x="75.12" y="56.3" width="31.31" height="4.75"/><rect class="cls-1" x="405.6" y="10.23" width="80.2" height="4.75"/><rect class="cls-1" x="405.6" y="31.81" width="59.17" height="4.75"/><rect class="cls-1" x="405.6" y="56.3" width="31.31" height="4.75"/><path class="cls-2" d="M152.77,33.57h22A2.29,2.29,0,0,0,177.39,31V19.56A2.29,2.29,0,0,0,174.8,17H159a2.29,2.29,0,0,0-2.59,2.59v3.92a2.29,2.29,0,0,1-2.59,2.59H145a2.29,2.29,0,0,1-2.59-2.59V18q0-10.36,10.36-10.36H181Q191.4,7.68,191.4,18V32.57q0,10.36-10.36,10.36H159a2.29,2.29,0,0,0-2.59,2.59V53a1.19,1.19,0,0,0,1.33,1.32h31.06a2.29,2.29,0,0,1,2.59,2.59v4.12a2.34,2.34,0,0,1-2.59,2.65H145a2.34,2.34,0,0,1-2.59-2.65V44C142.41,37,145.86,33.57,152.77,33.57Z"/><path class="cls-1" d="M181,7.68Q191.4,7.68,191.4,18V32.57q0,10.36-10.36,10.36H159a2.29,2.29,0,0,0-2.59,2.59V53a1.19,1.19,0,0,0,1.33,1.32h31.06a2.29,2.29,0,0,1,2.59,2.59v4.12a2.34,2.34,0,0,1-2.59,2.65H145a2.34,2.34,0,0,1-2.59-2.65V44c0-7,3.45-10.42,10.36-10.42h22A2.29,2.29,0,0,0,177.39,31V19.56A2.29,2.29,0,0,0,174.8,17H159a2.29,2.29,0,0,0-2.59,2.59v3.92a2.29,2.29,0,0,1-2.59,2.59H145a2.29,2.29,0,0,1-2.59-2.59V18q0-10.36,10.36-10.36H181m0-4H152.77c-9.14,0-14.38,5.24-14.38,14.38v5.44A6.25,6.25,0,0,0,145,30.09h3c-6.19,1.57-9.64,6.45-9.64,13.9V61.05A6.29,6.29,0,0,0,145,67.73h43.81a6.29,6.29,0,0,0,6.61-6.68V56.93a6.26,6.26,0,0,0-6.61-6.61H160.44V47H181c9.14,0,14.38-5.24,14.38-14.38V18c0-9.14-5.24-14.38-14.38-14.38ZM160.44,21h12.93v8.54H156.72a6.23,6.23,0,0,0,3.72-6.06V21Z"/><path class="cls-2" d="M201.82,18q0-10.36,10.35-10.36h28.28Q250.8,7.68,250.8,18V53.28c0,6.9-3.45,10.42-10.35,10.42H212.17c-6.9,0-10.35-3.52-10.35-10.42Zm32.39,36.3a2.29,2.29,0,0,0,2.59-2.58V19.56A2.29,2.29,0,0,0,234.21,17h-15.8a2.29,2.29,0,0,0-2.59,2.59v32.2a2.29,2.29,0,0,0,2.59,2.58Z"/><path class="cls-1" d="M240.45,7.68Q250.8,7.68,250.8,18V53.28c0,6.9-3.45,10.42-10.35,10.42H212.17c-6.9,0-10.35-3.52-10.35-10.42V18q0-10.36,10.35-10.36h28.28m-22,46.66h15.8a2.29,2.29,0,0,0,2.59-2.58V19.56A2.29,2.29,0,0,0,234.21,17h-15.8a2.29,2.29,0,0,0-2.59,2.59v32.2a2.29,2.29,0,0,0,2.59,2.58m22-50.68H212.17C203,3.66,197.79,8.9,197.79,18V53.28c0,9.18,5.24,14.45,14.38,14.45h28.28c9.14,0,14.38-5.27,14.38-14.45V18c0-9.14-5.24-14.38-14.38-14.38ZM219.85,21h12.92V50.32H219.85V21Z"/><path class="cls-2" d="M271.58,33.57h22A2.29,2.29,0,0,0,296.2,31V19.56A2.29,2.29,0,0,0,293.61,17H277.82a2.29,2.29,0,0,0-2.59,2.59v3.92a2.29,2.29,0,0,1-2.59,2.59h-8.83a2.29,2.29,0,0,1-2.59-2.59V18q0-10.36,10.36-10.36h28.27q10.36,0,10.36,10.36V32.57q0,10.36-10.36,10.36h-22a2.29,2.29,0,0,0-2.59,2.59V53a1.19,1.19,0,0,0,1.33,1.32h31.06a2.29,2.29,0,0,1,2.59,2.59v4.12a2.33,2.33,0,0,1-2.59,2.65H263.81a2.34,2.34,0,0,1-2.59-2.65V44C261.22,37,264.68,33.57,271.58,33.57Z"/><path class="cls-1" d="M299.85,7.68q10.36,0,10.36,10.36V32.57q0,10.36-10.36,10.36h-22a2.29,2.29,0,0,0-2.59,2.59V53a1.19,1.19,0,0,0,1.33,1.32h31.06a2.29,2.29,0,0,1,2.59,2.59v4.12a2.33,2.33,0,0,1-2.59,2.65H263.81a2.34,2.34,0,0,1-2.59-2.65V44c0-7,3.46-10.42,10.36-10.42h22A2.29,2.29,0,0,0,296.2,31V19.56A2.29,2.29,0,0,0,293.61,17H277.82a2.29,2.29,0,0,0-2.59,2.59v3.92a2.29,2.29,0,0,1-2.59,2.59h-8.83a2.29,2.29,0,0,1-2.59-2.59V18q0-10.36,10.36-10.36h28.27m0-4H271.58C262.44,3.66,257.2,8.9,257.2,18v5.44a6.26,6.26,0,0,0,6.61,6.61h3c-6.19,1.57-9.64,6.45-9.64,13.9V61.05a6.3,6.3,0,0,0,6.61,6.68h43.81a6.29,6.29,0,0,0,6.61-6.68V56.93a6.26,6.26,0,0,0-6.61-6.61H279.25V47h20.6c9.14,0,14.38-5.24,14.38-14.38V18c0-9.14-5.24-14.38-14.38-14.38ZM279.25,21h12.93v8.54H275.53a6.22,6.22,0,0,0,3.72-6.06V21Z"/><path class="cls-2" d="M355.61,19.56A2.29,2.29,0,0,0,353,17h-15.8a2.29,2.29,0,0,0-2.59,2.59v3.92a2.28,2.28,0,0,1-2.58,2.59h-8.83a2.29,2.29,0,0,1-2.59-2.59V18q0-10.36,10.35-10.36h28.28q10.35,0,10.35,10.36v6.77c0,4.71-1.46,8.29-4.44,10.88,3,2.52,4.44,6.18,4.44,10.89v6.7c0,6.9-3.45,10.42-10.35,10.42H331c-6.9,0-10.35-3.52-10.35-10.42V47.84a2.29,2.29,0,0,1,2.59-2.59h8.83a2.28,2.28,0,0,1,2.58,2.59v3.92a2.29,2.29,0,0,0,2.59,2.58H353a2.28,2.28,0,0,0,2.59-2.58V42.93A2.29,2.29,0,0,0,353,40.34H341.14a2.29,2.29,0,0,1-2.59-2.59V33.57A2.29,2.29,0,0,1,341.14,31H353a2.29,2.29,0,0,0,2.59-2.59Z"/><path class="cls-1" d="M359.26,7.68q10.35,0,10.35,10.36v6.77c0,4.71-1.46,8.29-4.44,10.88,3,2.52,4.44,6.18,4.44,10.89v6.7c0,6.9-3.45,10.42-10.35,10.42H331c-6.9,0-10.35-3.52-10.35-10.42V47.84a2.29,2.29,0,0,1,2.59-2.59h8.83a2.28,2.28,0,0,1,2.58,2.59v3.92a2.29,2.29,0,0,0,2.59,2.58H353a2.28,2.28,0,0,0,2.59-2.58V42.93A2.29,2.29,0,0,0,353,40.34H341.14a2.29,2.29,0,0,1-2.59-2.59V33.57A2.29,2.29,0,0,1,341.14,31H353a2.29,2.29,0,0,0,2.59-2.59V19.56A2.29,2.29,0,0,0,353,17h-15.8a2.29,2.29,0,0,0-2.59,2.59v3.92a2.28,2.28,0,0,1-2.58,2.59h-8.83a2.29,2.29,0,0,1-2.59-2.59V18q0-10.36,10.35-10.36h28.28m0-4H331C321.84,3.66,316.6,8.9,316.6,18v5.44a6.26,6.26,0,0,0,6.62,6.61h8.83a6.26,6.26,0,0,0,6.61-6.61V21h12.92V27H341.14a6.27,6.27,0,0,0-6.62,6.62v4.18a6.26,6.26,0,0,0,6.62,6.61h10.44v6H338.66V47.84a6.26,6.26,0,0,0-6.61-6.62h-8.83a6.27,6.27,0,0,0-6.62,6.62v5.44c0,9.18,5.24,14.45,14.38,14.45h28.28c9.14,0,14.38-5.27,14.38-14.45v-6.7a18.64,18.64,0,0,0-3.08-10.91,18.63,18.63,0,0,0,3.08-10.86V18c0-9.14-5.24-14.38-14.38-14.38Z"/></svg>