<svg id="圖層_1" data-name="圖層 1" xmlns="http://www.w3.org/2000/svg" viewBox="0 0 820.94 210.2"><defs><style>.cls-1{fill:#fff;}.cls-2{fill:#f6ab00;}.cls-3{fill:#231815;}</style></defs><title>title01</title><path class="cls-1" d="M711.1,153.41c-.33,0-.66,0-1,0a8,8,0,0,1-7.5-7.85c0-1.08-.07-2.16-.1-3.24-1.39,0-2.77,0-4.16.07h-.83a28.16,28.16,0,0,1-28.53-28,26.41,26.41,0,0,1,.74-6.58l-3.48.06a7.42,7.42,0,0,1-5.39,2.88h-.41a7.55,7.55,0,0,1-7.5-7.38c-.08-3.89-.12-7.4-.12-10.73a7.3,7.3,0,0,1,7.5-7.43h.33a7,7,0,0,1,3.88,1.36h1.78c1.73,0,3.47,0,5.2,0q9.48-.12,19-.27c3.28,0,6.55-.11,9.83-.18a8,8,0,0,1,1.27-7.18,6.48,6.48,0,0,1,4.75-2.4c2.27-.07,4.53-.13,6.8-.17h.13a6.25,6.25,0,0,1,1.68.22,6,6,0,0,1,1.62-.25c2.15,0,4.44-.07,7-.07a6.06,6.06,0,0,1,1.53.2,8.1,8.1,0,0,1,2.26-.36c2-.05,3.92-.08,5.88-.1a6.88,6.88,0,0,1,7.24,6.8,8.66,8.66,0,0,1-.28,2.69l4.63-.08,26.79-.44c5-3.31,9.18-6.24,13-9.16a79.17,79.17,0,0,0,7.69-6.6,13.6,13.6,0,0,0,2.3-2.82,7.19,7.19,0,0,1,1.62-1.93,5.69,5.69,0,0,1,3.89-1.55h.23a5.68,5.68,0,0,1,3.92,1.79,6.63,6.63,0,0,1,1.85,3l.13.47a20.09,20.09,0,0,1,.81,3.55c.39,3.28.8,6.6,1,10a243.11,243.11,0,0,1,.38,26.53,70,70,0,0,1-1.15,11.4,24.3,24.3,0,0,1-.74,2.69l-.11.37a8.22,8.22,0,0,1-1.2,2.31,6.37,6.37,0,0,1-9.88.66,9,9,0,0,1-1.52-2.21,13,13,0,0,0-2.57-3.32,59.74,59.74,0,0,0-9.6-7.65c-2.46-1.63-5.06-3.23-7.57-4.77l-1.1-.68a26.82,26.82,0,0,1-.66,15.22c-3.42,10.16-10.76,16.69-21.24,18.9a33.66,33.66,0,0,1-6.26.55l-1.45,0-3.38.09v3.43a7.61,7.61,0,0,1-3.36,6.35,8.86,8.86,0,0,1-8.92.79,8.38,8.38,0,0,1-1.4-.81,8.55,8.55,0,0,1-1.48.92,9,9,0,0,1-8.72-.49A8.53,8.53,0,0,1,711.1,153.41Zm-9.28-45.8c-1.39,0-2.78,0-4.15.06A12.64,12.64,0,0,0,695,108a6.07,6.07,0,0,0-3.66,3,6.63,6.63,0,0,0,1,7.94,6.53,6.53,0,0,0,4.65,2l3,0h2Zm37.83,12.53q3.14-.09,6.27-.22a8.51,8.51,0,0,0,1.79-.23,5.74,5.74,0,0,0,3.19-2.35,6.59,6.59,0,0,0-5.15-10.49c-.93,0-1.86,0-2.78,0-1.18,0-2.36,0-3.53,0Z"/><path d="M678.35,101.9l-16.11.27c0,.22,0,.53,0,.83a2,2,0,0,1-1.7,2,1.87,1.87,0,0,1-1.92-1.83c-.08-3.54-.12-7.07-.12-10.61a1.65,1.65,0,0,1,2-1.75,1.51,1.51,0,0,1,1.2.78,1.33,1.33,0,0,0,1.27.59c2.89,0,5.78,0,8.67,0q9.49-.12,19-.27l15.8-.29,1,0c0-.92,0-1.81,0-2.7s0-1.86-.06-2.79c0-.37-.08-.58-.53-.57a1,1,0,0,1-.65-.29,2.35,2.35,0,0,1-.19-2.77.78.78,0,0,1,.53-.3c2.24-.08,4.48-.13,6.72-.17a1,1,0,0,1,1,.67,2.6,2.6,0,0,1,.13,1.8,1.24,1.24,0,0,1-1.45,1c0,2,.08,4.06.11,6l4.39-.08c0-2-.09-4-.13-6,.07.05,0,0,0,0a1.34,1.34,0,0,1-1.44-.84,2.16,2.16,0,0,1,.18-2.22,1,1,0,0,1,.66-.37q3.44-.07,6.87-.07a.81.81,0,0,1,.52.32,2.35,2.35,0,0,1,.07,2.45,1.31,1.31,0,0,1-1.23.63c0,2,.06,4,.09,6.06l4.74-.19c0-1.87-.08-3.87-.12-6l0,0A1.66,1.66,0,0,1,726,83c.15-1,.41-1.3,1.43-1.33,1.93-.05,3.86-.09,5.79-.1,1,0,1.47.38,1.53,1.45a3.49,3.49,0,0,1-.21,1.31c-.2.64-.81.69-1.29.74,0,2,0,4,0,6.14.95,0,1.91-.07,2.87-.08l36.6-.61a1.86,1.86,0,0,0,.92-.27c4.88-3.18,9.68-6.49,14.3-10a86.65,86.65,0,0,0,8.24-7.08,18.83,18.83,0,0,0,3.25-4.07,2.84,2.84,0,0,1,.57-.58c.18.22.47.41.54.66a21.13,21.13,0,0,1,.76,3.14c.39,3.21.78,6.43,1,9.66a238.24,238.24,0,0,1,.37,25.91,66,66,0,0,1-1,10.5,25,25,0,0,1-.71,2.49,2.5,2.5,0,0,1-.39.69.71.71,0,0,1-1.15.1,3.06,3.06,0,0,1-.56-.82,18.49,18.49,0,0,0-3.64-4.83,65.68,65.68,0,0,0-10.5-8.38c-3.5-2.31-7.1-4.47-10.67-6.69a1.18,1.18,0,0,0-.6-.19l-9,.14-.22,0c.1.17.18.32.27.46,3.64,5.95,4.65,12.31,2.42,18.93-2.77,8.22-8.52,13.37-17,15.16a39.75,39.75,0,0,1-6.75.47c-2.8.1-5.61.11-8.42.16l-.44,0c0,.2,0,.37,0,.55,0,2.82,0,5.65,0,8.47a1.94,1.94,0,0,1-.93,1.67,3.17,3.17,0,0,1-3.31.29,2.15,2.15,0,0,1-1.37-2c-.07-2.77-.16-5.54-.24-8.32,0-.16,0-.33,0-.47l-4.79.13c0,.66.09,1.42.09,2.18,0,2.18,0,4.36,0,6.53a2.27,2.27,0,0,1-1.42,2.15,3.18,3.18,0,0,1-3.6-.57,1.88,1.88,0,0,1-.51-1.07c-.11-2.08-.17-4.15-.22-6.23,0-1,0-2,0-2.94l-4.21.05c0,1.33,0,2.7,0,4.08s.06,2.85.06,4.28a2.64,2.64,0,0,1-3.22,2.83,2.37,2.37,0,0,1-2.38-2.42c-.11-2.73-.16-5.45-.23-8.17,0-.17,0-.33.06-.56-.76,0-1.41,0-2.07,0-2.61,0-5.22.06-7.83.12a22.24,22.24,0,0,1-15.07-4.89,22.42,22.42,0,0,1-5.24-29.17C678,102.36,678.21,102.12,678.35,101.9ZM734.08,126a1.48,1.48,0,0,0,.22,0c4-.12,7.91-.23,11.86-.4a14.09,14.09,0,0,0,3-.42,11.37,11.37,0,0,0,6.32-4.54,12.25,12.25,0,0,0-9.58-19.43c-3.64-.12-7.28,0-10.92.06-.46,0-.92,0-1.34,0C733.81,109.53,734,117.72,734.08,126Zm-26.68-24c-3.29,0-6.58,0-9.87.08a17.15,17.15,0,0,0-4,.47,11.82,11.82,0,0,0-7,5.44,12.31,12.31,0,0,0,1.85,15,12.18,12.18,0,0,0,8.5,3.6c3.58.07,7.17,0,10.76,0a.49.49,0,0,0,.13,0Q707.6,114.12,707.4,101.92Zm20.88,24a2.29,2.29,0,0,0,0-.4q-.16-10-.34-20.08c0-1.21-.07-2.43-.12-3.64,0-.13-.16-.37-.25-.37-1.46,0-2.91,0-4.46,0,.18,8.25.36,16.43.54,24.63Zm-10.64.38q-.2-12.42-.4-24.71l-3.81.05q.09,12.28.2,24.64Z"/><path class="cls-1" d="M109.85,153.41a8.54,8.54,0,0,1-5-1.54,9,9,0,0,1-8.72.49,8.55,8.55,0,0,1-1.48-.92,8.29,8.29,0,0,1-1.39.81,9.06,9.06,0,0,1-3.81.85,8.87,8.87,0,0,1-5.11-1.64A7.61,7.61,0,0,1,81,145.11c0-1.14,0-2.28,0-3.43l-3.39-.09-1.45,0a33.66,33.66,0,0,1-6.26-.55c-10.47-2.21-17.82-8.74-21.24-18.9A26.72,26.72,0,0,1,48,106.89l-1.1.68c-2.52,1.54-5.11,3.14-7.58,4.77A59.19,59.19,0,0,0,29.71,120a12.73,12.73,0,0,0-2.57,3.32,9,9,0,0,1-1.52,2.21,6.37,6.37,0,0,1-9.89-.67,8.16,8.16,0,0,1-1.2-2.32l-.1-.33a24.4,24.4,0,0,1-.75-2.7,71.41,71.41,0,0,1-1.15-11.41,243.11,243.11,0,0,1,.38-26.53c.22-3.33.62-6.63,1-9.83v-.12A22.57,22.57,0,0,1,14.74,68l.14-.45a6.55,6.55,0,0,1,1.84-3,5.68,5.68,0,0,1,3.92-1.79h.23a5.69,5.69,0,0,1,3.89,1.55,7.07,7.07,0,0,1,1.62,1.93,13.6,13.6,0,0,0,2.3,2.82,79.41,79.41,0,0,0,7.7,6.6c3.79,2.92,7.93,5.85,13,9.16l26.78.44,4.63.08a8.94,8.94,0,0,1-.28-2.68,6.87,6.87,0,0,1,7.16-6.81c2,0,4,0,6,.1a8,8,0,0,1,2.25.36,6.06,6.06,0,0,1,1.53-.2c2.54,0,4.83,0,7,.07a6.21,6.21,0,0,1,1.6.25,6.32,6.32,0,0,1,1.69-.22h.14c2.26,0,4.53.1,6.79.17a6.46,6.46,0,0,1,4.77,2.43A7.92,7.92,0,0,1,120.63,86c3.28.07,6.55.13,9.83.18q9.48.15,19,.27l5.2,0h1.78a7,7,0,0,1,3.89-1.36h.33a7.3,7.3,0,0,1,7.49,7.43c0,3.33,0,6.84-.12,10.73a7.55,7.55,0,0,1-7.49,7.38h-.42a7.42,7.42,0,0,1-5.39-2.88l-3.47-.06a26.89,26.89,0,0,1,.74,6.58,28.18,28.18,0,0,1-28.53,28.05h-.84c-1.38,0-2.77-.06-4.15-.07,0,1.08-.07,2.16-.11,3.24a8,8,0,0,1-7.5,7.85C110.5,153.39,110.17,153.41,109.85,153.41Zm11-32.51c1,0,2,0,3,0a6.52,6.52,0,0,0,4.65-2,6.63,6.63,0,0,0,1-7.94,6.08,6.08,0,0,0-3.65-3,12.73,12.73,0,0,0-2.69-.28c-1.37,0-2.76,0-4.15-.06l-.21,13.28ZM78,106.81c-.93,0-1.86,0-2.79,0a6,6,0,0,0-5.75,3.68,6.08,6.08,0,0,0,.6,6.81,5.74,5.74,0,0,0,3.19,2.35,8.62,8.62,0,0,0,1.8.23q3.12.14,6.26.22l.21-13.29C80.33,106.83,79.15,106.81,78,106.81Z"/><path d="M143.05,102.61a22.4,22.4,0,0,1-5.23,29.17,22.28,22.28,0,0,1-15.08,4.89c-2.61-.06-5.22-.08-7.83-.12-.65,0-1.31,0-2.07,0a4.48,4.48,0,0,1,.06.56c-.07,2.72-.12,5.44-.23,8.17a2.36,2.36,0,0,1-2.38,2.42,2.64,2.64,0,0,1-3.22-2.83c0-1.43.05-2.85.06-4.28s0-2.75,0-4.08l-4.21-.05c0,.95,0,1.94,0,2.94,0,2.08-.11,4.15-.22,6.23a1.87,1.87,0,0,1-.5,1.07,3.2,3.2,0,0,1-3.61.57,2.27,2.27,0,0,1-1.42-2.15c0-2.17,0-4.35,0-6.53,0-.76.06-1.52.09-2.18l-4.79-.13c0,.14,0,.31,0,.47-.08,2.78-.17,5.55-.23,8.32a2.17,2.17,0,0,1-1.38,2,3.17,3.17,0,0,1-3.31-.29,2,2,0,0,1-.93-1.67c0-2.82,0-5.65,0-8.47,0-.18,0-.35,0-.55l-.44,0c-2.8-.05-5.61-.06-8.42-.16a39.82,39.82,0,0,1-6.75-.47c-8.52-1.79-14.27-6.94-17-15.16-2.23-6.62-1.21-13,2.43-18.93.08-.14.17-.29.26-.46l-.22,0-9-.14a1.18,1.18,0,0,0-.6.19c-3.56,2.22-7.17,4.38-10.67,6.69A65.17,65.17,0,0,0,25.69,116,18.31,18.31,0,0,0,22,120.82a3.06,3.06,0,0,1-.56.82.71.71,0,0,1-1.15-.1,2.78,2.78,0,0,1-.39-.69c-.25-.83-.53-1.65-.71-2.49a66,66,0,0,1-1-10.5A238.23,238.23,0,0,1,18.56,82c.22-3.23.61-6.45,1-9.66a20,20,0,0,1,.77-3.14c.07-.25.35-.44.54-.66a2.79,2.79,0,0,1,.56.58,18.58,18.58,0,0,0,3.26,4.07,85.31,85.31,0,0,0,8.23,7.08c4.62,3.55,9.42,6.86,14.3,10a1.9,1.9,0,0,0,.93.27l36.59.61c1,0,1.92,0,2.87.08,0-2.09,0-4.09,0-6.14-.47,0-1.08-.1-1.29-.74A3.71,3.71,0,0,1,86.15,83c.06-1.07.48-1.46,1.54-1.45,1.92,0,3.85,0,5.78.1,1,0,1.29.3,1.43,1.33a1.66,1.66,0,0,1-1.6,2.16s0,0,0,0c0,2.09-.09,4.09-.12,6L98,91.3c0-2,.06-4,.1-6.06a1.31,1.31,0,0,1-1.24-.63,2.33,2.33,0,0,1,.08-2.45.79.79,0,0,1,.51-.32q3.43,0,6.87.07a1,1,0,0,1,.67.37,2.16,2.16,0,0,1,.17,2.22,1.33,1.33,0,0,1-1.43.84s-.06,0,0,0c0,2.07-.08,4.07-.12,6l4.38.08c0-2,.07-4,.11-6a1.24,1.24,0,0,1-1.45-1,2.61,2.61,0,0,1,.14-1.8,1,1,0,0,1,1-.67c2.24,0,4.49.09,6.73.17a.78.78,0,0,1,.52.3,2.33,2.33,0,0,1-.18,2.77,1.07,1.07,0,0,1-.66.29c-.44,0-.53.2-.53.57,0,.93,0,1.86,0,2.79s0,1.78,0,2.7l1,0,15.8.29q9.49.15,19,.27c2.89,0,5.79,0,8.68,0a1.34,1.34,0,0,0,1.27-.59,1.49,1.49,0,0,1,1.2-.78,1.65,1.65,0,0,1,1.94,1.75c0,3.54,0,7.07-.11,10.61a1.88,1.88,0,0,1-1.93,1.83,2,2,0,0,1-1.7-2c0-.3,0-.61,0-.83l-16.11-.27C142.73,102.12,142.9,102.36,143.05,102.61Zm-55.78-1.37c-.43,0-.89,0-1.35,0-3.64,0-7.28-.18-10.92-.06a12.25,12.25,0,0,0-9.58,19.43,11.41,11.41,0,0,0,6.32,4.54,14.19,14.19,0,0,0,3.05.42c3.95.17,7.9.28,11.85.4a1.48,1.48,0,0,0,.22,0C87,117.72,87.13,109.53,87.27,101.24Zm25.88,25.24a.49.49,0,0,0,.13,0c3.59,0,7.18.1,10.76,0a12.18,12.18,0,0,0,8.5-3.6,12.32,12.32,0,0,0,1.86-15,11.85,11.85,0,0,0-7-5.44,17.29,17.29,0,0,0-4-.47c-3.28-.08-6.57-.06-9.86-.08Q113.34,114.1,113.15,126.48Zm-15.87-.37c.18-8.2.36-16.38.54-24.63-1.54,0-3,0-4.46,0-.09,0-.24.24-.25.37,0,1.21-.09,2.43-.11,3.64q-.18,10-.35,20.08c0,.17,0,.33,0,.4Zm10,.18q.09-12.37.2-24.64l-3.82-.05q-.2,12.3-.4,24.71Z"/><path class="cls-2" d="M639.56,105.1a80,80,0,0,1-147.41,43.1l-7.63-11.89-7.6,11.89A80,80,0,0,1,343,149.52l-7.53-11.25L328,149.52a80,80,0,1,1,0-88.84l7.51,11.25L343,60.68A80,80,0,0,1,476.92,62l7.6,11.88L492.15,62A80,80,0,0,1,639.56,105.1Z"/><path class="cls-3" d="M559.52,7a97.7,97.7,0,0,0-75,34.89,98.07,98.07,0,0,0-149.06-1.11,98.1,98.1,0,1,0,0,128.65,98.07,98.07,0,0,0,149.06-1.12A98.1,98.1,0,1,0,559.52,7Zm0,178.11a79.7,79.7,0,0,1-67.37-36.91l-7.63-11.89-7.6,11.89A80,80,0,0,1,343,149.52l-7.53-11.25L328,149.52a80,80,0,1,1,0-88.84l7.51,11.25L343,60.68A80,80,0,0,1,476.92,62l7.6,11.88L492.15,62a80,80,0,1,1,67.37,123.1Z"/><path class="cls-3" d="M271.61,97.29l34.89,33.62,34.26,14.59-41.24,31.08L257,122.66,194.85,176l38.7-73.59-33-3.17L185.33,79.53l57.73-10.79,10.15-46.31,25.38,16.5,1.27,31.71,41.23-8.88,18.4,31.72Z"/><path class="cls-3" d="M374.63,40.19,478,32.58,464.08,89v87.54L426,160.72l-72.32,8.89L351.16,110l-8.25-73.58Zm57.73,64.07,4.44-12.68-62.17,7L377.8,110ZM379.71,143.6l57.09-3.81-1.9-15.86-60.27,9.52Zm55.82-71.69,1.9-13.32-60.9,5.08,5.08,12Z"/><path class="cls-3" d="M633.08,82.7l-19,23.47L589.94,94.11l5.71,14L621,110l3.8,12.06-32.35,3.8,1.9,7,29.82,2.54,7.61,12.05-34.89,3.81-7,19.67-15.22,5.7-7.62-22.2-30.45-1.9,7-22.84-6.34-7L522.7,156.28l-10.79-13.95-7.61,27.28-13.32,7L484.63,77l-6.34-38.06,15.86,1.26,44.41-7L524.6,89l8.25,11.42L562,72.55,553.15,70l-22.84,7.61,33.62-55.19,17.13,18.4,25.37-8.25L626.1,56.69,596.92,73.82l16.49,5.71ZM499.86,61.76l5.07,20.94,7.62-7,1.27-23.47ZM504.93,129l14.6-4.43-5.08-20.31-9.52-1.9Zm67.88-33.61,14.59-5.08-8.88-5.71-41.87,17.76,2.54,8.88,28.55-6.34ZM569,136.62l1.9-14-19.67,1.27,7,14Zm12-66.61,16.49-17.13-31.72,1.9Z"/></svg>