<svg id="圖層_1" data-name="圖層 1" xmlns="http://www.w3.org/2000/svg" viewBox="0 0 896.16 251.03"><defs><style>.cls-1{fill:#543a00;}.cls-2{fill:#fff;}</style></defs><title>title03</title><path class="cls-1" d="M140.19,66.46h-25.5V171.6H59V66.46H33.47V21.18l21.68.06q16.74.06,32.35.06,10.78,0,29.66-.06l23-.06Z"/><path class="cls-1" d="M268.25,168l-54.87,5.34q-.56-7-1.29-15.5T210.49,142H195.16q-.69,7.19-1.54,16t-1.38,15.39l-54.3-5.9Q142.1,150,153.61,98.5t17.47-77.32h64.15q6.51,27.41,17.86,78.61T268.25,168Zm-60.56-57q-1.2-8.28-2.23-23.32t-2-23.1l-1.13-.16q-1,8.08-2.21,23.4T198,110.94l0,.23h9.72Z"/><path class="cls-1" d="M391.6,24.61q-2.25,10.23-14.55,64.51t-18.7,82.71H298.14q-5.85-27.65-13.65-61.59T264.43,24.61L319.37,20q.9,7.64,3.7,40T328,110.27h1.23q2.58-18.64,5.28-50.83t3.37-39.61Z"/><path class="cls-1" d="M521,96.45A119.38,119.38,0,0,1,516.69,129a63.72,63.72,0,0,1-14.78,26.57,55,55,0,0,1-20.38,14.38,71.44,71.44,0,0,1-50.61-.51,53.19,53.19,0,0,1-20.67-15A69.37,69.37,0,0,1,396,127.9a116,116,0,0,1-4-31.22,115.75,115.75,0,0,1,4.27-32.58,72,72,0,0,1,14.6-26.74,50.42,50.42,0,0,1,19.49-14A72.91,72.91,0,0,1,481.13,23a58.94,58.94,0,0,1,21.12,14.49,61.85,61.85,0,0,1,14.33,25.79A119.23,119.23,0,0,1,521,96.45Zm-56.28.06c0-5-.21-10.46-.62-16.32a111.51,111.51,0,0,0-2.21-16,14.29,14.29,0,0,0-2.26-4.78,4,4,0,0,0-3.28-1.52,4.41,4.41,0,0,0-3.45,1.46,13.47,13.47,0,0,0-2.31,5.06q-1.47,4.5-2.15,14.41c-.46,6.59-.68,12.45-.68,17.54q0,9.12.68,16.88a156.57,156.57,0,0,0,2.15,15.53,15.73,15.73,0,0,0,2.37,4.5,4.1,4.1,0,0,0,3.28,1.68,4,4,0,0,0,3.39-1.68,17.42,17.42,0,0,0,2.26-4.62,147.58,147.58,0,0,0,2.15-15.47Q464.74,105.4,464.73,96.51Z"/><path class="cls-1" d="M625.37,124.65q-1.8,11.46-3,23.36t-2.76,25.28h-6.17q-21.35,0-36.4-4.72a76.94,76.94,0,0,1-28.2-16.42,63.18,63.18,0,0,1-17.63-24.28q-5.5-13.71-5.51-31.36a79.67,79.67,0,0,1,8-35.87,64,64,0,0,1,21.85-25.4,83.58,83.58,0,0,1,28.53-12.42,139.21,139.21,0,0,1,30.22-3.32h4.72q.9,8.09,2.36,22.24t3.48,26.51c-.75,0-1.63,0-2.63.06s-1.94.06-2.76.06c-2.39.22-5.69.71-9.88,1.46a46.63,46.63,0,0,0-11,3.26,33.46,33.46,0,0,0-12.53,9.85,22.15,22.15,0,0,0-4.55,13.68q0,9.67,4.49,15a29.53,29.53,0,0,0,11.69,8.27,63.71,63.71,0,0,0,11,3.21,60.76,60.76,0,0,0,10.39,1.4c1.35.08,2.57.12,3.65.12Z"/><path class="cls-1" d="M756.58,168l-54.87,5.34c-.37-4.64-.79-9.81-1.29-15.5s-1-11-1.6-15.84H683.49q-.69,7.19-1.54,16t-1.38,15.39l-54.3-5.9q4.15-17.4,15.67-68.89t17.47-77.32h64.15q6.51,27.41,17.86,78.61T756.58,168Zm-60.56-57q-1.18-8.28-2.23-23.32t-2-23.1l-1.13-.16q-1,8.08-2.2,23.4t-2.11,23.18l0,.23H696Z"/><path class="cls-1" d="M882.18,21.18q0,22.59-.06,41.68t-.06,29.32q0,11.46.12,36.9t.11,38.59l-47.52,5.62Q828,159.7,821.46,144T811.74,119l-.78.45V171.6H759.62q-.12-9.76,0-29.71T759.84,94q0-12.92-.06-31.51t-.16-37.36L807.7,19.5a183.21,183.21,0,0,0,9.43,26.06q6,13.38,12.92,27l.56-.34v-51Z"/><path class="cls-2" d="M120.59,51.74H95.09V156.89H39.38V51.74H13.87V6.47l21.68,0q16.74.06,32.36.06,10.78,0,29.65-.06l23,0Z"/><path class="cls-2" d="M248.66,153.24l-54.88,5.33q-.54-7-1.29-15.5t-1.59-15.84H175.56l-1.53,16q-.85,8.77-1.38,15.39l-54.3-5.9q4.16-17.4,15.67-68.89T151.49,6.47h64.14q6.52,27.41,17.86,78.61T248.66,153.24Zm-60.57-57q-1.18-8.28-2.22-23.33t-2-23.1l-1.12-.16q-1,8.09-2.21,23.41T178.4,96.23v.22h9.72Z"/><path class="cls-2" d="M372,9.9q-2.25,10.22-14.54,64.5t-18.71,82.72H278.54q-5.84-27.66-13.65-61.59t-20-85.63l54.93-4.67q.9,7.65,3.71,40t4.94,50.32h1.24q2.58-18.64,5.28-50.83t3.37-39.6Z"/><path class="cls-2" d="M501.42,81.73a119.5,119.5,0,0,1-4.33,32.53,63.66,63.66,0,0,1-14.77,26.56,55,55,0,0,1-20.39,14.38,71.51,71.51,0,0,1-50.61-.5,53.39,53.39,0,0,1-20.67-15,69.31,69.31,0,0,1-14.26-26.51A115.62,115.62,0,0,1,372.34,82a115.85,115.85,0,0,1,4.27-32.58,72,72,0,0,1,14.6-26.73,50.39,50.39,0,0,1,19.49-14,72.94,72.94,0,0,1,50.84-.39,59.11,59.11,0,0,1,21.12,14.49A61.8,61.8,0,0,1,497,48.54,118.9,118.9,0,0,1,501.42,81.73Zm-56.28.06q0-7.53-.63-16.31a111.52,111.52,0,0,0-2.2-16,14.91,14.91,0,0,0-2.26-4.78,4.05,4.05,0,0,0-3.28-1.52,4.37,4.37,0,0,0-3.45,1.47A13.23,13.23,0,0,0,431,49.73q-1.47,4.5-2.15,14.4t-.68,17.55q0,9.1.68,16.87A155.76,155.76,0,0,0,431,114.08a15.73,15.73,0,0,0,2.38,4.5,4,4,0,0,0,3.27,1.69,4,4,0,0,0,3.4-1.69,18,18,0,0,0,2.26-4.61,153.47,153.47,0,0,0,2.15-15.47Q445.14,90.69,445.14,81.79Z"/><path class="cls-2" d="M605.78,109.93q-1.8,11.46-3,23.37t-2.75,25.27h-6.18q-21.35,0-36.4-4.72a77,77,0,0,1-28.19-16.41,63.29,63.29,0,0,1-17.64-24.28q-5.5-13.72-5.5-31.37a79.49,79.49,0,0,1,8-35.86A64,64,0,0,1,536,20.52,83.49,83.49,0,0,1,564.55,8.1a139.08,139.08,0,0,1,30.22-3.32h4.72q.88,8.1,2.36,22.25t3.48,26.51c-.75,0-1.63,0-2.64.05s-1.93.06-2.75.06q-3.6.35-9.89,1.46a46.76,46.76,0,0,0-11,3.27,33.42,33.42,0,0,0-12.52,9.85A22,22,0,0,0,562,81.9q0,9.69,4.49,15a29.42,29.42,0,0,0,11.68,8.27,63.36,63.36,0,0,0,11,3.21,59.9,59.9,0,0,0,10.4,1.41c1.34.07,2.56.11,3.65.11Z"/><path class="cls-2" d="M737,153.24l-54.88,5.33q-.54-7-1.28-15.5t-1.6-15.84H663.89l-1.53,16Q661.5,152,661,158.57l-54.3-5.9q4.16-17.4,15.67-68.89T639.82,6.47H704q6.51,27.41,17.86,78.61T737,153.24Zm-60.57-57q-1.18-8.28-2.22-23.33t-2-23.1l-1.12-.16q-1,8.09-2.21,23.41t-2.11,23.18l0,.22h9.73Z"/><path class="cls-2" d="M862.58,6.47q0,22.58-.06,41.68t0,29.32q0,11.44.11,36.9t.11,38.59l-47.52,5.61q-6.74-13.59-13.31-29.32t-9.71-24.93l-.79.45v52.12H740q-.12-9.78.06-29.71t.17-47.92q0-12.92-.06-31.51T740,10.4L788.1,4.78a183.4,183.4,0,0,0,9.44,26.07q6,13.36,12.92,27l.56-.34v-51Z"/><path class="cls-1" d="M135.06,196.06q-4.68,15.27-8.52,29.15c-2.56,9.24-4.1,14.93-4.64,16.94l-8.54.86c-.29-1.2-1.18-4.48-2.68-9.9s-3.42-12.16-5.78-20.29h-.21c-2.22,7.48-4.2,14.4-6,20.71s-2.79,10.12-3.1,11.34l-8.57.93c-.29-1.16-1.56-6-3.83-14.6S78,211.8,74.33,198.59c3.9-1.66,5.86-2.48,9.77-4.09.19.95,1.07,4.65,2.63,11s3.43,13.84,5.61,22.36l.21,0q3.21-11.49,5.7-20.95c1.67-6.32,2.6-9.83,2.8-10.6l8.08-.28c.25,1.15,1.17,4.68,2.75,10.54s3.31,12.3,5.21,19.32h.21c2.29-8.49,4.21-15.72,5.76-21.75s2.47-9.66,2.73-10.95C129.5,194.35,131.35,194.92,135.06,196.06Z"/><path class="cls-1" d="M151,239.26l-9.75.9q0-3,.11-8.55t.1-15.17c0-2.69,0-6.09,0-10.19s0-8.31,0-12.59l9.77-.28q-.06,4.69-.13,10.81T151,215.07q0,9.7,0,15C151,233.59,151,236.66,151,239.26Z"/><path class="cls-1" d="M199.6,192.1q-.09,5.61-.15,11.27t-.08,8.88c0,4.88,0,9.25,0,13.12s0,6.31,0,7.34c-2.83,1.46-4.25,2.2-7.07,3.68-4.94-6.89-9.52-13.14-13.73-18.68s-6.77-9-7.69-10.15l-.15.07q0,7.19,0,17.37t0,12.53l-9.08.79q0-1.69.11-7.44t.11-14.3q0-3.47,0-8.93c0-3.63,0-7.54,0-11.7,3.07-1.5,4.6-2.25,7.66-3.72.86,1.16,3.41,4.69,7.65,10.44s8.66,11.49,13.25,17.21l.12-.07q0-4.5,0-13.32t0-14.17Z"/><path class="cls-1" d="M247.2,211.71a18.08,18.08,0,0,1-2.61,9.56,22.37,22.37,0,0,1-6.66,6.93,31.8,31.8,0,0,1-8,3.85,43.1,43.1,0,0,1-10.31,1.85c-1.82.13-3.84.25-6,.35l-3.67.19q0-.31.1-6.74t.14-15q0-3.56,0-8.89c0-3.56,0-7.54,0-12l3.93-.12,4.84-.14a49,49,0,0,1,11.3.9,25.86,25.86,0,0,1,8.56,3.42,17.77,17.77,0,0,1,6.36,6.69A19,19,0,0,1,247.2,211.71Zm-10,.08a12.06,12.06,0,0,0-1.26-5.59,10.57,10.57,0,0,0-4.06-4.19,15.58,15.58,0,0,0-5.4-2,27.18,27.18,0,0,0-5.57-.43l-.63,0h-.43q0,3.21-.06,6.09c0,1.93,0,3.51,0,4.75s0,2.88,0,5.31,0,5.76,0,10l.47,0,.5,0a25.7,25.7,0,0,0,5.63-1,17.92,17.92,0,0,0,4.9-2.16,13.82,13.82,0,0,0,4.49-4.64A12.27,12.27,0,0,0,237.16,211.79Z"/><path class="cls-1" d="M302.68,217.52a9.3,9.3,0,0,1-2.07,5.86,13.82,13.82,0,0,1-5.85,4.15,31.2,31.2,0,0,1-7.13,1.87q-4,.6-8.86.86c-1.73.09-3.55.16-5.44.21l-4.2.09q.09-4.91.15-10t.09-11q0-6.39,0-12.5c0-4.08,0-6.23,0-6.45.33,0,1.43-.06,3.28-.17s3.84-.19,6-.22q4.8-.07,8,.14a27.34,27.34,0,0,1,5.78,1,11.11,11.11,0,0,1,5.19,3,7.13,7.13,0,0,1,1.89,5.08,8.63,8.63,0,0,1-1.67,5.08,10.17,10.17,0,0,1-4.37,3.49,1.34,1.34,0,0,0,0,.2,13.65,13.65,0,0,1,3.22.74,10.18,10.18,0,0,1,2.67,1.54,8.42,8.42,0,0,1,2.56,3A9.16,9.16,0,0,1,302.68,217.52Zm-10-.71a4.82,4.82,0,0,0-.52-2.32,6,6,0,0,0-1.44-1.77,5.91,5.91,0,0,0-2.12-1,8.91,8.91,0,0,0-2.87-.34c-.78,0-1.43.06-1.95.09l-.94.06c-.32-1.48-.49-2.23-.81-3.72a11.8,11.8,0,0,0,2.93-.55,7.69,7.69,0,0,0,2.28-1.11,6.33,6.33,0,0,0,1.62-1.86,5.13,5.13,0,0,0,.65-2.65,4.36,4.36,0,0,0-.68-2.42,4.6,4.6,0,0,0-1.9-1.73,8.23,8.23,0,0,0-2.43-.68,17.69,17.69,0,0,0-3-.18l-1.64.07-1.13.05c-.06,2-.09,4.22-.12,6.65s0,4.58-.05,6.46,0,4.61,0,8v5.53c.27,0,.69,0,1.25,0s1.2,0,1.91-.05a35.28,35.28,0,0,0,4.45-.45,10.19,10.19,0,0,0,3.57-1.19,5.91,5.91,0,0,0,2.13-2A5.39,5.39,0,0,0,292.64,216.81Z"/><path class="cls-1" d="M347.5,225c-3.86,1.35-5.8,2-9.66,3.4q-.31-.91-1.5-4.05t-2.86-7.09c-6,.17-9,.26-15.05.46-1.16,2.77-2.16,5.25-3,7.43s-1.33,3.57-1.51,4.17l-9.06-2.63c.54-1.18,2.62-5.88,6.24-14s7.07-15.82,10.35-23.15l10-.12q5,11.37,10.33,23.06C345.35,220.32,347.25,224.46,347.5,225Zm-16.29-13.59-2.44-6.33c-.88-2.31-1.76-4.57-2.64-6.8H326q-1.14,2.79-2.71,6.91t-2.54,6.5v0l10.47-.28Z"/><path class="cls-1" d="M390.41,189.25q-.07,4.81-.12,9.66c0,3.23,0,5.77-.05,7.61q0,6.27,0,11.24t0,6.3l-7.08,2.82q-7.47-9.15-13.81-16.36c-4.23-4.8-6.81-7.73-7.73-8.74l-.15.06q0,6,0,14.54c0,5.69,0,9.18,0,10.49l-9.12.26q0-1.41.1-6.18c.05-3.19.07-7.14.09-11.88,0-1.92,0-4.4,0-7.42s0-6.26,0-9.73l7.67-3c.86,1,3.42,3.95,7.68,8.88s8.7,9.9,13.32,14.93l.11-.06q0-3.83-.05-11.33c-.05-5-.06-9-.06-12.05Z"/><path class="cls-1" d="M438.15,207.57a14.29,14.29,0,0,1-2.56,8.45A19.44,19.44,0,0,1,429,221.9a31.33,31.33,0,0,1-8,3A47.85,47.85,0,0,1,410.64,226c-1.84,0-3.85,0-6.05,0s-3.43,0-3.68,0c0-.19,0-2.13.07-5.83s.08-8,.09-13c0-2,0-4.62,0-7.7s0-6.52-.06-10.34l3.92,0,4.85-.05a55.86,55.86,0,0,1,11.32,1,28.19,28.19,0,0,1,8.58,3.18,17.4,17.4,0,0,1,6.4,6.11A15.89,15.89,0,0,1,438.15,207.57Zm-10-.26a9.84,9.84,0,0,0-1.3-5,10.28,10.28,0,0,0-4.08-3.81,17,17,0,0,0-5.42-1.9,30.76,30.76,0,0,0-5.57-.51h-1.06c0,1.86,0,3.63,0,5.31s0,3.07,0,4.14,0,2.52,0,4.64,0,5,0,8.72h1a28.12,28.12,0,0,0,5.64-.68,18,18,0,0,0,4.9-1.69,12.13,12.13,0,0,0,4.47-3.92A9.55,9.55,0,0,0,428.1,207.31Z"/><path class="cls-1" d="M497.31,223.79l-9.66,2.89c-.2-.61-.71-1.94-1.52-4s-1.78-4.38-2.9-7c-6,0-9-.07-15.06-.09q-1.73,3.9-2.94,7c-.81,2-1.31,3.33-1.49,3.9l-9.08-2.88q.79-1.63,6.16-13t10.24-21.8l10,0q5.1,11,10.47,22.55C495.13,219.07,497.05,223.22,497.31,223.79ZM480.92,210l-2.47-6.16c-.9-2.24-1.79-4.44-2.69-6.6h-.12c-.74,1.76-1.63,4-2.66,6.55s-1.87,4.66-2.51,6.15v0l10.48,0Z"/><path class="cls-1" d="M539.45,208.33a14.52,14.52,0,0,1-2.53,8.57,18.57,18.57,0,0,1-6.61,5.81,30.19,30.19,0,0,1-8,2.82,46.61,46.61,0,0,1-10.32.82c-1.83,0-3.85-.09-6-.17s-3.43-.13-3.68-.13c0-.18,0-2.13,0-5.83s0-8,0-13c0-2.05,0-4.62,0-7.7s-.07-6.53-.12-10.34H511a55.32,55.32,0,0,1,11.33,1.09,28,28,0,0,1,8.59,3.32,17.86,17.86,0,0,1,6.43,6.31A16.69,16.69,0,0,1,539.45,208.33Zm-10.06-.47a10.25,10.25,0,0,0-1.32-5.1,10.7,10.7,0,0,0-4.09-3.93,17.25,17.25,0,0,0-5.43-2,31.16,31.16,0,0,0-5.57-.59h-1.07c0,1.88,0,3.66,0,5.35s0,3.08,0,4.16,0,2.53,0,4.67,0,5.05.05,8.76h1a27.48,27.48,0,0,0,5.63-.53,17.77,17.77,0,0,0,4.89-1.58,11.67,11.67,0,0,0,4.46-3.87A9.61,9.61,0,0,0,529.39,207.86Z"/><path class="cls-1" d="M584.27,192.08c-.35.82-2.39,5.43-6.14,13.72S571,221.49,568,228l-9.71-.33q-4.77-10.59-9.2-20.17c-3-6.39-5.33-11.65-7.11-15.83l9.67-2.89c.25.79,1.68,4.28,4.29,10.53s5.07,12,7.39,17.39h.21q3.58-8.4,7.41-17.58c2.55-6.11,3.93-9.5,4.14-10.1Z"/><path class="cls-1" d="M618.69,229.88l-5.88-.32c-3.21-.18-6.41-.34-9.58-.48q-4.11-.2-8-.33l-5.68-.21c0-1,0-3.23,0-6.64s0-7.73,0-13q0-3.31-.08-8.45c0-3.42-.08-6.9-.14-10.46l5.72.09q3.71.08,7.46.12l10,.14,5.55.07c0,2.91,0,4.37,0,7.28l-3.87-.11c-2.25-.07-4.5-.13-6.77-.18l-4.61-.08-4.13-.07c0,1.46,0,3,0,4.6s0,3.06,0,4.36l3.92.12,3.92.13q3.81.11,7.13.17l4.24.1c0,2.35,0,3.52,0,5.86l-4.59-.18-6.67-.26-4-.11-4-.11c0,2.26,0,4.2,0,5.81a25.38,25.38,0,0,0,.06,4c.27.27,2.76.14,4.73.23l5.36.23c2.24.1,4.28.17,6.12.23l3.57.13C618.67,225.5,618.68,227,618.69,229.88Z"/><path class="cls-1" d="M665.14,191.26q0,5.37,0,10.79t0,8.5c0,4.67.06,8.87.11,12.57s.08,6,.09,7l-7.05,2.54c-5-7.18-9.67-13.47-13.94-18.93s-6.88-8.71-7.81-9.84l-.15.06q0,6.44.16,15.6c.09,6.1.13,9.85.14,11.25l-9.1-.5c0-1,0-3.16,0-6.53s0-7.56,0-12.57q0-3.06-.08-7.86t-.14-10.3l7.63-3c.87,1.07,3.46,4.31,7.77,9.81s8.78,11.17,13.45,17l.11-.06q0-4.22-.16-12.5t-.17-13.3Z"/><path class="cls-1" d="M706.27,201.07l-4.73-.19c-2.32-.1-5.13-.21-8.41-.32q0,5,0,8c0,2,0,4.62,0,7.83,0,3.63,0,7.13.1,10.52s.09,5.91.12,7.57c-3.91-.29-5.86-.43-9.77-.7,0-1.58,0-4,0-7.19s0-6.8,0-10.72c0-2.9,0-5.36,0-7.4s0-4.79-.11-8.25q-4.85-.15-8.65-.24l-4.52-.11-.05-8.46,7.53.17,10.43.25,11.47.25,6.63.14Z"/><path class="cls-1" d="M747.66,193.27q0,6.39,0,10.06c0,2.46,0,4.71,0,6.75,0,2.6,0,4.83.05,6.71s0,3.48,0,4.82a20.57,20.57,0,0,1-1.33,8,13.53,13.53,0,0,1-3.71,5.29,15.18,15.18,0,0,1-5.8,3.11,20.84,20.84,0,0,1-7.33.51,22.64,22.64,0,0,1-7.84-1.93,19.76,19.76,0,0,1-5.49-3.9,16.91,16.91,0,0,1-3.75-5.73,21.64,21.64,0,0,1-1.3-7.75c0-1.28,0-2.81,0-4.6s0-3.92,0-6.39c0-2.15,0-4.31-.08-6.5s-.08-5.31-.1-9.38l9.77.25c0,1.86,0,4.19,0,7s0,5.93,0,9.42c0,1.69,0,3.37,0,5.05s0,3.41,0,5.19c0,3.2.81,5.68,2.39,7.44a9,9,0,0,0,6.31,2.94c2.81.21,4.94-.44,6.4-2s2.18-4,2.16-7.35c0-1.82,0-3.63,0-5.44s0-3.48,0-5c0-3.61,0-6.85-.09-9.71s-.07-5.22-.08-7.06Z"/><path class="cls-1" d="M794.09,240.11c-3.6,1.37-5.39,2-9,3.39-.73-1.37-2.17-3.82-4.32-7.33s-5.41-8.9-9.8-16l.15-.69a9.88,9.88,0,0,0,2.56-1,9.48,9.48,0,0,0,2.65-2A9,9,0,0,0,778,213.7a10.37,10.37,0,0,0,.55-3.71,8.26,8.26,0,0,0-.95-3.92,6.31,6.31,0,0,0-2.56-2.63,8.07,8.07,0,0,0-2.74-.95,24.65,24.65,0,0,0-2.75-.28l-1.21-.05-.56,0q0,4.17,0,8.53t0,7.83q0,5.72.08,12.5t.09,9.8l-9.75-.92c0-1.82,0-4.49,0-8s0-8.77,0-15.69c0-1.84,0-4.48,0-7.92s-.08-8.32-.17-14.67c.57,0,1.76,0,3.56,0s3.48,0,5,.08q4.39.13,7.63.55a22.23,22.23,0,0,1,6.1,1.69,12.94,12.94,0,0,1,6.11,5.09,14.06,14.06,0,0,1,2,7.35,13.67,13.67,0,0,1-2.07,7.77,16.59,16.59,0,0,1-4.26,4.63V221q3.07,4.89,6.56,10.08A89.51,89.51,0,0,1,794.09,240.11Z"/><path class="cls-1" d="M828.17,247.14l-5.85-.7c-3.2-.39-6.37-.75-9.53-1.1-2.73-.3-5.39-.57-8-.83l-5.65-.56c0-1.3,0-4.11.05-8.45s0-9.84,0-16.49c0-2.81,0-6.4-.06-10.75s-.07-8.8-.12-13.33l5.71.21,7.44.28,10,.33,5.55.18c0,3.78,0,5.67,0,9.45-.34,0-1.62-.09-3.87-.23s-4.49-.26-6.75-.37c-1.31-.07-2.85-.13-4.6-.21l-4.12-.18c0,1.87,0,3.83,0,5.89s0,3.93,0,5.6c1,.06,2.33.15,3.91.27l3.9.28c2.53.17,4.91.31,7.12.44s3.62.2,4.22.25c0,3,0,4.56,0,7.61l-4.56-.4c-2.65-.24-4.87-.42-6.66-.56l-3.93-.29-4-.28q0,4.35,0,7.45c0,2.07-.21,4.79.05,5.08s2.75.3,4.71.5,3.74.38,5.33.54c2.24.22,4.27.4,6.09.56l3.56.31C828.17,241.44,828.17,243.34,828.17,247.14Z"/><path class="cls-2" d="M128.45,191.28q-4.69,15.27-8.53,29.15c-2.55,9.24-4.1,14.93-4.64,16.94l-8.54.86c-.29-1.2-1.18-4.48-2.68-9.9s-3.42-12.16-5.77-20.29h-.21c-2.22,7.48-4.21,14.4-6,20.71S89.34,238.88,89,240.1l-8.56.94c-.3-1.17-1.57-6-3.83-14.6S71.39,207,67.71,193.81c3.91-1.66,5.86-2.48,9.77-4.09.2,1,1.07,4.65,2.64,11s3.42,13.84,5.6,22.37l.22,0q3.19-11.49,5.7-20.95c1.66-6.32,2.6-9.83,2.8-10.6l8.08-.28c.25,1.16,1.17,4.69,2.74,10.54s3.31,12.3,5.22,19.32h.21c2.28-8.49,4.2-15.72,5.76-21.75s2.46-9.66,2.72-10.95C122.88,189.57,124.74,190.14,128.45,191.28Z"/><path class="cls-2" d="M144.43,234.48l-9.76.9c0-2,.07-4.82.11-8.55s.08-8.78.11-15.17c0-2.69,0-6.08,0-10.19s0-8.3,0-12.59l9.77-.28q0,4.69-.12,10.81t-.09,10.89q0,9.69,0,15C144.41,228.81,144.42,231.88,144.43,234.48Z"/><path class="cls-2" d="M193,187.32q-.09,5.61-.15,11.27c-.05,3.77-.07,6.73-.08,8.88q0,7.32,0,13.12t0,7.35c-2.83,1.45-4.24,2.19-7.07,3.67q-7.41-10.34-13.72-18.68c-4.21-5.54-6.77-9-7.69-10.15l-.15.07q0,7.18,0,17.38t0,12.53c-3.64.3-5.45.46-9.09.78q0-1.69.11-7.44t.11-14.29q0-3.48,0-8.94c0-3.63,0-7.53,0-11.7,3.06-1.5,4.59-2.24,7.66-3.72.86,1.16,3.41,4.69,7.65,10.44s8.65,11.49,13.24,17.21l.12-.07c0-3,0-7.43,0-13.32s0-10.6,0-14.16Z"/><path class="cls-2" d="M240.59,206.94a18,18,0,0,1-2.61,9.55,22.43,22.43,0,0,1-6.67,6.94,31.79,31.79,0,0,1-8,3.84,42.92,42.92,0,0,1-10.3,1.85q-2.75.19-6,.35l-3.67.19q0-.32.09-6.74t.15-15c0-2.38,0-5.34,0-8.9s0-7.54,0-12l3.92-.12,4.84-.14a49,49,0,0,1,11.31.91,25.67,25.67,0,0,1,8.55,3.41,17.77,17.77,0,0,1,6.36,6.69A19,19,0,0,1,240.59,206.94Zm-10.05.08a11.76,11.76,0,0,0-1.26-5.59,10.48,10.48,0,0,0-4.05-4.19,15.43,15.43,0,0,0-5.41-2,27.12,27.12,0,0,0-5.56-.44l-.64,0h-.42q-.06,3.21-.07,6.1c0,1.92,0,3.51,0,4.74s0,2.88,0,5.31,0,5.76,0,10l.47,0,.5,0a25.81,25.81,0,0,0,5.63-1,17.89,17.89,0,0,0,4.9-2.16,13.69,13.69,0,0,0,4.48-4.64A12.13,12.13,0,0,0,230.54,207Z"/><path class="cls-2" d="M296.07,212.74A9.3,9.3,0,0,1,294,218.6a14,14,0,0,1-5.85,4.16,32,32,0,0,1-7.13,1.86c-2.69.4-5.65.69-8.86.86-1.74.09-3.55.16-5.45.21s-3.29.09-4.2.1q.09-4.9.15-10t.09-10.95q0-6.41,0-12.51c0-4.08,0-6.22,0-6.44l3.28-.18q2.78-.16,6-.22,4.81-.07,8,.14a27.31,27.31,0,0,1,5.79,1,11.06,11.06,0,0,1,5.18,3,7.09,7.09,0,0,1,1.89,5.08,8.6,8.6,0,0,1-1.66,5.09,10.12,10.12,0,0,1-4.38,3.48v.21a13.67,13.67,0,0,1,3.21.73,10.24,10.24,0,0,1,2.68,1.54,8.61,8.61,0,0,1,2.56,3A9.18,9.18,0,0,1,296.07,212.74ZM286,212a4.6,4.6,0,0,0-.52-2.32,5.43,5.43,0,0,0-3.56-2.81,8.85,8.85,0,0,0-2.86-.34c-.79,0-1.44.06-1.95.1l-.95.06-.8-3.72a12.71,12.71,0,0,0,2.92-.55,8,8,0,0,0,2.29-1.12,6.33,6.33,0,0,0,1.62-1.86,5.28,5.28,0,0,0,.65-2.65,4.53,4.53,0,0,0-.68-2.42,4.67,4.67,0,0,0-1.9-1.73,8.73,8.73,0,0,0-2.43-.68,16.84,16.84,0,0,0-3-.17l-1.64.06-1.14.06c-.05,2-.09,4.21-.11,6.64s0,4.59-.05,6.47,0,4.61,0,8v5.52h1.26c.56,0,1.19,0,1.9,0a39.19,39.19,0,0,0,4.45-.45,10.32,10.32,0,0,0,3.57-1.2,5.94,5.94,0,0,0,2.14-2A5.27,5.27,0,0,0,286,212Z"/><path class="cls-2" d="M340.89,220.26c-3.87,1.35-5.8,2-9.67,3.4q-.3-.91-1.5-4t-2.85-7.09l-15.05.46c-1.17,2.78-2.16,5.25-3,7.43s-1.33,3.57-1.52,4.17L298.27,222c.53-1.18,2.61-5.88,6.23-14s7.07-15.82,10.36-23.15l10-.11q5,11.37,10.33,23.05Zm-16.3-13.58q-1.11-2.88-2.43-6.34c-.88-2.3-1.77-4.57-2.65-6.8h-.12q-1.12,2.79-2.7,6.91t-2.54,6.5v0l10.46-.28Z"/><path class="cls-2" d="M383.79,184.47c-.05,3.21-.08,6.43-.11,9.66s-.05,5.77-.05,7.61q0,6.27,0,11.25c0,3.31,0,5.41,0,6.29l-7.08,2.82q-7.45-9.15-13.81-16.36T355.05,197l-.14.06q0,6,0,14.54c0,5.69,0,9.19,0,10.49l-9.11.26c0-.94.06-3,.1-6.18S346,209,346,204.3q0-2.9,0-7.43t-.05-9.72l7.66-3c.87,1,3.43,4,7.68,8.88s8.7,9.9,13.32,14.93l.12-.06c0-2.55,0-6.32-.06-11.33s-.06-9,0-12.05Z"/><path class="cls-2" d="M431.54,202.8a14.34,14.34,0,0,1-2.57,8.44,19.28,19.28,0,0,1-6.64,5.89,31.55,31.55,0,0,1-8,3A47.23,47.23,0,0,1,404,221.26c-1.83,0-3.85,0-6,0l-3.68,0c0-.18,0-2.13.07-5.83s.08-8,.09-13c0-2,0-4.62,0-7.7s0-6.52-.07-10.33l3.93,0,4.84-.05a55.74,55.74,0,0,1,11.32,1,27.92,27.92,0,0,1,8.58,3.17,17.4,17.4,0,0,1,6.4,6.11A15.91,15.91,0,0,1,431.54,202.8Zm-10.06-.27a9.87,9.87,0,0,0-1.29-5,10.44,10.44,0,0,0-4.08-3.82,17.29,17.29,0,0,0-5.42-1.9,30.76,30.76,0,0,0-5.57-.51h-1.07c0,1.86,0,3.64,0,5.32v4.14c0,1,0,2.51,0,4.63s0,5,0,8.72h1a29,29,0,0,0,5.64-.67,18.25,18.25,0,0,0,4.9-1.7,12.13,12.13,0,0,0,4.47-3.92A9.6,9.6,0,0,0,421.48,202.53Z"/><path class="cls-2" d="M490.69,219,481,221.9c-.2-.6-.72-1.93-1.53-4s-1.77-4.38-2.89-7c-6,0-9-.06-15.06-.09q-1.72,3.9-2.94,7c-.81,2-1.31,3.34-1.49,3.9L448,218.85q.81-1.65,6.17-13T464.44,184l10,0q5.1,11,10.47,22.54T490.69,219Zm-16.38-13.77c-.75-1.87-1.58-3.93-2.47-6.17s-1.8-4.44-2.69-6.6H469q-1.12,2.64-2.67,6.56t-2.5,6.14v0l10.47,0Z"/><path class="cls-2" d="M532.83,203.55a14.56,14.56,0,0,1-2.52,8.57,18.5,18.5,0,0,1-6.62,5.81,29.9,29.9,0,0,1-8,2.82,45.53,45.53,0,0,1-10.32.82q-2.75,0-6-.17l-3.68-.13c0-.18,0-2.13.05-5.83s0-8,0-13c0-2.05,0-4.62-.05-7.7s-.06-6.53-.11-10.34h8.77a55.27,55.27,0,0,1,11.33,1.1,27.8,27.8,0,0,1,8.58,3.31,17.86,17.86,0,0,1,6.43,6.31A16.69,16.69,0,0,1,532.83,203.55Zm-10.05-.47a10.29,10.29,0,0,0-1.32-5.09,10.63,10.63,0,0,0-4.09-3.93,17.36,17.36,0,0,0-5.43-2,30.24,30.24,0,0,0-5.58-.58H505.3c0,1.87,0,3.65,0,5.34s0,3.08,0,4.17,0,2.52,0,4.66,0,5.05.05,8.77h1a28.19,28.19,0,0,0,5.64-.52,17.87,17.87,0,0,0,4.89-1.59,11.55,11.55,0,0,0,4.45-3.87A9.61,9.61,0,0,0,522.78,203.08Z"/><path class="cls-2" d="M577.66,187.31c-.35.82-2.4,5.42-6.14,13.71s-7.11,15.69-10.1,22.23c-3.88-.14-5.82-.21-9.7-.33q-4.79-10.59-9.21-20.17t-7.11-15.84l9.67-2.89c.26.79,1.69,4.29,4.29,10.53s5.07,12,7.4,17.39h.2q3.6-8.4,7.42-17.57c2.55-6.12,3.93-9.51,4.14-10.11Z"/><path class="cls-2" d="M612.08,225.11l-5.89-.33-9.58-.48-8-.33-5.68-.21q0-1.53,0-6.64t0-13q0-3.31-.07-8.44c0-3.42-.08-6.91-.14-10.47l5.72.1,7.45.12,10,.13,5.55.08c0,2.91,0,4.36,0,7.27l-3.87-.11c-2.24-.07-4.5-.13-6.76-.17-1.32,0-2.86-.06-4.61-.08l-4.14-.07c0,1.45,0,3,0,4.59s0,3.07,0,4.37c1,0,2.33.06,3.91.12l3.92.12,7.14.18,4.24.09c0,2.35,0,3.52,0,5.87l-4.58-.19c-2.66-.11-4.89-.2-6.68-.25l-4-.12-4-.11c0,2.26,0,4.2,0,5.81a24.92,24.92,0,0,0,.07,4c.26.28,2.76.15,4.73.23l5.35.24,6.12.23,3.58.13C612.05,220.72,612.06,222.18,612.08,225.11Z"/><path class="cls-2" d="M658.52,186.48q0,5.37,0,10.79t0,8.51q0,7,.12,12.56t.08,7c-2.81,1-4.22,1.53-7,2.54-5-7.17-9.67-13.46-13.95-18.93s-6.87-8.71-7.81-9.83l-.14.05q0,6.45.16,15.6c.08,6.1.13,9.86.14,11.25l-9.11-.49q0-1.48,0-6.54t0-12.57q0-3.06-.07-7.86t-.15-10.3c3.06-1.17,4.58-1.77,7.64-3,.87,1.07,3.46,4.31,7.76,9.82s8.79,11.16,13.45,17l.12,0q0-4.23-.16-12.51t-.17-13.3Z"/><path class="cls-2" d="M699.65,196.3l-4.72-.2c-2.33-.1-5.13-.21-8.42-.32,0,3.33,0,6,0,8s0,4.63,0,7.83q0,5.44.11,10.52t.11,7.57c-3.9-.29-5.86-.43-9.77-.7q0-2.36,0-7.19t0-10.72c0-2.89,0-5.36,0-7.4s0-4.78-.1-8.25q-4.85-.15-8.66-.24l-4.51-.1-.05-8.47,7.53.18,10.42.24,11.47.26,6.63.14Z"/><path class="cls-2" d="M741.05,188.5q0,6.38,0,10.06t0,6.75q0,3.88,0,6.7c0,1.87,0,3.48,0,4.82a20.52,20.52,0,0,1-1.34,8,13.61,13.61,0,0,1-3.7,5.29,15.38,15.38,0,0,1-5.81,3.12,21,21,0,0,1-7.32.5,22.58,22.58,0,0,1-7.84-1.93,19.79,19.79,0,0,1-5.49-3.89,16.71,16.71,0,0,1-3.75-5.74,21.63,21.63,0,0,1-1.31-7.75c0-1.28,0-2.81,0-4.6s0-3.92,0-6.39q0-3.22-.08-6.49t-.1-9.39l9.78.25q0,2.79,0,7c0,2.79,0,5.92,0,9.41,0,1.69,0,3.38,0,5.06s0,3.41,0,5.18c0,3.21.81,5.68,2.38,7.44a9,9,0,0,0,6.31,2.94c2.81.21,5-.44,6.41-2s2.17-4,2.16-7.35c0-1.81,0-3.63,0-5.43s0-3.49,0-5q0-5.42-.09-9.71c-.05-2.86-.07-5.21-.08-7.06Z"/><path class="cls-2" d="M787.47,235.33c-3.59,1.38-5.39,2-9,3.39-.73-1.36-2.17-3.82-4.32-7.32s-5.42-8.91-9.8-16.06c.06-.28.09-.41.14-.69a9.65,9.65,0,0,0,2.56-1,9.54,9.54,0,0,0,2.65-2,8.68,8.68,0,0,0,1.64-2.67,10.13,10.13,0,0,0,.55-3.7,8.27,8.27,0,0,0-.94-3.93,6.37,6.37,0,0,0-2.56-2.63,8.12,8.12,0,0,0-2.75-.95,24.48,24.48,0,0,0-2.74-.28l-1.21-.05-.56,0c0,2.78,0,5.62,0,8.53s0,5.52,0,7.84q0,5.7.08,12.49t.1,9.81c-3.91-.38-5.86-.56-9.76-.92,0-1.82,0-4.5,0-8s0-8.76,0-15.68c0-1.85,0-4.49-.05-7.93s-.08-8.32-.16-14.66l3.55,0c1.8,0,3.48,0,5,.08q4.41.14,7.63.55a22.39,22.39,0,0,1,6.1,1.69,13,13,0,0,1,6.11,5.09,14,14,0,0,1,2,7.35,13.7,13.7,0,0,1-2.07,7.78,16.86,16.86,0,0,1-4.25,4.63v.21q3.06,4.9,6.55,10.09A89.5,89.5,0,0,1,787.47,235.33Z"/><path class="cls-2" d="M821.56,242.36l-5.85-.7q-4.8-.57-9.54-1.1c-2.73-.3-5.38-.57-8-.82s-4.48-.44-5.65-.57q0-1.93.05-8.45t0-16.49c0-2.81,0-6.4-.06-10.75s-.07-8.8-.12-13.33l5.71.22,7.45.27,10,.33,5.54.18c0,3.78,0,5.68,0,9.46l-3.86-.24c-2.24-.13-4.49-.26-6.75-.37l-4.6-.2-4.13-.18c0,1.86,0,3.83,0,5.89s0,3.92,0,5.59q1.53.09,3.9.27l3.91.28q3.79.25,7.11.44c2.21.12,3.62.21,4.23.25,0,3,0,4.57,0,7.61l-4.57-.4L809.7,219l-3.94-.28-4-.29c0,2.9,0,5.39,0,7.45s-.21,4.79.06,5.08,2.74.31,4.71.51l5.32.53c2.24.22,4.27.4,6.1.56s3,.26,3.56.32C821.55,236.67,821.55,238.57,821.56,242.36Z"/></svg>