<svg id="圖層_1" data-name="圖層 1" xmlns="http://www.w3.org/2000/svg" viewBox="0 0 914.92 115.43"><defs><style>.cls-1{fill:#513600;}.cls-2{fill:#fff;}</style></defs><title>title04</title><circle class="cls-1" cx="77.25" cy="57.71" r="49.27" transform="translate(-18.18 71.53) rotate(-45)"/><path class="cls-2" d="M77.25,8.45A49.27,49.27,0,1,1,28,57.71,49.27,49.27,0,0,1,77.25,8.45m0-5.63a54.9,54.9,0,1,0,54.9,54.89A55,55,0,0,0,77.25,2.82Z"/><circle class="cls-1" cx="185.88" cy="57.71" r="49.27" transform="translate(87.01 225.37) rotate(-76.72)"/><path class="cls-2" d="M185.88,8.45a49.27,49.27,0,1,1-49.26,49.26A49.27,49.27,0,0,1,185.88,8.45m0-5.63a54.9,54.9,0,1,0,54.9,54.89,55,55,0,0,0-54.9-54.89Z"/><circle class="cls-1" cx="294.52" cy="57.71" r="49.27" transform="translate(45.45 225.16) rotate(-45)"/><path class="cls-2" d="M294.52,8.45a49.27,49.27,0,1,1-49.27,49.26A49.27,49.27,0,0,1,294.52,8.45m0-5.63a54.9,54.9,0,1,0,54.89,54.89A55,55,0,0,0,294.52,2.82Z"/><circle class="cls-1" cx="403.15" cy="57.71" r="49.27" transform="translate(254.35 436.82) rotate(-76.72)"/><path class="cls-2" d="M403.15,8.45a49.27,49.27,0,1,1-49.27,49.26A49.27,49.27,0,0,1,403.15,8.45m0-5.63A54.9,54.9,0,1,0,458,57.71,55,55,0,0,0,403.15,2.82Z"/><circle class="cls-1" cx="511.78" cy="57.71" r="49.27" transform="translate(109.09 378.78) rotate(-45)"/><path class="cls-2" d="M511.78,8.45a49.27,49.27,0,1,1-49.27,49.26A49.26,49.26,0,0,1,511.78,8.45m0-5.63a54.9,54.9,0,1,0,54.89,54.89A55,55,0,0,0,511.78,2.82Z"/><circle class="cls-1" cx="620.41" cy="57.71" r="49.27" transform="translate(421.7 648.27) rotate(-76.72)"/><path class="cls-2" d="M620.41,8.45a49.27,49.27,0,1,1-49.27,49.26A49.26,49.26,0,0,1,620.41,8.45m0-5.63A54.9,54.9,0,1,0,675.3,57.71,55,55,0,0,0,620.41,2.82Z"/><circle class="cls-1" cx="729.04" cy="57.71" r="49.27" transform="translate(172.72 532.41) rotate(-45)"/><path class="cls-2" d="M729,8.45a49.27,49.27,0,1,1-49.27,49.26A49.26,49.26,0,0,1,729,8.45m0-5.63a54.9,54.9,0,1,0,54.89,54.89A55,55,0,0,0,729,2.82Z"/><circle class="cls-1" cx="837.67" cy="57.71" r="49.27" transform="translate(589.04 859.72) rotate(-76.72)"/><path class="cls-2" d="M837.67,8.45A49.27,49.27,0,1,1,788.4,57.71,49.27,49.27,0,0,1,837.67,8.45m0-5.63a54.9,54.9,0,1,0,54.89,54.89A55,55,0,0,0,837.67,2.82Z"/><path class="cls-2" d="M51.58,33.85H70.21V32.19H50.13c-1.88,0-2.81-.86-2.81-2.6s.93-2.53,2.81-2.53H70.21A2.49,2.49,0,0,1,73,24.25h9.54a2.49,2.49,0,0,1,2.81,2.81h20.08c1.88,0,2.82.87,2.82,2.53s-.94,2.6-2.82,2.6H85.38v1.66H104c1.88,0,2.82.65,2.82,2s-.94,2-2.82,2H51.58c-1.88,0-2.82-.65-2.82-2S49.7,33.85,51.58,33.85Zm-4.26,48A2.49,2.49,0,0,1,50.13,79H70.21V77.34H53a2.49,2.49,0,0,1-2.82-2.82c0-2,.94-2.89,2.82-2.89H70.21V70H55.77A2.49,2.49,0,0,1,53,67.15v-1.3a3.3,3.3,0,0,1,1.3-2.67l.36-.29H53a2.49,2.49,0,0,1-2.82-2.81,2.49,2.49,0,0,1-2.81-2.82v-3.4a2.48,2.48,0,0,1,2.81-2.81h55.33a2.49,2.49,0,0,1,2.82,2.81v3.4a2.49,2.49,0,0,1-2.82,2.82,2.48,2.48,0,0,1-2.81,2.81H101l.36.29a3.33,3.33,0,0,1,1.3,2.67v1.3A2.49,2.49,0,0,1,99.83,70H85.38v1.66h17.27c1.88,0,2.81.94,2.81,2.89a2.49,2.49,0,0,1-2.81,2.82H85.38V79h20.08a2.49,2.49,0,0,1,2.82,2.82v2c0,1.88-.94,2.89-2.82,2.89H50.13c-1.88,0-2.81-1-2.81-2.89Zm2.81-39.51A2.49,2.49,0,0,1,53,39.49h49.7a2.49,2.49,0,0,1,2.81,2.82v4.26a2.49,2.49,0,0,1-2.81,2.82H53a2.49,2.49,0,0,1-2.82-2.82ZM93,56.18H62.56v1.66H93ZM90.22,43.46H65.37v1.95H90.22ZM86.11,64.92l-2.39-2H71.88l-2.39,2Z"/><path class="cls-2" d="M155.66,42.88a2.49,2.49,0,0,1,2.82-2.81h20.08V38.41H158.48c-1.88,0-2.82-.94-2.82-2.89V31a2.49,2.49,0,0,1,2.82-2.82h20.08V27.06a2.49,2.49,0,0,1,2.82-2.81h9.53a2.49,2.49,0,0,1,2.82,2.81v1.16h20.08A2.49,2.49,0,0,1,216.63,31v4.48c0,1.95-.94,2.89-2.82,2.89H193.73v1.66h20.08a2.49,2.49,0,0,1,2.82,2.81V83.77c0,1.88-.94,2.89-2.82,2.89H198.57c-1.88,0-2.82-1-2.82-2.89V79.29a2.49,2.49,0,0,1,2.82-2.82h2.82V50.25h-1.52l-2.09,5.13c1.44.14,2.16,1.08,2.16,2.75v3.39a2.49,2.49,0,0,1-2.81,2.82h-4V66h4a2.49,2.49,0,0,1,2.81,2.82v3.39A2.49,2.49,0,0,1,197.13,75h-4v8.74c0,1.88-.94,2.89-2.82,2.89H182c-1.88,0-2.82-1-2.82-2.89V75h-4a2.49,2.49,0,0,1-2.82-2.82V68.82A2.49,2.49,0,0,1,175.17,66h4V64.34h-4a2.49,2.49,0,0,1-2.82-2.82V58.13c0-1.67.72-2.61,2.17-2.75l-2.1-5.13h-1.51V83.77c0,1.88-.94,2.89-2.82,2.89h-9.61c-1.88,0-2.82-1-2.82-2.89ZM185.5,55.31h1.3l2.09-5.06H183.4Z"/><path class="cls-2" d="M286.91,56.18h-4.84V78.71a2.49,2.49,0,0,1-2.82,2.82h-9.6a2.49,2.49,0,0,1-2.82-2.82V48.81A2.49,2.49,0,0,1,269.65,46h17.26V40.93H266.83A2.49,2.49,0,0,1,264,38.12V33.57a2.49,2.49,0,0,1,2.82-2.82h20.08V27.06a2.49,2.49,0,0,1,2.82-2.81h9.53a2.49,2.49,0,0,1,2.82,2.81v3.69h20.08A2.49,2.49,0,0,1,325,33.57v4.55a2.49,2.49,0,0,1-2.82,2.81H302.08V46h17.26a2.49,2.49,0,0,1,2.82,2.82v29.9a2.49,2.49,0,0,1-2.82,2.82h-9.6a2.49,2.49,0,0,1-2.82-2.82V56.18h-4.84V83.77c0,1.88-.94,2.89-2.82,2.89h-9.53c-1.88,0-2.82-1-2.82-2.89Z"/><path class="cls-2" d="M378.57,37.25V35.81h-3.39A2.49,2.49,0,0,1,372.36,33V27.06a2.49,2.49,0,0,1,2.82-2.81h9.61a2.49,2.49,0,0,1,2.81,2.81h11a2.49,2.49,0,0,1,2.82,2.82V33a2.49,2.49,0,0,1-2.82,2.82h-6.21v1.44a2.49,2.49,0,0,1-2.82,2.82h-8.16A2.49,2.49,0,0,1,378.57,37.25Zm-6.21,7.3a2.49,2.49,0,0,1,2.82-2.82h20.08V40.36a2.49,2.49,0,0,1,2.82-2.82h9.53a2.49,2.49,0,0,1,2.82,2.82v1.37h20.08a2.49,2.49,0,0,1,2.82,2.82v9.6A2.49,2.49,0,0,1,430.51,57h-1.44v7.66a2.49,2.49,0,0,1-2.82,2.81H391.86V70h35.83a2.49,2.49,0,0,1,2.82,2.82v11c0,1.88-.94,2.89-2.82,2.89H379.44c-1.88,0-2.82-1-2.82-2.89V57h-1.44a2.49,2.49,0,0,1-2.82-2.82Zm45.73,4.84H387.6v2.52h30.49Zm-4.27,11.55V58.41h-22v2.53ZM415.27,79V76.47H391.86V79ZM402.84,27.06a2.49,2.49,0,0,1,2.82-2.81h9.61a2.49,2.49,0,0,1,2.82,2.81h12.42a2.49,2.49,0,0,1,2.82,2.82V33a2.49,2.49,0,0,1-2.82,2.82h-3.39v1.44a2.49,2.49,0,0,1-2.82,2.82h-8.16a2.49,2.49,0,0,1-2.82-2.82V35.81h-7.66A2.49,2.49,0,0,1,402.84,33Z"/><path class="cls-2" d="M480.71,63.47a2.49,2.49,0,0,1,2.82-2.82h20.08V59H503a2.82,2.82,0,0,0-5.63,0H483.53a2.49,2.49,0,0,1-2.82-2.81v-3.4A2.49,2.49,0,0,1,483.53,50h.57l1.38-2.53h-2c-1.88,0-2.82-.93-2.82-2.88V42a7.58,7.58,0,0,1,.87-3.61l5.92-11.35a4.74,4.74,0,0,1,4.33-2.81h2.6c1.88,0,2.24.94,1.23,2.81l-5.92,11.35h.43a4.73,4.73,0,0,1,4.26-2.6h3.9c1.88,0,2.32.93,1.31,2.81L493.71,50h.87a2.82,2.82,0,0,1,5.63,0V31A2.49,2.49,0,0,1,503,28.22h.58V27.06a2.49,2.49,0,0,1,2.82-2.81H516a2.49,2.49,0,0,1,2.82,2.81v1.16h.58A2.49,2.49,0,0,1,522.17,31V42a7.58,7.58,0,0,1,.87-3.61L529,27.06a4.84,4.84,0,0,1,4.41-2.81h2.53c1.88,0,2.31.94,1.22,2.81L531.2,38.41h.44a4.79,4.79,0,0,1,4.26-2.6h3.9c2,0,2.31.93,1.3,2.81L535.17,50H536a2.82,2.82,0,0,1,5.64,0v6.22A2.49,2.49,0,0,1,538.86,59H525a2.82,2.82,0,0,0-5.63,0h-.58v1.66h20.08a2.49,2.49,0,0,1,2.82,2.82V68a2.49,2.49,0,0,1-2.82,2.82h-10l10,4.12a4.14,4.14,0,0,1,2.82,4v5.64c0,1.87-.94,2.45-2.82,1.66l-20.08-8.38v5.85c0,1.88-.94,2.89-2.82,2.89h-9.53c-1.88,0-2.82-1-2.82-2.89V77.92L483.53,86.3c-1.88.79-2.82.21-2.82-1.66V79a4.14,4.14,0,0,1,2.82-4l10-4.12h-10A2.49,2.49,0,0,1,480.71,68Zm31.93-23.69V37.25h-2.89v2.53Zm0,10.18V47.43h-2.89V50Zm12.93,0,1.37-2.53h-2c-1.88,0-2.82-.93-2.82-2.88v8.23A2.49,2.49,0,0,1,525,50Z"/><path class="cls-2" d="M591.88,47.94v-.79c-1.88,0-2.82-.8-2.82-2.32s.94-2.23,2.82-2.23h4.84V40.93h-4.84c-1.88,0-2.82-.79-2.82-2.31s.94-2.24,2.82-2.24h4.84a2.48,2.48,0,0,1,2.81-2.81h-7.65a2.49,2.49,0,0,1-2.82-2.82v-.87a2.49,2.49,0,0,1,2.82-2.82h7.65a2.49,2.49,0,0,1,2.82-2.81H612a2.49,2.49,0,0,1,2.81,2.81h9.54a2.49,2.49,0,0,1,2.82-2.81h9.6a2.49,2.49,0,0,1,2.82,2.81h7.66A2.49,2.49,0,0,1,650,29.88v.87a2.49,2.49,0,0,1-2.81,2.82h-7.66a2.49,2.49,0,0,1-2.82,2.81h9a2.49,2.49,0,0,1,2.82,2.82V54.73a2.49,2.49,0,0,1,2.82,2.82V62.1a2.49,2.49,0,0,1-2.82,2.82h-8.16a2.49,2.49,0,0,1-2.82-2.82V45.41h-4.26v6.36a4.3,4.3,0,0,1,2.81,4.12v2.24c0,1.87-.93,2.38-2.81,1.51l-.58-.21c-1.3,3.61-4.41,5.49-9.25,5.49h-1.15a2.49,2.49,0,0,1-2.82-2.82V58.7c0-1.87.51-2.81,1.45-2.81.5,0,.93-.37,1.15-1.09a4.21,4.21,0,0,1-2.6-4V48.52q0-2.82,2.82-1.52V45.41a2.49,2.49,0,0,1-2.82-2.81V39.2a2.49,2.49,0,0,1,2.82-2.82,2.46,2.46,0,0,1,1.95-2.74v-.07h-9.54A2.49,2.49,0,0,1,612,36.38h3.32c1.88,0,2.82.8,2.82,2.24s-.94,2.31-2.82,2.31h-4.77V42.6h4.77c1.88,0,2.82.79,2.82,2.23s-.94,2.32-2.82,2.32v.79c1.88,0,2.82.79,2.82,2.31s-.94,2.24-2.82,2.24h-4.77v1.66h4.77c1.88,0,2.82.8,2.82,2.31s-.94,2.24-2.82,2.24h-4.77v1.66h4.77c1.88,0,2.82.8,2.82,2.24s-.94,2.32-2.82,2.32h-23.4c-1.88,0-2.82-.8-2.82-2.32s.94-2.24,2.82-2.24h4.84V58.7h-4.84c-1.88,0-2.82-.79-2.82-2.24s.94-2.31,2.82-2.31h4.84V52.49h-4.84c-1.88,0-2.82-.79-2.82-2.24S590,47.94,591.88,47.94Zm0,25.43h55.33c1.88,0,2.81.86,2.81,2.52s-.93,2.53-2.81,2.53H645l1.08,1.74a5.68,5.68,0,0,1,1.16,3.46v.15c0,1.88-.94,2.89-2.82,2.89h-49.7c-1.88,0-2.81-1-2.81-2.89v-.15A5.73,5.73,0,0,1,593,80.16l1.08-1.74h-2.23c-1.88,0-2.82-.86-2.82-2.53S590,73.37,591.88,73.37Zm2.81-6.79h49.7c1.88,0,2.82.86,2.82,2.52s-.94,2.53-2.82,2.53h-49.7c-1.88,0-2.81-.79-2.81-2.53S592.81,66.58,594.69,66.58ZM602.35,50h2.53V47.15h-2.53Zm5.92,30.2h22.54l-1.08-1.74H609.36Z"/><path class="cls-2" d="M697.41,32.92a3.78,3.78,0,0,1,2.81-3.83l12.43-4.55c1.88-.73,2.81-.15,2.81,1.8v4.48a3.91,3.91,0,0,1-2.81,3.9L700.22,39.2q-2.81,1.08-2.81-1.73Zm0,16.68a3.92,3.92,0,0,1,2.81-3.9l12.43-4.48c1.88-.72,2.81-.14,2.81,1.74V38.62a2.49,2.49,0,0,1,2.82-2.81h2.82V27.06a2.49,2.49,0,0,1,2.82-2.81h5.13a2.49,2.49,0,0,1,2.81,2.81v8.75h5.64a2.48,2.48,0,0,1,2.81,2.81v4.55A2.49,2.49,0,0,1,737.5,46h-4.27V83.77c0,1.88-.93,2.89-2.81,2.89h-5.06c-1.88,0-2.82-1-2.82-2.89V46h-4.26a2.49,2.49,0,0,1-2.82-2.82v4.34a3.83,3.83,0,0,1-2.81,3.83V83.77c0,1.88-.94,2.89-2.82,2.89H703c-1.88,0-2.82-1-2.82-2.89V55.89c-1.87.65-2.81.07-2.81-1.81Zm18.05,4.26a2.82,2.82,0,0,1,5.64,0V78.71a2.82,2.82,0,0,1-5.64,0Zm17.77-26.8a2.82,2.82,0,0,1,5.64,0v4.56a2.82,2.82,0,0,1-5.64,0Zm1.45,26.8a2.82,2.82,0,0,1,5.63,0V78.71a2.82,2.82,0,1,1-5.63,0Zm5.63-25.35a2.49,2.49,0,0,1,2.82-2.82h12.43a2.49,2.49,0,0,1,2.81,2.82V33a2.49,2.49,0,0,1-2.81,2.82H743.13A2.49,2.49,0,0,1,740.31,33Zm0,50.78a2.49,2.49,0,0,1,2.82-2.82V51.05a2.49,2.49,0,0,1-2.82-2.82V43.75a2.49,2.49,0,0,1,2.82-2.82h12.43a2.49,2.49,0,0,1,2.81,2.82v4.48a2.49,2.49,0,0,1-2.81,2.82V83.77c0,1.88-.94,2.89-2.82,2.89h-9.61c-1.88,0-2.82-1-2.82-2.89Z"/><path class="cls-2" d="M805.75,33.28v-3.4a2.49,2.49,0,0,1,2.82-2.82h40.09c1.88,0,2.82-.43,2.82-1.37s.94-1.44,2.82-1.44h9.6a2.49,2.49,0,0,1,2.82,2.81v.58q0,8.46-8.45,8.45H843.82v1.74H863.9a2.49,2.49,0,0,1,2.82,2.81V44a2.49,2.49,0,0,1-2.82,2.82h-5.7l5.7,2.6a4.46,4.46,0,0,1,2.82,4.19V58.2c0,1.88-.94,2.31-2.82,1.37l-2.81-1.23v1.52a2.59,2.59,0,0,1-1.66,2.53l-6.36,2.53H863.9a2.49,2.49,0,0,1,2.82,2.81v3.4A2.49,2.49,0,0,1,863.9,74H843.82v9.82c0,1.88-.94,2.89-2.81,2.89h-17.2c-1.87,0-2.81-1-2.81-2.89V79.29a2.49,2.49,0,0,1,2.81-2.82h4.84V74H808.57a2.49,2.49,0,0,1-2.82-2.82v-3.4a2.49,2.49,0,0,1,2.82-2.81H835l6.36-2.53H814.21c-1.88,0-2.82-.94-2.82-2.89V58.34l-2.82,1.23c-1.88.94-2.82.51-2.82-1.37V53.65a4.46,4.46,0,0,1,2.82-4.19l5.71-2.6h-5.71A2.49,2.49,0,0,1,805.75,44v-3.4a2.49,2.49,0,0,1,2.82-2.81h20.08V36.09H808.57A2.49,2.49,0,0,1,805.75,33.28Zm22.9,17.19-6.35,2.89h6.35Zm15.17,0v2.89h6.36Z"/></svg>