<svg id="圖層_1" data-name="圖層 1" xmlns="http://www.w3.org/2000/svg" viewBox="0 0 154.99 261.77"><defs><style>.cls-1{fill:#4d360a;}.cls-2{fill:#e8e5d5;}.cls-2,.cls-3,.cls-4,.cls-5,.cls-6,.cls-8,.cls-9{stroke:#231815;stroke-width:4px;}.cls-2,.cls-3,.cls-4,.cls-5,.cls-8,.cls-9{stroke-linecap:round;}.cls-2,.cls-3,.cls-4,.cls-5,.cls-9{stroke-linejoin:round;}.cls-3{fill:#eca76f;}.cls-4{fill:#f0c59f;}.cls-5{fill:#eae19a;}.cls-6{fill:#562f00;}.cls-6,.cls-8{stroke-miterlimit:10;}.cls-7{fill:#fff;}.cls-8{fill:none;}.cls-9{fill:#b1cb99;}</style></defs><title>bubbleTea</title><polygon class="cls-1" points="151.88 87.18 109.39 86.68 122.89 11.77 107.87 9.24 93.94 86.49 11.82 85.52 11.58 105.74 21.27 105.85 31.99 259.6 72.25 260.08 88.43 260.27 128.7 260.75 143.06 107.3 151.64 107.4 151.88 87.18"/><polygon class="cls-2" points="80.93 253.13 121.2 253.61 136.83 86.59 82.92 85.95 66.74 85.76 12.82 85.12 24.49 252.46 64.75 252.94 80.93 253.13"/><path class="cls-3" d="M115.58,176.18,109,241.71l-69.7-.83L33.62,182.4s25.1-18.42,37.71-13c5.69,2.45,12,6.25,18.68,8.7C98.12,181.09,106.79,182.08,115.58,176.18Z"/><path class="cls-4" d="M118.46,147.74l-2.88,28.44c-8.79,5.9-17.46,4.91-25.57,1.94-6.69-2.45-13-6.25-18.68-8.7-12.61-5.44-37.71,13-37.71,13l-3.46-35.71Z"/><polygon class="cls-5" points="84.25 173.67 70.53 171.35 100.91 2.84 114.63 5.15 84.25 173.67"/><path class="cls-5" d="M84.79,174.41l-15-2.54L100.37,2.1l15,2.53ZM71.3,170.83l12.41,2.1L113.86,5.67,101.45,3.58Z"/><path class="cls-6" d="M108.77,220.22a8.58,8.58,0,1,1-8.48-8.68A8.59,8.59,0,0,1,108.77,220.22Z"/><path class="cls-7" d="M106.68,218.17a.76.76,0,0,1-.72-.54c-1.2-3.75-5.51-3.86-5.69-3.87a.77.77,0,1,1,0-1.54c.22,0,5.6.12,7.14,4.94a.77.77,0,0,1-.5,1A.73.73,0,0,1,106.68,218.17Z"/><path class="cls-7" d="M107.85,220.21a.8.8,0,1,1-.79-.8A.79.79,0,0,1,107.85,220.21Z"/><path class="cls-6" d="M79.2,229.36a8.58,8.58,0,1,1-8.47-8.68A8.58,8.58,0,0,1,79.2,229.36Z"/><path class="cls-7" d="M77.12,227.31a.77.77,0,0,1-.73-.54c-1.2-3.75-5.51-3.86-5.69-3.87a.77.77,0,1,1,0-1.54c.23,0,5.6.12,7.14,4.94a.77.77,0,0,1-.5,1A.67.67,0,0,1,77.12,227.31Z"/><path class="cls-7" d="M78.28,229.35a.79.79,0,1,1-.78-.8A.79.79,0,0,1,78.28,229.35Z"/><path class="cls-6" d="M78.69,207.67A8.58,8.58,0,1,1,70.21,199,8.59,8.59,0,0,1,78.69,207.67Z"/><path class="cls-7" d="M76.6,205.62a.78.78,0,0,1-.73-.54c-1.2-3.75-5.5-3.86-5.69-3.87a.77.77,0,1,1,0-1.54c.23,0,5.6.12,7.15,4.94a.77.77,0,0,1-.5,1A.77.77,0,0,1,76.6,205.62Z"/><path class="cls-7" d="M77.77,207.66a.8.8,0,0,1-1.59,0,.79.79,0,0,1,.8-.78A.79.79,0,0,1,77.77,207.66Z"/><path class="cls-6" d="M60,211.74a8.58,8.58,0,1,1-8.48-8.68A8.59,8.59,0,0,1,60,211.74Z"/><path class="cls-7" d="M57.92,209.69a.8.8,0,0,1-.73-.54c-1.2-3.75-5.5-3.87-5.69-3.87a.78.78,0,0,1,0-1.55c.23,0,5.6.13,7.15,5a.78.78,0,0,1-.5,1A.73.73,0,0,1,57.92,209.69Z"/><path class="cls-7" d="M59.09,211.73a.8.8,0,1,1-.79-.8A.79.79,0,0,1,59.09,211.73Z"/><path class="cls-6" d="M101.37,200a8.58,8.58,0,1,1-8.47-8.68A8.57,8.57,0,0,1,101.37,200Z"/><path class="cls-7" d="M99.29,198a.76.76,0,0,1-.73-.53c-1.2-3.75-5.51-3.87-5.69-3.87a.78.78,0,0,1,0-1.55c.23,0,5.6.12,7.14,4.94a.78.78,0,0,1-.5,1A.66.66,0,0,1,99.29,198Z"/><path class="cls-7" d="M100.45,200a.79.79,0,1,1-.78-.81A.8.8,0,0,1,100.45,200Z"/><line class="cls-8" x1="120.75" y1="125.04" x2="118.46" y2="147.74"/><line class="cls-8" x1="30.16" y1="146.69" x2="27.95" y2="123.94"/><rect class="cls-9" x="4.2" y="79.21" width="140.07" height="20.22" transform="translate(1.07 -0.87) rotate(0.68)"/></svg>