<svg id="圖層_1" data-name="圖層 1" xmlns="http://www.w3.org/2000/svg" viewBox="0 0 816.7 822.16"><defs><style>.cls-1{opacity:0.5;}.cls-2{fill:#fff;}.cls-3{fill:#040000;}.cls-4{fill:#231815;}.cls-5{opacity:0.26;}.cls-6,.cls-7{fill:none;stroke:#040000;stroke-miterlimit:10;stroke-width:6px;}.cls-7{stroke-dasharray:12.24 12.24;}</style></defs><title>compass</title><g class="cls-1"><path class="cls-2" d="M409.66,675.21A267.15,267.15,0,1,1,538,642.16,267.22,267.22,0,0,1,409.66,675.21Z"/><path class="cls-3" d="M409.18,144.11A263.93,263.93,0,0,1,640.79,281,264.08,264.08,0,0,1,409.66,672.21,263.93,263.93,0,0,1,178.05,535.3,264.08,264.08,0,0,1,409.18,144.11h0m0-6a268.87,268.87,0,0,0-129.79,33.42C148.71,243.35,101,407.5,172.79,538.19a269.87,269.87,0,0,0,366.66,106.6c130.69-71.82,178.41-236,106.6-366.66a269.94,269.94,0,0,0-236.87-140Z"/></g><path class="cls-4" d="M597.4,729.72,580.54,699c-1-1.75-.61-3.18,1.15-4.15l9-4.94c1.76-1,3.16-.5,4.13,1.26l28.4,51.69q1.45,2.64-1.19,4.09l-10.33,5.68a5.24,5.24,0,0,1-5.57-.37l-35.38-20.51,16.86,30.68c1,1.76.57,3.12-1.25,4.12l-8.92,4.9a2.66,2.66,0,0,1-4.09-1.18l-28.4-51.7c-1-1.75-.61-3.18,1.15-4.15l10.27-5.64a5.4,5.4,0,0,1,5.67.4Z"/><path class="cls-4" d="M260.78,83.54l6.65,12.1c3.86,7,2.32,12.54-4.71,16.4l-28.79,15.82c-7,3.86-12.51,2.21-16.37-4.82l-2.3-4.19a2.65,2.65,0,0,1,1.19-4.08l9-4.94q2.64-1.45,4.09,1.19l1.45,2.63a2.65,2.65,0,0,0,4.08,1.19L251.13,106c1.76-1,2.15-2.32,1.19-4.08l-4.94-9c-1-1.76-2.33-2.15-4.08-1.19l-22.44,12.33q-10.53,5.79-16.33-4.75l-6.68-12.16Q192,76.61,202.59,70.83L231.38,55q10.55-5.79,16.33,4.75L250,64c1,1.82.6,3.18-1.15,4.15L240,73c-1.83,1-3.19.61-4.19-1.22l-1.45-2.63q-1.45-2.64-4.08-1.19L214.14,76.8c-1.75,1-2.15,2.32-1.18,4.08l4.94,9c1,1.75,2.32,2.15,4.08,1.18l22.43-12.32Q255,72.93,260.78,83.54Z"/><path class="cls-4" d="M736.38,194.79c1.6-1.24,2.85-1,3.82.71l4.79,8.72a3.24,3.24,0,0,1-.93,4.56L722.39,225.7l25.87-9.29a3.27,3.27,0,0,1,4.34,1.66l4.09,7.43a3.29,3.29,0,0,1-.93,4.56l-21.71,16.85L760,237.7a3.24,3.24,0,0,1,4.35,1.66l4.79,8.71c1,1.76.46,2.92-1.45,3.61l-56.26,20.1a3.34,3.34,0,0,1-4.41-1.63l-5.72-10.4a3.31,3.31,0,0,1,1-4.6l19.82-15.46-23.69,8.44A3.3,3.3,0,0,1,694,246.5l-5.72-10.4a3.34,3.34,0,0,1,1-4.59Z"/><path class="cls-4" d="M51.86,575.56l4.19-2.3q2.63-1.46,4.08,1.19l17.38,31.62a1.38,1.38,0,0,0,2.09.61l11.62-6.39a1.33,1.33,0,0,0,.55-2.06L75.09,567.89c-1-1.75-.57-3.11,1.19-4.08l4.26-2.34a2.66,2.66,0,0,1,4.08,1.19L101.29,593a1.34,1.34,0,0,0,2,.65l11.62-6.39a1.39,1.39,0,0,0,.61-2.1L98.17,553.54c-1-1.76-.57-3.12,1.19-4.08l4.19-2.31c1.76-1,3.19-.6,4.15,1.15l24.51,44.6c1,1.76.5,3.16-1.26,4.12L79.26,625.43c-1.76,1-3.12.57-4.08-1.19l-24.51-44.6Q49.22,577,51.86,575.56Z"/><g class="cls-5"><path class="cls-2" d="M409.43,768.93A357.49,357.49,0,0,1,131.36,636.29,63.9,63.9,0,0,0,70.65,525.83,357.43,357.43,0,0,1,184.57,134,63.9,63.9,0,0,0,295,73.29,354.06,354.06,0,0,1,408.8,54.58,357.44,357.44,0,0,1,686.87,187.21a63.9,63.9,0,0,0,60.7,110.47A357.44,357.44,0,0,1,633.65,689.51a63.9,63.9,0,0,0-110.46,60.7A354.06,354.06,0,0,1,409.43,768.93Z"/><path class="cls-3" d="M408.8,59.58A355.53,355.53,0,0,1,561.86,94.47a350.23,350.23,0,0,1,118,92.11,68.92,68.92,0,0,0,46.64,119.68,67.92,67.92,0,0,0,17.83-2.36,351.27,351.27,0,0,1,2.86,206.15A351.28,351.28,0,0,1,634.29,682.53,68.92,68.92,0,0,0,517,747a348.74,348.74,0,0,1-107.53,16.93A355.62,355.62,0,0,1,256.36,729a349.9,349.9,0,0,1-118-92.11A68.91,68.91,0,0,0,73.86,519.6,352.13,352.13,0,0,1,183.94,141,68.91,68.91,0,0,0,301.26,76.5,349.09,349.09,0,0,1,408.8,59.58m0-10a359.84,359.84,0,0,0-120.35,20.7,58.89,58.89,0,0,1-102.89,56.54C63.51,222.34,15.82,386.35,67.65,532.41A58.89,58.89,0,0,1,124.18,635.3C194,724.46,300.25,773.93,409.43,773.93a359.59,359.59,0,0,0,120.34-20.71,58.89,58.89,0,0,1,102.89-56.54C754.72,601.16,802.4,437.16,750.58,291.09A58.89,58.89,0,0,1,694,188.2C624.27,99,518,49.58,408.8,49.58Z"/></g><path class="cls-3" d="M408.86,131.17A280.46,280.46,0,0,1,655,276.65,280.49,280.49,0,0,1,409.37,692.33,280.44,280.44,0,0,1,163.26,546.85,280.27,280.27,0,0,1,274,165.9a281.86,281.86,0,0,1,66.37-26.2,279.05,279.05,0,0,1,68.48-8.53h0m0-6a285.3,285.3,0,0,0-137.74,35.47C132.44,236.85,81.79,411.06,158,549.74A286.38,286.38,0,0,0,547.1,662.86c138.69-76.21,189.33-250.41,113.12-389.1C608.07,178.85,510,125.17,408.86,125.17Z"/><line class="cls-6" x1="553.87" y1="675.19" x2="537.79" y2="645.92"/><line class="cls-6" x1="682.17" y1="538.21" x2="651.96" y2="523.99"/><line class="cls-6" x1="705.46" y1="351.99" x2="672.65" y2="358.24"/><line class="cls-6" x1="614.84" y1="187.64" x2="591.97" y2="211.98"/><line class="cls-6" x1="444.92" y1="107.95" x2="440.73" y2="141.08"/><line class="cls-6" x1="260.62" y1="143.35" x2="276.7" y2="172.62"/><line class="cls-6" x1="132.32" y1="280.32" x2="162.54" y2="294.55"/><line class="cls-6" x1="109.03" y1="466.55" x2="141.84" y2="460.29"/><line class="cls-6" x1="199.65" y1="630.89" x2="222.52" y2="606.55"/><line class="cls-6" x1="369.57" y1="710.59" x2="373.76" y2="677.45"/><line class="cls-6" x1="628.87" y1="616.86" x2="604.53" y2="593.99"/><line class="cls-6" x1="708.56" y1="446.95" x2="675.43" y2="442.75"/><line class="cls-6" x1="673.16" y1="262.64" x2="643.89" y2="278.72"/><line class="cls-6" x1="536.19" y1="134.34" x2="521.97" y2="164.56"/><line class="cls-6" x1="349.97" y1="111.05" x2="356.22" y2="143.86"/><line class="cls-6" x1="185.62" y1="201.67" x2="209.96" y2="224.54"/><line class="cls-6" x1="105.93" y1="371.59" x2="139.06" y2="375.78"/><line class="cls-6" x1="141.33" y1="555.89" x2="170.6" y2="539.81"/><line class="cls-6" x1="278.3" y1="684.19" x2="292.52" y2="653.98"/><line class="cls-6" x1="464.52" y1="707.48" x2="458.27" y2="674.67"/><line class="cls-6" x1="632.42" y1="284.48" x2="627.16" y2="287.37"/><line class="cls-7" x1="616.43" y1="293.26" x2="192.58" y2="526.18"/><line class="cls-6" x1="187.21" y1="529.13" x2="181.95" y2="532.02"/><line class="cls-6" x1="531.44" y1="634.36" x2="528.55" y2="629.1"/><line class="cls-7" x1="522.65" y1="618.37" x2="289.74" y2="194.51"/><line class="cls-6" x1="286.79" y1="189.15" x2="283.9" y2="183.89"/></svg>