<svg id="圖層_1" data-name="圖層 1" xmlns="http://www.w3.org/2000/svg" viewBox="0 0 816.7 822.16"><defs><style>.cls-1{opacity:0.5;}.cls-2{fill:#fff;}.cls-3{fill:#040000;}.cls-4{fill:#231815;}.cls-5{opacity:0.26;}.cls-6,.cls-7{fill:none;stroke:#040000;stroke-miterlimit:10;stroke-width:6px;}.cls-7{stroke-dasharray:12.24 12.24;}</style></defs><title>compass</title><g class="cls-1"><path class="cls-2" d="M406,680.12a267,267,0,1,1,188.8-78.2A265.25,265.25,0,0,1,406,680.12Z"/><path class="cls-3" d="M406,149.12a263.21,263.21,0,1,1-102.76,20.75A262.29,262.29,0,0,1,406,149.12m0-6c-149.12,0-270,120.88-270,270s120.88,270,270,270,270-120.88,270-270-120.88-270-270-270Z"/></g><path class="cls-4" d="M396.13,40.78v35c0,2-1,3.09-3,3.09H382.87c-2,0-3-1.08-3-3.09v-59q0-3,3-3h11.8a5.23,5.23,0,0,1,4.7,3l21.12,35v-35c0-2,1-3,3.09-3h10.18q3,0,3,3v59c0,2-1,3.09-3,3.09H422a5.41,5.41,0,0,1-4.78-3.09Z"/><path class="cls-4" d="M379.94,769.2V755.4c0-8,4-12.11,12-12.11h32.84c8,0,12,4.09,12,12.11v4.78q0,3-3,3H423.58c-2,0-3-1-3-3v-3q0-3-3-3H399.22q-3,0-3,3v10.25q0,3,3,3h25.59q12,0,12,12v13.88q0,12-12,12H392q-12,0-12-12v-4.78c0-2.09,1-3.09,3-3.09h10.17c2.09,0,3.09,1,3.09,3.09v3q0,3,3,3h18.35q3,0,3-3V784.31q0-3-3-3H392C384,781.3,379.94,777.29,379.94,769.2Z"/><path class="cls-4" d="M16.71,442.66c-2,.31-3-.46-3-2.47v-9.94a3.24,3.24,0,0,1,3-3.55l27.14-4.39L16.71,418a3.28,3.28,0,0,1-3-3.55V406a3.28,3.28,0,0,1,3-3.55l27.14-4.31-27.14-4.4a3.24,3.24,0,0,1-3-3.55v-9.94c0-2,1-2.78,3-2.47l59,9.48a3.35,3.35,0,0,1,3.09,3.55v11.87a3.3,3.3,0,0,1-3.09,3.55l-24.83,4,24.83,4a3.3,3.3,0,0,1,3.09,3.55v11.87a3.35,3.35,0,0,1-3.09,3.55Z"/><path class="cls-4" d="M800,438.61h-4.78a2.65,2.65,0,0,1-3-3V399.52a1.39,1.39,0,0,0-1.55-1.54H777.4c-1,0-1.46.54-1.46,1.54v34.62a2.66,2.66,0,0,1-3,3h-4.86c-2,0-3-1-3-3V399.52c0-1-.47-1.54-1.47-1.54H750.34a1.38,1.38,0,0,0-1.54,1.54v36.09q0,3-3,3H741c-2,0-3.08-1-3.08-3V384.72c0-2,1.08-3,3.08-3h59q3,0,3,3v50.89Q803,438.61,800,438.61Z"/><g class="cls-5"><path class="cls-2" d="M471,761.68a63.9,63.9,0,0,0-126,0A357.38,357.38,0,0,1,56.45,473.14a63.9,63.9,0,0,0,0-126A357.41,357.41,0,0,1,345,58.56a63.9,63.9,0,0,0,126,0A357.44,357.44,0,0,1,759.57,347.1a63.9,63.9,0,0,0,0,126A357.41,357.41,0,0,1,471,761.68Z"/><path class="cls-3" d="M474.94,64.37A352.08,352.08,0,0,1,753.76,343.19a68.91,68.91,0,0,0,0,133.86A352.08,352.08,0,0,1,474.94,755.87a68.92,68.92,0,0,0-133.87,0,349,349,0,0,1-94.86-32.93,353.73,353.73,0,0,1-151-151,349,349,0,0,1-32.93-94.87,68.91,68.91,0,0,0,0-133.86,348.92,348.92,0,0,1,32.93-94.86,352,352,0,0,1,245.88-184,68.91,68.91,0,0,0,133.87,0m-8.23-11.62a58.89,58.89,0,0,1-117.4,0c-153,24.93-273.74,145.7-298.67,298.67a58.89,58.89,0,0,1,0,117.4c24.93,153,145.7,273.74,298.67,298.67a58.89,58.89,0,0,1,117.4,0c153-24.93,273.74-145.7,298.67-298.67a58.89,58.89,0,0,1,0-117.4c-24.93-153-145.7-273.74-298.67-298.67Z"/></g><path class="cls-3" d="M408,129.6a279.62,279.62,0,1,1-109.19,22A278.7,278.7,0,0,1,408,129.6m0-6c-158.25,0-286.53,128.28-286.53,286.52S249.76,696.65,408,696.65,694.53,568.37,694.53,410.12,566.25,123.6,408,123.6Z"/><line class="cls-6" x1="408.01" y1="109.53" x2="408.01" y2="142.93"/><line class="cls-6" x1="229.6" y1="167.79" x2="249.23" y2="194.81"/><line class="cls-6" x1="119.51" y1="319.78" x2="151.27" y2="330.1"/><line class="cls-6" x1="119.78" y1="507.45" x2="151.55" y2="497.13"/><line class="cls-6" x1="230.31" y1="659.13" x2="249.94" y2="632.11"/><line class="cls-6" x1="408.89" y1="716.86" x2="408.89" y2="683.46"/><line class="cls-6" x1="587.29" y1="658.61" x2="567.66" y2="631.59"/><line class="cls-6" x1="697.39" y1="506.62" x2="665.62" y2="496.3"/><line class="cls-6" x1="697.11" y1="318.94" x2="665.35" y2="329.26"/><line class="cls-6" x1="586.58" y1="167.27" x2="566.95" y2="194.29"/><line class="cls-6" x1="314.19" y1="124.53" x2="324.51" y2="156.3"/><line class="cls-6" x1="162.52" y1="235.06" x2="189.54" y2="254.69"/><line class="cls-6" x1="104.78" y1="413.64" x2="138.18" y2="413.64"/><line class="cls-6" x1="163.04" y1="592.04" x2="190.06" y2="572.41"/><line class="cls-6" x1="315.03" y1="702.14" x2="325.35" y2="670.37"/><line class="cls-6" x1="502.7" y1="701.86" x2="492.38" y2="670.1"/><line class="cls-6" x1="654.38" y1="591.33" x2="627.36" y2="571.7"/><line class="cls-6" x1="712.11" y1="412.76" x2="678.71" y2="412.76"/><line class="cls-6" x1="653.86" y1="234.35" x2="626.84" y2="253.98"/><line class="cls-6" x1="501.87" y1="124.26" x2="491.55" y2="156.02"/><line class="cls-6" x1="151.01" y1="414.12" x2="157.01" y2="414.12"/><line class="cls-7" x1="169.25" y1="414.12" x2="652.89" y2="414.12"/><line class="cls-6" x1="659.01" y1="414.12" x2="665.01" y2="414.12"/><line class="cls-6" x1="408.01" y1="156.12" x2="408.01" y2="162.12"/><line class="cls-7" x1="408.01" y1="174.37" x2="408.01" y2="658"/><line class="cls-6" x1="408.01" y1="664.12" x2="408.01" y2="670.12"/></svg>