<svg id="圖層_1" data-name="圖層 1" xmlns="http://www.w3.org/2000/svg" viewBox="0 0 330.47 145.55"><defs><style>.cls-1{fill:#231815;}.cls-2{fill:#fff;}</style></defs><title>date_5_6</title><path class="cls-1" d="M34,142.67c-17.93,0-27.41-9.54-27.41-27.58V102c0-5.55,3.18-8.73,8.73-8.73H36.52c5.55,0,8.73,3.18,8.73,8.73v9.42c0,2.79.94,3.73,3.73,3.73H87c2.78,0,3.72-.94,3.72-3.73V84c0-2.79-.94-3.73-3.72-3.73H15.29c-5.55,0-8.73-3.18-8.73-8.73V11.62c0-5.55,3.18-8.73,8.73-8.73H120.68c5.55,0,8.73,3.18,8.73,8.73v9.9c0,5.54-3.18,8.72-8.73,8.72H46a1.37,1.37,0,0,0-.62.1,1.63,1.63,0,0,0-.08.6V52.18a1.8,1.8,0,0,0,0,.46,2.21,2.21,0,0,0,.65.07H102c17.93,0,27.41,9.48,27.41,27.41v35c0,18-9.48,27.58-27.41,27.58Z"/><path class="cls-2" d="M120.68,5.39q6.22,0,6.23,6.23v9.9q0,6.23-6.23,6.22H46a2.87,2.87,0,0,0-3.2,3.2V52.18c0,2.07,1.12,3,3.2,3H102q24.9,0,24.91,24.91v35c0,16.61-8.31,25.08-24.91,25.08H34c-16.61,0-24.91-8.47-24.91-25.08V102q0-6.23,6.23-6.23H36.52q6.24,0,6.23,6.23v9.42q0,6.22,6.23,6.23H87q6.23,0,6.22-6.23V84q0-6.24-6.22-6.23H15.29q-6.24,0-6.23-6.23V11.62q0-6.24,6.23-6.23H120.68m0-5H15.29C8.36.39,4.06,4.69,4.06,11.62V71.5c0,6.92,4.3,11.23,11.23,11.23H87a3.85,3.85,0,0,1,1.1.12A3.88,3.88,0,0,1,88.21,84v27.46a3.88,3.88,0,0,1-.12,1.11,3.85,3.85,0,0,1-1.1.12H49a3.94,3.94,0,0,1-1.11-.12,3.88,3.88,0,0,1-.12-1.11V102c0-6.93-4.3-11.23-11.23-11.23H15.29c-6.93,0-11.23,4.3-11.23,11.23v13.09c0,19.4,10.62,30.08,29.91,30.08h68c19.29,0,29.91-10.68,29.91-30.08v-35c0-19.29-10.62-29.91-29.91-29.91H47.75V32.74h72.93c6.93,0,11.23-4.3,11.23-11.22v-9.9c0-6.93-4.3-11.23-11.23-11.23Z"/><path class="cls-1" d="M141.12,142.67c-2.75,0-4.79-.82-6.08-2.44s-1.67-4-1-7L166.81,11c1.43-5.29,5-8.08,10.24-8.08h12.46c2.87,0,5,.84,6.26,2.51s1.55,4,.78,6.87L163.82,134.43c-1.22,5.28-4.86,8.24-10.24,8.24Z"/><path class="cls-2" d="M189.51,5.39c4.15,0,5.75,2.07,4.63,6.23L161.4,133.78c-1,4.15-3.51,6.39-7.82,6.39H141.12c-4.15,0-5.59-2.24-4.63-6.39L169.23,11.62c1.12-4.16,3.67-6.23,7.82-6.23h12.46m0-5H177.05c-6.43,0-10.93,3.52-12.65,9.93L131.66,132.48l0,.09,0,.08c-.87,3.75-.37,6.83,1.47,9.14,1.22,1.54,3.61,3.38,8,3.38h12.46c6.53,0,11.15-3.71,12.67-10.17L199,12.91c1-3.65.57-6.69-1.22-9-1.22-1.59-3.64-3.49-8.24-3.49Z"/><path class="cls-1" d="M228.47,142.67c-17.93,0-27.41-9.54-27.41-27.58V30.3c0-17.93,9.48-27.41,27.41-27.41h68c17.93,0,27.41,9.48,27.41,27.41v6.87c0,5.54-3.18,8.72-8.73,8.72H294.11c-5.65,0-8.89-3.18-8.89-8.72V34c0-2.79-.94-3.73-3.73-3.73h-38c-2.78,0-3.72.94-3.72,3.73V55.21a1.53,1.53,0,0,0,.09.62h0a2.08,2.08,0,0,0,.6.07H296.5c17.93,0,27.41,9.48,27.41,27.42v31.77c0,18-9.48,27.58-27.41,27.58Zm15-59.41c-2.78,0-3.72.94-3.72,3.73v24.43c0,2.79.94,3.73,3.72,3.73h38c2.79,0,3.73-.94,3.73-3.73V87c0-2.79-.94-3.73-3.73-3.73Z"/><path class="cls-2" d="M296.5,5.39q24.92,0,24.91,24.91v6.87q0,6.22-6.23,6.22H294.11c-4.32,0-6.39-2.07-6.39-6.22V34q0-6.22-6.23-6.23h-38q-6.22,0-6.22,6.23V55.21a2.86,2.86,0,0,0,3.19,3.19H296.5q24.92,0,24.91,24.92v31.77c0,16.61-8.3,25.08-24.91,25.08h-68c-16.6,0-24.91-8.47-24.91-25.08V30.3q0-24.91,24.91-24.91h68m-53,112.26h38q6.22,0,6.23-6.23V87q0-6.22-6.23-6.23h-38q-6.22,0-6.22,6.23v24.43q0,6.22,6.22,6.23M296.5.39h-68C209.18.39,198.56,11,198.56,30.3v84.79c0,19.4,10.62,30.08,29.91,30.08h68c19.29,0,29.91-10.68,29.91-30.08V83.32c0-19.29-10.62-29.92-29.91-29.92H242.26V34a3.85,3.85,0,0,1,.12-1.1,3.72,3.72,0,0,1,1.1-.13h38a3.81,3.81,0,0,1,1.11.13,3.85,3.85,0,0,1,.12,1.1v3.2c0,6.92,4.36,11.22,11.39,11.22h21.07c6.93,0,11.23-4.3,11.23-11.22V30.3C326.41,11,315.79.39,296.5.39ZM242.38,85.88a3.85,3.85,0,0,1,1.1-.12h38a3.94,3.94,0,0,1,1.11.12,3.94,3.94,0,0,1,.12,1.11v24.43a3.88,3.88,0,0,1-.12,1.11,3.94,3.94,0,0,1-1.11.12h-38a3.85,3.85,0,0,1-1.1-.12,3.88,3.88,0,0,1-.12-1.11V87a3.94,3.94,0,0,1,.12-1.11Z"/></svg>