<svg id="圖層_1" data-name="圖層 1" xmlns="http://www.w3.org/2000/svg" viewBox="0 0 458.97 144.39"><defs><style>.cls-1{fill:#231815;}.cls-2{fill:#fff;}</style></defs><title>date_8_13</title><path class="cls-1" d="M34.74,142.08c-17.93,0-27.41-9.53-27.41-27.57V98.38c0-10.95,3.26-19.75,9.69-26.2C10.59,65.6,7.33,56.81,7.33,46V29.72c0-17.93,9.48-27.41,27.41-27.41h68c17.93,0,27.41,9.48,27.41,27.41V46c0,11-3.12,19.63-9.53,26.17,6.33,6.39,9.53,15.19,9.53,26.2v16.13c0,18-9.48,27.57-27.41,27.57Zm15-56.21C47,85.87,46,86.81,46,89.6v21.24c0,2.79.94,3.73,3.72,3.73h38c2.79,0,3.73-.94,3.73-3.73V89.6c0-2.79-.94-3.73-3.73-3.73Zm0-56.21C47,29.66,46,30.6,46,33.39V54.63c0,2.79.94,3.73,3.72,3.73h38c2.79,0,3.73-.94,3.73-3.73V33.39c0-2.79-.94-3.73-3.73-3.73Z"/><path class="cls-2" d="M102.77,4.81q24.92,0,24.91,24.91V46c0,11.33-3.51,20-10.7,26.19,7.19,6.06,10.7,14.85,10.7,26.18v16.13c0,16.61-8.3,25.07-24.91,25.07h-68c-16.6,0-24.91-8.46-24.91-25.07V98.38c0-11.33,3.67-20.12,10.86-26.18C13.5,66,9.83,57.34,9.83,46V29.72q0-24.91,24.91-24.91h68m-53,56.05h38q6.22,0,6.23-6.23V33.39q0-6.23-6.23-6.23h-38q-6.22,0-6.22,6.23V54.63q0,6.23,6.22,6.23m0,56.21h38q6.22,0,6.23-6.23V89.6q0-6.22-6.23-6.23h-38q-6.22,0-6.22,6.23v21.24q0,6.22,6.22,6.23m53-117.26h-68C15.45-.19,4.83,10.43,4.83,29.72V46c0,10.56,3,19.33,8.79,26.15C7.78,78.89,4.83,87.69,4.83,98.38v16.13c0,19.39,10.62,30.07,29.91,30.07h68c19.29,0,29.91-10.68,29.91-30.07V98.38c0-10.75-2.9-19.54-8.64-26.22,5.74-6.76,8.64-15.54,8.64-26.15V29.72c0-19.29-10.62-29.91-29.91-29.91ZM48.65,32.28a3.85,3.85,0,0,1,1.1-.12h38a3.94,3.94,0,0,1,1.11.12A4,4,0,0,1,89,33.39V54.63a4,4,0,0,1-.12,1.11,3.94,3.94,0,0,1-1.11.12h-38a3.85,3.85,0,0,1-1.1-.12,4,4,0,0,1-.12-1.11V33.39a4,4,0,0,1,.12-1.11Zm0,56.21a4.28,4.28,0,0,1,1.1-.12h38a4.39,4.39,0,0,1,1.11.12A4,4,0,0,1,89,89.6v21.24a3.94,3.94,0,0,1-.12,1.11,3.94,3.94,0,0,1-1.11.12h-38a3.85,3.85,0,0,1-1.1-.12,3.94,3.94,0,0,1-.12-1.11V89.6a4,4,0,0,1,.12-1.11Z"/><path class="cls-1" d="M141.9,142.08c-2.75,0-4.8-.81-6.08-2.43s-1.68-4.05-1-7L167.59,10.39c1.42-5.29,5-8.08,10.24-8.08h12.45c2.88,0,5,.84,6.26,2.51s1.56,4,.79,6.86L164.59,133.84c-1.22,5.29-4.86,8.24-10.24,8.24Z"/><path class="cls-2" d="M190.28,4.81c4.15,0,5.75,2.07,4.63,6.22L162.18,133.2c-1,4.15-3.52,6.38-7.83,6.38H141.9c-4.16,0-5.59-2.23-4.63-6.38L170,11c1.12-4.15,3.67-6.22,7.83-6.22h12.45m0-5H177.83c-6.44,0-10.93,3.52-12.66,9.92L132.44,131.9l0,.09,0,.08c-.86,3.75-.37,6.83,1.47,9.14,1.23,1.54,3.62,3.37,8,3.37h12.45c6.53,0,11.15-3.7,12.68-10.17L199.74,12.33c1-3.65.58-6.69-1.22-9-1.22-1.6-3.64-3.49-8.24-3.49Z"/><path class="cls-1" d="M261.19,142.08c-5.47,0-8.73-3.32-8.73-8.88V30.36a1.22,1.22,0,0,0-.1-.62h0a1.7,1.7,0,0,0-.6-.08H236.11c-5.54,0-8.72-3.18-8.72-8.73V11c0-5.54,3.18-8.72,8.72-8.72H276c9.64,0,14.95,5.31,14.95,15V133.2c0,5.56-3.26,8.88-8.73,8.88Z"/><path class="cls-2" d="M276,4.81q12.45,0,12.45,12.45V133.2c0,4.15-2.07,6.38-6.23,6.38H261.19c-4.16,0-6.23-2.23-6.23-6.38V30.36a2.87,2.87,0,0,0-3.2-3.2H236.11q-6.23,0-6.22-6.23V11q0-6.22,6.22-6.22H276m0-5H236.11c-6.92,0-11.22,4.3-11.22,11.22v9.9c0,6.93,4.3,11.23,11.22,11.23H250v101c0,6.91,4.4,11.38,11.23,11.38h21.07c6.83,0,11.23-4.47,11.23-11.38V17.26C293.49,6.17,287.13-.19,276-.19Z"/><path class="cls-1" d="M356.2,142.08c-17.93,0-27.41-9.53-27.41-27.57V101.42c0-5.55,3.18-8.73,8.73-8.73h21.24c5.54,0,8.72,3.18,8.72,8.73v9.42c0,2.79.95,3.73,3.73,3.73h38c2.79,0,3.73-.94,3.73-3.73V89.6c0-2.79-.94-3.73-3.73-3.73H380.64c-5.55,0-8.73-3.18-8.73-8.72V67.08c0-5.54,3.18-8.72,8.73-8.72h28.58c2.79,0,3.73-.94,3.73-3.73V33.39c0-2.79-.94-3.73-3.73-3.73h-38c-2.78,0-3.73.94-3.73,3.73v9.42c0,5.55-3.18,8.73-8.72,8.73H337.52c-5.55,0-8.73-3.18-8.73-8.73V29.72c0-17.93,9.48-27.41,27.41-27.41h68c17.93,0,27.41,9.48,27.41,27.41V46c0,11-3.12,19.63-9.53,26.17,6.33,6.39,9.53,15.19,9.53,26.2v16.13c0,18-9.48,27.57-27.41,27.57Z"/><path class="cls-2" d="M424.23,4.81q24.91,0,24.91,24.91V46c0,11.33-3.51,20-10.7,26.19,7.19,6.06,10.7,14.85,10.7,26.18v16.13c0,16.61-8.3,25.07-24.91,25.07h-68c-16.61,0-24.91-8.46-24.91-25.07V101.42q0-6.23,6.23-6.23h21.24q6.23,0,6.23,6.23v9.42q0,6.22,6.22,6.23h38q6.22,0,6.23-6.23V89.6q0-6.22-6.23-6.23H380.63q-6.22,0-6.22-6.22V67.09q0-6.24,6.22-6.23h28.59q6.22,0,6.23-6.23V33.39q0-6.23-6.23-6.23h-38q-6.22,0-6.22,6.23v9.42Q365,49,358.76,49H337.52q-6.22,0-6.23-6.23V29.72q0-24.91,24.91-24.91h68m0-5h-68c-19.29,0-29.91,10.62-29.91,29.91V42.81c0,6.93,4.3,11.23,11.23,11.23h21.24c6.92,0,11.23-4.3,11.23-11.23V33.39a4,4,0,0,1,.12-1.11,3.85,3.85,0,0,1,1.1-.12h38a4,4,0,0,1,1.11.12,4,4,0,0,1,.12,1.11V54.63a4,4,0,0,1-.12,1.11,4,4,0,0,1-1.11.12H380.63c-6.92,0-11.22,4.3-11.22,11.23V77.15c0,6.92,4.3,11.22,11.22,11.22h28.59a4.46,4.46,0,0,1,1.11.12,4,4,0,0,1,.12,1.11v21.24a3.94,3.94,0,0,1-.12,1.11,4,4,0,0,1-1.11.12h-38a3.85,3.85,0,0,1-1.1-.12,3.94,3.94,0,0,1-.12-1.11v-9.42c0-6.93-4.31-11.23-11.23-11.23H337.52c-6.93,0-11.23,4.3-11.23,11.23v13.09c0,19.39,10.62,30.07,29.91,30.07h68c19.29,0,29.91-10.68,29.91-30.07V98.38c0-10.75-2.9-19.54-8.64-26.22,5.74-6.76,8.64-15.54,8.64-26.15V29.72c0-19.29-10.62-29.91-29.91-29.91Z"/></svg>