<svg id="圖層_1" data-name="圖層 1" xmlns="http://www.w3.org/2000/svg" viewBox="0 0 905.42 906.31"><defs><style>.cls-1{fill:#fff;}.cls-2{fill:#231815;}.cls-3{fill:#f8fcfe;}.cls-4{fill:#e9e4b7;}.cls-5{fill:#666135;}.cls-6{fill:#f6ab00;}.cls-7{fill:#8f6b1e;}.cls-8{fill:#543a00;}</style></defs><title>logo_rounded</title><path class="cls-1" d="M817.21,628.49c-38.36,78.93-100,141.72-176.73,181.08a68.63,68.63,0,0,0-126.63,36.72c0,1.25,0,2.51.1,3.75a396.52,396.52,0,0,1-56.85,4.08c-152.38,0-296-87.66-362.88-229.93A68.65,68.65,0,0,0,58.51,498.51C40.2,337.24,122.19,178.41,266.26,100.7A68.65,68.65,0,0,0,390.45,60.35c0-.8,0-1.58-.06-2.36a401.3,401.3,0,0,1,414,195.64A68.63,68.63,0,0,0,848.5,374.81c.44,0,.85,0,1.29,0C867.07,460.29,856,548.69,817.21,628.49Z"/><path class="cls-2" d="M457.1,861.23c-157.47,0-302.44-91.85-369.32-234l-2.6-5.53,5.08-3.4a61.53,61.53,0,0,0-32-112.66l-6.13-.21-.69-6.1C32.83,335.4,117.8,172.69,262.89,94.44l5.47-3,3.65,5A61.53,61.53,0,0,0,383.33,60.34L383.11,52l6.08-1A408.39,408.39,0,0,1,810.52,250.1l2.94,5.16-4.54,3.82A61.5,61.5,0,0,0,848.5,367.69l7-.28,1.25,5.95c17.75,87.83,6.28,177.13-33.15,258.24h0c-39,80.18-101.17,143.9-179.88,184.3l-5.77,3-3.48-5.48A61.53,61.53,0,0,0,521,846.29c0,1.14,0,2.28.09,3.4l.32,6.46-6.4.92A403.93,403.93,0,0,1,457.1,861.23ZM103.19,626.44C168.8,760.63,307.07,847,457.1,847a390.81,390.81,0,0,0,49.68-3.18,75.75,75.75,0,0,1,136-43.47c73.34-39.09,131.38-99.47,168.08-175h0c37.21-76.56,48.62-160.66,33.09-243.6a75.74,75.74,0,0,1-48.6-129.54A392.55,392.55,0,0,0,397.47,64.05a75.76,75.76,0,0,1-133,45.77C129.3,185.44,49.84,337.63,65,491.87a75.76,75.76,0,0,1,38.23,134.57Z"/><path class="cls-3" d="M718.32,294.7H195.26A305.35,305.35,0,0,1,356.79,164.28C493.69,116.94,644,171.73,718.32,294.7Z"/><path class="cls-4" d="M761.68,428.89H151.82a308.6,308.6,0,0,1,36.55-122.23h536.8a308.52,308.52,0,0,1,36.51,122.23Z"/><path class="cls-5" d="M699,640.05A306,306,0,0,1,362.57,744.31,308.51,308.51,0,0,1,214.89,640.59C282.18,633,516.4,610.34,699,640.05Z"/><path class="cls-2" d="M456.48,790.93a338.35,338.35,0,1,1,110.58-18.71A336.09,336.09,0,0,1,456.48,790.93ZM457,119.69a334.07,334.07,0,1,0,145.49,33.72A334.06,334.06,0,0,0,457,119.69Z"/><path class="cls-2" d="M733.92,297.77C658.78,163.51,498.51,102.61,352.86,153A317.24,317.24,0,0,0,179.64,297.77l-5,8.89H738.9ZM195.26,294.7A305.35,305.35,0,0,1,356.79,164.28C493.69,116.94,644,171.73,718.32,294.7Z"/><path class="cls-1" d="M655.1,269.06a8.32,8.32,0,0,1-.85,0,7.22,7.22,0,0,1-6.68-7,2.44,2.44,0,0,1,0-.27l-.84,0h-.6a20.53,20.53,0,0,1-20.77-20.44c0-.55,0-1.1,0-1.64a6.69,6.69,0,0,1-3.38,1.14h-.38a6.93,6.93,0,0,1-6.88-6.77c-.06-2.56-.08-4.89-.08-7.12a6.7,6.7,0,0,1,6.87-6.84h.3a6.37,6.37,0,0,1,3,.9h.62l3.41,0c4.18-.05,8.35-.12,12.53-.18l4.37-.08a7,7,0,0,1,1.49-4.07,6.18,6.18,0,0,1,4.58-2.3c1.5-.05,3-.08,4.52-.11h.12a6.71,6.71,0,0,1,1.1.09,6,6,0,0,1,1-.11c1.54,0,3.1,0,4.65,0a6.24,6.24,0,0,1,1,.08,7.14,7.14,0,0,1,1.48-.18c1.31,0,2.62-.06,3.93-.07a6.46,6.46,0,0,1,6.71,6.24h.33l17.74-.29c3.08-2,5.64-3.86,8-5.66a49.47,49.47,0,0,0,4.9-4.21,7.21,7.21,0,0,0,1.2-1.43,6.71,6.71,0,0,1,1.47-1.78,5.67,5.67,0,0,1,3.85-1.51h.23a5.64,5.64,0,0,1,3.88,1.76,6.12,6.12,0,0,1,1.7,2.79l.09.29a15.11,15.11,0,0,1,.59,2.65l0,.1c.25,2.13.52,4.33.67,6.58a162.18,162.18,0,0,1,.25,17.74,48.34,48.34,0,0,1-.79,7.84,20.13,20.13,0,0,1-.54,2l-.08.25a7.42,7.42,0,0,1-1,2.06,6.21,6.21,0,0,1-5,2.59,6.15,6.15,0,0,1-4.49-2,7.55,7.55,0,0,1-1.33-1.93,6.57,6.57,0,0,0-1.33-1.67,37.81,37.81,0,0,0-6-4.81c-.74-.48-1.48-1-2.23-1.43a20.75,20.75,0,0,1-16.52,20.65,24.09,24.09,0,0,1-4.5.4l-.93,0h-.37v.38a6.89,6.89,0,0,1-3,5.78,7.82,7.82,0,0,1-4.48,1.43,7.91,7.91,0,0,1-3.32-.74l-.07,0-.18.08a7.72,7.72,0,0,1-3.43.8,7.91,7.91,0,0,1-3.14-.65A7.69,7.69,0,0,1,655.1,269.06Zm-8.83-30.22A7.55,7.55,0,0,0,645,239c-.2.06-.67.18-1.28,1.15a2.47,2.47,0,0,0,.39,2.84,2.38,2.38,0,0,0,1.77.77l1.33,0-.08-4.92Zm29.59,4.33,2.17-.08a3.66,3.66,0,0,0,.76-.09,1.79,1.79,0,0,0,1-.81,2.1,2.1,0,0,0,.24-2.54,2.07,2.07,0,0,0-2.14-1.35q-.88,0-1.77,0h-.38Z"/><path d="M633.46,233.11l-10.64.18c0,.14,0,.34,0,.55a1.32,1.32,0,0,1-1.12,1.32,1.24,1.24,0,0,1-1.27-1.21q-.07-3.51-.08-7a1.08,1.08,0,0,1,1.28-1.15,1,1,0,0,1,.8.52.86.86,0,0,0,.84.38c1.91,0,3.82,0,5.73,0l12.55-.18,10.44-.19.67,0c0-.6,0-1.19,0-1.78s0-1.23,0-1.84c0-.25-.06-.39-.35-.38a.73.73,0,0,1-.43-.19,1.55,1.55,0,0,1-.13-1.83.53.53,0,0,1,.35-.2c1.48-.05,3-.09,4.45-.11a.66.66,0,0,1,.63.44,1.74,1.74,0,0,1,.09,1.19.83.83,0,0,1-1,.65c0,1.35.05,2.68.07,4l2.9-.05c0-1.3-.06-2.62-.08-4,0,0,0,0,0,0a.87.87,0,0,1-.95-.55,1.44,1.44,0,0,1,.11-1.47.67.67,0,0,1,.44-.24c1.52,0,3-.05,4.54-.05a.5.5,0,0,1,.34.21,1.53,1.53,0,0,1,.05,1.62.87.87,0,0,1-.81.42l.06,4,3.13-.12c0-1.24-.05-2.56-.08-3.94,0,0,0,0,0,0-.83-.1-1.17-.57-1.06-1.43.1-.68.27-.86.95-.88,1.27,0,2.55-.05,3.82-.06.7,0,1,.25,1,1a2.54,2.54,0,0,1-.14.86c-.14.43-.54.46-.86.49,0,1.35,0,2.68,0,4.06.63,0,1.26-.05,1.9-.06l24.18-.4a1.19,1.19,0,0,0,.61-.17c3.22-2.11,6.39-4.29,9.45-6.64a57.71,57.71,0,0,0,5.44-4.67,12.46,12.46,0,0,0,2.15-2.7c.08-.15.25-.25.37-.38.13.14.31.27.36.44a13.6,13.6,0,0,1,.51,2.07c.25,2.12.51,4.25.65,6.38a157.71,157.71,0,0,1,.25,17.12A43.64,43.64,0,0,1,715,244a16.24,16.24,0,0,1-.47,1.65,1.66,1.66,0,0,1-.25.45.48.48,0,0,1-.77.07,2.42,2.42,0,0,1-.36-.54,12.14,12.14,0,0,0-2.41-3.19,43.41,43.41,0,0,0-6.93-5.54c-2.32-1.53-4.7-3-7.06-4.42a.79.79,0,0,0-.39-.13l-6,.1-.15,0c.06.12.12.21.18.31a14.84,14.84,0,0,1-9.66,22.52,26.39,26.39,0,0,1-4.46.31c-1.85.07-3.71.08-5.56.11l-.29,0c0,.13,0,.24,0,.36l0,5.6a1.28,1.28,0,0,1-.62,1.1,2.09,2.09,0,0,1-2.19.19,1.43,1.43,0,0,1-.91-1.33c0-1.83-.1-3.66-.15-5.5,0-.11,0-.21,0-.31l-3.17.09c0,.43.06.94.06,1.44,0,1.44,0,2.88,0,4.31a1.47,1.47,0,0,1-.93,1.42,2.14,2.14,0,0,1-2.39-.37,1.26,1.26,0,0,1-.33-.72c-.07-1.36-.11-2.74-.15-4.11,0-.66,0-1.31,0-1.94l-2.78,0c0,.88,0,1.79,0,2.7s0,1.88,0,2.83a1.75,1.75,0,0,1-2.13,1.87,1.57,1.57,0,0,1-1.57-1.61c-.07-1.79-.1-3.6-.15-5.39a2.94,2.94,0,0,1,0-.37h-1.37c-1.72,0-3.45,0-5.17.08a14.75,14.75,0,0,1-10-3.23,14.78,14.78,0,0,1-3.46-19.27C633.26,233.41,633.37,233.25,633.46,233.11ZM670.29,249h.14c2.61-.08,5.22-.16,7.83-.27a8.56,8.56,0,0,0,2-.28,7.49,7.49,0,0,0,4.17-3,8.09,8.09,0,0,0-6.33-12.84c-2.4-.09-4.81,0-7.21,0H670C670.11,238.15,670.2,243.56,670.29,249Zm-17.64-15.89c-2.17,0-4.34,0-6.52,0a11.54,11.54,0,0,0-2.63.31,7.84,7.84,0,0,0-4.62,3.59,8.13,8.13,0,0,0,6.84,12.32c2.37.05,4.74,0,7.11,0l.09,0C652.83,243.91,652.74,238.49,652.65,233.12ZM666.46,249v-.27q-.11-6.63-.23-13.27c0-.8,0-1.6-.07-2.4,0-.09-.11-.24-.17-.24-1,0-1.93,0-3,0,.12,5.45.24,10.85.36,16.28Zm-7,.24c-.08-5.47-.17-10.9-.26-16.32l-2.52,0q.06,8.12.13,16.28Z"/><path class="cls-1" d="M257.82,269.06a7.66,7.66,0,0,1-3.35-.74,8,8,0,0,1-3.14.65,7.79,7.79,0,0,1-3.44-.8l-.17-.08-.08,0a7.75,7.75,0,0,1-7.79-.69,6.92,6.92,0,0,1-3-5.78v-.38l-.37,0-.92,0a24.09,24.09,0,0,1-4.5-.4,20.78,20.78,0,0,1-16.53-20.65l-2.22,1.43a37.36,37.36,0,0,0-6,4.81,6.73,6.73,0,0,0-1.34,1.68,7.9,7.9,0,0,1-1.32,1.92,6.14,6.14,0,0,1-9.5-.62,7.1,7.1,0,0,1-1.06-2.07l-.08-.24a20.4,20.4,0,0,1-.54-2,48.26,48.26,0,0,1-.8-7.84,162.17,162.17,0,0,1,.26-17.74c.15-2.23.41-4.42.66-6.53l0-.15a16.37,16.37,0,0,1,.6-2.66l.08-.29a6.31,6.31,0,0,1,1.71-2.79,5.65,5.65,0,0,1,3.89-1.75H199a5.66,5.66,0,0,1,3.87,1.52,6.58,6.58,0,0,1,1.46,1.77,6.75,6.75,0,0,0,1.19,1.43,50.52,50.52,0,0,0,4.9,4.2c2.36,1.81,4.92,3.63,8,5.67l17.71.29h.35a6.45,6.45,0,0,1,6.65-6.24c1.38,0,2.69,0,4,.07a7.14,7.14,0,0,1,1.48.18,6.22,6.22,0,0,1,1-.08c1.56,0,3.11,0,4.66,0a6.13,6.13,0,0,1,1.05.11,6.5,6.5,0,0,1,1.09-.09h.12c1.51,0,3,.06,4.52.11a6.22,6.22,0,0,1,4.57,2.31,6.88,6.88,0,0,1,1.49,4.06l4.38.08c4.17.06,8.35.13,12.53.18l3.4,0H288a6.37,6.37,0,0,1,3.05-.9h.3a6.71,6.71,0,0,1,6.88,6.83c0,2.22,0,4.55-.08,7.13a6.94,6.94,0,0,1-6.88,6.77h-.38a6.73,6.73,0,0,1-3.39-1.14c0,.54.06,1.09.05,1.64a20.53,20.53,0,0,1-20.77,20.44h-.6l-.84,0V262a7.23,7.23,0,0,1-6.69,7A8.13,8.13,0,0,1,257.82,269.06Zm7.94-25.32,1.32,0a2.37,2.37,0,0,0,1.77-.77,2.47,2.47,0,0,0,.4-2.84c-.62-1-1.08-1.09-1.28-1.15a7.69,7.69,0,0,0-1.33-.12l-.8,0Zm-29-5.47q-.88,0-1.77,0a2.44,2.44,0,0,0-1.9,3.89,1.8,1.8,0,0,0,1,.81,3.53,3.53,0,0,0,.76.09l2.17.08.08-4.89Z"/><path d="M279.76,233.58a14.81,14.81,0,0,1-3.46,19.27,14.75,14.75,0,0,1-10,3.23c-1.73,0-3.45-.05-5.17-.08H259.8c0,.15,0,.26,0,.37,0,1.79-.08,3.6-.15,5.39a1.58,1.58,0,0,1-1.58,1.61,1.74,1.74,0,0,1-2.12-1.87c0-.95,0-1.89,0-2.83s0-1.82,0-2.7l-2.78,0c0,.63,0,1.28,0,1.94,0,1.37-.07,2.75-.14,4.11a1.34,1.34,0,0,1-.34.72,2.12,2.12,0,0,1-2.38.37,1.49,1.49,0,0,1-.94-1.42c0-1.43,0-2.87,0-4.31,0-.5,0-1,.06-1.44l-3.16-.09c0,.1,0,.2,0,.31-.06,1.84-.11,3.67-.16,5.5a1.4,1.4,0,0,1-.91,1.33,2.07,2.07,0,0,1-2.18-.19,1.28,1.28,0,0,1-.62-1.1c0-1.87,0-3.73,0-5.6,0-.12,0-.23,0-.36l-.29,0c-1.85,0-3.71,0-5.56-.11a26.32,26.32,0,0,1-4.46-.31,14.84,14.84,0,0,1-9.66-22.52l.18-.31-.15,0-6-.1a.86.86,0,0,0-.4.13c-2.35,1.46-4.73,2.89-7.05,4.42a43,43,0,0,0-6.93,5.54,12.14,12.14,0,0,0-2.41,3.19,2.46,2.46,0,0,1-.37.54.47.47,0,0,1-.76-.07,2,2,0,0,1-.26-.45c-.17-.55-.35-1.09-.47-1.65a43.63,43.63,0,0,1-.68-6.94,155.21,155.21,0,0,1,.24-17.12c.15-2.13.41-4.26.66-6.38a13.6,13.6,0,0,1,.51-2.07c0-.17.23-.3.35-.44a2.28,2.28,0,0,1,.38.38,12.46,12.46,0,0,0,2.15,2.7,57.71,57.71,0,0,0,5.44,4.67c3,2.35,6.22,4.53,9.45,6.64a1.17,1.17,0,0,0,.61.17l24.18.4,1.9.06c0-1.38,0-2.71,0-4.06-.31,0-.71-.06-.85-.49a2.54,2.54,0,0,1-.14-.86c0-.71.32-1,1-1l3.82.06c.67,0,.85.2.94.88a1.09,1.09,0,0,1-1.05,1.43h0c0,1.38-.06,2.7-.08,3.94l3.13.12.06-4a.86.86,0,0,1-.81-.42,1.53,1.53,0,0,1,0-1.62.55.55,0,0,1,.34-.21c1.52,0,3,0,4.54.05a.65.65,0,0,1,.44.24,1.42,1.42,0,0,1,.12,1.47.87.87,0,0,1-.95.55s0,0,0,0c0,1.37-.06,2.69-.08,4l2.89.05c0-1.31.05-2.64.08-4a.82.82,0,0,1-1-.65,1.74,1.74,0,0,1,.09-1.19.66.66,0,0,1,.63-.44c1.48,0,3,.06,4.44.11a.53.53,0,0,1,.35.2,1.55,1.55,0,0,1-.12,1.83.73.73,0,0,1-.44.19c-.29,0-.34.13-.35.38,0,.61,0,1.23,0,1.84s0,1.18,0,1.78l.67,0,10.44.19,12.55.18c1.91,0,3.82,0,5.73,0a.86.86,0,0,0,.84-.38,1,1,0,0,1,.79-.52,1.09,1.09,0,0,1,1.29,1.15q0,3.51-.08,7a1.25,1.25,0,0,1-1.27,1.21,1.3,1.3,0,0,1-1.12-1.32c0-.21,0-.41,0-.55l-10.65-.18C279.55,233.25,279.66,233.41,279.76,233.58Zm-36.86-.91H242c-2.41,0-4.81-.13-7.22,0a8.09,8.09,0,0,0-6.33,12.84,7.55,7.55,0,0,0,4.18,3,8.55,8.55,0,0,0,2,.28c2.61.11,5.22.19,7.84.27h.14C242.72,243.56,242.81,238.15,242.9,232.67ZM260,249.35l.09,0c2.37,0,4.74.07,7.11,0a8.05,8.05,0,0,0,5.61-2.38,8.14,8.14,0,0,0,1.23-9.94,7.84,7.84,0,0,0-4.62-3.59,11.69,11.69,0,0,0-2.64-.31c-2.17,0-4.34,0-6.52,0C260.18,238.49,260.09,243.91,260,249.35Zm-10.49-.24c.12-5.43.24-10.83.36-16.28-1,0-2,0-2.94,0-.06,0-.17.15-.17.24,0,.8-.06,1.6-.08,2.4q-.12,6.63-.23,13.27c0,.11,0,.22,0,.27Zm6.64.11q.06-8.17.13-16.28l-2.52,0c-.09,5.42-.18,10.85-.27,16.32Z"/><path class="cls-6" d="M607.83,235.22a52.86,52.86,0,0,1-97.4,28.48l-5-7.86-5,7.86a52.85,52.85,0,0,1-88.5.87l-5-7.43-5,7.43a52.86,52.86,0,1,1,0-58.7l5,7.43,5-7.43a52.86,52.86,0,0,1,88.5.88l5,7.85,5-7.85a52.86,52.86,0,0,1,97.4,28.47Z"/><path class="cls-2" d="M555,170.4a64.55,64.55,0,0,0-49.56,23,64.81,64.81,0,0,0-98.5-.73,64.82,64.82,0,1,0,0,85,64.81,64.81,0,0,0,98.5-.73A64.82,64.82,0,1,0,555,170.4Zm0,117.69a52.66,52.66,0,0,1-44.52-24.39l-5-7.86-5,7.86a52.85,52.85,0,0,1-88.5.87l-5-7.43-5,7.43a52.86,52.86,0,1,1,0-58.7l5,7.43,5-7.43a52.86,52.86,0,0,1,88.5.88l5,7.85,5-7.85A52.86,52.86,0,1,1,555,288.09Z"/><path class="cls-2" d="M364.7,230.06l23.06,22.21,22.63,9.65-27.24,20.53-28.09-35.62L314,282l25.57-48.62-21.79-2.09-10.06-13,38.14-7.13,6.71-30.59,16.77,10.9.83,20.95,27.25-5.87,12.15,21Z"/><path class="cls-2" d="M432.78,192.33l68.32-5-9.22,37.31v57.84L466.73,272l-47.79,5.86-1.67-39.4-5.45-48.62Zm38.14,42.34,2.93-8.38-41.07,4.61,2.09,7.54Zm-34.79,26,37.72-2.52-1.25-10.48L432.78,254ZM473,213.29l1.25-8.8L434,207.84l3.36,8Z"/><path class="cls-2" d="M603.55,220.42,591,235.93,575,228l3.78,9.22,16.76,1.26,2.52,8-21.38,2.51,1.26,4.61,19.7,1.68,5,8-23.05,2.52-4.62,13-10,3.77-5-14.67-20.13-1.25,4.62-15.09-4.2-4.61L530.61,269l-7.12-9.22-5,18-8.81,4.61-4.19-65.81-4.19-25.14,10.48.83,29.34-4.61-9.22,36.89,5.45,7.54,19.28-18.44L550.73,212l-15.09,5,22.22-36.46,11.32,12.15,16.76-5.45,13,15.93-19.28,11.32,10.89,3.77Zm-88-13.84,3.35,13.84,5-4.61.84-15.51ZM518.87,251l9.65-2.94-3.36-13.41-6.29-1.26Zm44.86-22.22,9.64-3.35-5.87-3.78-27.67,11.74,1.68,5.87,18.86-4.19Zm-2.52,27.25,1.26-9.22-13,.83,4.61,9.23Zm8-44,10.89-11.31-21,1.25Z"/><path class="cls-1" d="M380.63,715.89V705.45l20-37.74a13.65,13.65,0,0,0,1.74-5,51.45,51.45,0,0,0,.22-5.27c0-.94,0-1.94-.05-3a7.33,7.33,0,0,0-.6-2.77,4.68,4.68,0,0,0-4.79-2.83,5,5,0,0,0-5.44,5.54v6.31H380.63v-6.09a16.45,16.45,0,0,1,1.31-6.53,16.76,16.76,0,0,1,3.59-5.32,16.14,16.14,0,0,1,5.22-3.65,15.9,15.9,0,0,1,6.52-1.36,16.29,16.29,0,0,1,7.45,1.58,14.77,14.77,0,0,1,5.16,4.3,18.7,18.7,0,0,1,2.89,6.2,28.94,28.94,0,0,1,.92,7.39c0,1.88,0,3.46-.11,4.73a29.49,29.49,0,0,1-.43,3.64,15.9,15.9,0,0,1-1.09,3.48q-.76,1.75-2.07,4.24l-16.31,31.43h20v11.1Z"/><path class="cls-1" d="M421.09,654.44a16.85,16.85,0,0,1,1.36-7,16.33,16.33,0,0,1,3.64-5.22,15.63,15.63,0,0,1,5.27-3.31,17.59,17.59,0,0,1,12.51,0,15.63,15.63,0,0,1,5.27,3.31,16.51,16.51,0,0,1,3.65,5.22,17,17,0,0,1,1.35,7V699.9a17,17,0,0,1-1.35,7,16.4,16.4,0,0,1-3.65,5.22,15.81,15.81,0,0,1-5.27,3.32,17.73,17.73,0,0,1-12.51,0,15.81,15.81,0,0,1-5.27-3.32,16.22,16.22,0,0,1-3.64-5.22,16.85,16.85,0,0,1-1.36-7Zm11.09,45.46a5.47,5.47,0,0,0,1.52,4,5.64,5.64,0,0,0,7.83,0,5.51,5.51,0,0,0,1.52-4V654.44a5.53,5.53,0,0,0-1.52-4,5.67,5.67,0,0,0-7.83,0,5.49,5.49,0,0,0-1.52,4Z"/><path class="cls-1" d="M461.54,715.89V705.45l20-37.74a14,14,0,0,0,1.74-5c.14-1.41.22-3.17.22-5.27,0-.94,0-1.94-.06-3a7.33,7.33,0,0,0-.6-2.77,5.06,5.06,0,0,0-1.63-2,5.19,5.19,0,0,0-3.15-.81,5,5,0,0,0-5.44,5.54v6.31H461.54v-6.09a16.44,16.44,0,0,1,1.3-6.53,16.93,16.93,0,0,1,3.59-5.32,16.24,16.24,0,0,1,5.22-3.65,16,16,0,0,1,6.53-1.36,16.29,16.29,0,0,1,7.45,1.58,15,15,0,0,1,5.16,4.3,18.49,18.49,0,0,1,2.88,6.2,28.5,28.5,0,0,1,.93,7.39c0,1.88,0,3.46-.11,4.73a29.49,29.49,0,0,1-.43,3.64,16.45,16.45,0,0,1-1.09,3.48q-.77,1.75-2.07,4.24l-16.31,31.43h20v11.1Z"/><path class="cls-1" d="M515.15,671.08q5,0,6.91-1.2c1.26-.79,1.9-2.64,1.9-5.54v-10a5.39,5.39,0,0,0-1.47-3.91,5.24,5.24,0,0,0-4-1.52,4.71,4.71,0,0,0-4.19,1.84,6.48,6.48,0,0,0-1.24,3.59v6.31H502v-6.42a16.12,16.12,0,0,1,1.31-6.41,15.5,15.5,0,0,1,3.59-5.22,17.76,17.76,0,0,1,5.32-3.48,16.42,16.42,0,0,1,6.53-1.31,14.49,14.49,0,0,1,7.56,1.8,17.45,17.45,0,0,1,4.51,3.64,25.43,25.43,0,0,1,1.91,2.61,12.68,12.68,0,0,1,1.35,3.16,43.41,43.41,0,0,1,1,10.65q0,4-.16,6.53a13.51,13.51,0,0,1-.82,4.13,8.28,8.28,0,0,1-2.12,2.94,25.43,25.43,0,0,1-3.75,2.61,21,21,0,0,1,4,3,9,9,0,0,1,2,3.26,16.63,16.63,0,0,1,.76,4.62q.1,2.67.11,6.8,0,3.81-.16,6.31a32.17,32.17,0,0,1-.49,4.13,13.23,13.23,0,0,1-.87,2.94,18,18,0,0,1-1.41,2.5,17.72,17.72,0,0,1-5.28,5.06,15.7,15.7,0,0,1-8.43,2,19.47,19.47,0,0,1-5.54-.87,15.15,15.15,0,0,1-5.33-2.83,15.34,15.34,0,0,1-4-5.11A17.16,17.16,0,0,1,502,700V693.7h11.1v5.76a6.32,6.32,0,0,0,1.46,4.3,5.51,5.51,0,0,0,7.94,0,6.64,6.64,0,0,0,1.47-4.51v-11.1q0-4.56-1.74-6a4.79,4.79,0,0,0-2.66-1.08,35,35,0,0,0-4.41-.22Z"/><rect class="cls-1" x="284.37" y="649.45" width="76.64" height="5.66"/><rect class="cls-1" x="304.46" y="675.19" width="56.54" height="5.66"/><rect class="cls-1" x="331.09" y="704.39" width="29.92" height="5.66"/><rect class="cls-1" x="549.86" y="649.45" width="76.64" height="5.66"/><rect class="cls-1" x="549.86" y="675.19" width="56.54" height="5.66"/><rect class="cls-1" x="549.86" y="704.39" width="29.92" height="5.66"/><path class="cls-2" d="M774.05,434.53a320.19,320.19,0,0,0-40.13-136.76l-1.69-3.07H181.36l-1.72,3.07a320.18,320.18,0,0,0-40.19,136.76l-.38,6.31H774.43Zm-622.23-5.64a308.6,308.6,0,0,1,36.55-122.23h536.8a308.52,308.52,0,0,1,36.51,122.23Z"/><path class="cls-2" d="M774.05,434.53l-.34-5.64H139.79l-.34,5.64A319.11,319.11,0,0,0,199,639.35l2.07,2.85,3.49-.42c50-6,309.22-34.15,504-.12l3.69.64,2.19-3A318.92,318.92,0,0,0,774.05,434.53ZM706.92,629.25c-191.75-32.62-442.69-6.5-500.22.26a307.17,307.17,0,0,1-55.59-188.67H762.39A306.85,306.85,0,0,1,706.92,629.25Z"/><path class="cls-7" d="M706.92,629.25c-191.75-32.62-442.69-6.5-500.22.26a307.17,307.17,0,0,1-55.59-188.67H762.39A306.85,306.85,0,0,1,706.92,629.25Z"/><path class="cls-2" d="M710.65,629.89c-196.42-34.32-457.2-6-507.47,0l-10.07,1.19,5.92,8.23A320.22,320.22,0,0,0,358.88,755.68,317.85,317.85,0,0,0,714.47,639.27l5.58-7.75ZM556.71,742.35a302.93,302.93,0,0,1-194.14,2A308.51,308.51,0,0,1,214.89,640.59c67.29-7.61,301.51-30.25,484.1-.54A303.63,303.63,0,0,1,556.71,742.35Z"/><path class="cls-8" d="M251.79,486.62H234.94V556.1H198.12V486.62H181.27V456.71l14.33,0q11.06,0,21.38,0l19.59,0,15.22,0Z"/><path class="cls-8" d="M336.41,553.69l-36.26,3.53c-.24-3.07-.53-6.49-.85-10.25s-.68-7.25-1.06-10.46H288.11c-.31,3.16-.64,6.68-1,10.54s-.68,7.25-.92,10.17l-35.88-3.9q2.76-11.51,10.36-45.52t11.54-51.09h42.39q4.31,18.1,11.8,51.94T336.41,553.69Zm-40-37.67c-.53-3.65-1-8.78-1.47-15.41s-.91-11.72-1.34-15.27l-.74-.1q-.68,5.34-1.46,15.46T290,516v.15h6.42Z"/><path class="cls-8" d="M417.91,459q-1.49,6.76-9.61,42.63t-12.36,54.65H356.15q-3.86-18.27-9-40.69T333.88,459l36.3-3.08q.6,5.06,2.45,26.43t3.27,33.25h.82q1.69-12.32,3.48-33.58t2.23-26.17Z"/><path class="cls-8" d="M503.42,506.44a78.62,78.62,0,0,1-2.86,21.49,42,42,0,0,1-9.76,17.56,36.46,36.46,0,0,1-13.47,9.5,47.24,47.24,0,0,1-33.44-.34,35.18,35.18,0,0,1-13.66-9.9,45.91,45.91,0,0,1-9.42-17.52,82.18,82.18,0,0,1,.14-42.16,47.6,47.6,0,0,1,9.65-17.67,33.27,33.27,0,0,1,12.88-9.24A44.73,44.73,0,0,1,460.67,455a45.19,45.19,0,0,1,16.4,2.9,39.09,39.09,0,0,1,14,9.57,40.86,40.86,0,0,1,9.46,17A78.78,78.78,0,0,1,503.42,506.44Zm-37.19,0c0-3.32-.13-6.91-.41-10.78a72.94,72.94,0,0,0-1.46-10.56,9.44,9.44,0,0,0-1.49-3.15,2.67,2.67,0,0,0-2.17-1,2.94,2.94,0,0,0-2.28,1,8.84,8.84,0,0,0-1.53,3.34,43.72,43.72,0,0,0-1.42,9.52q-.45,6.54-.44,11.6c0,4,.14,7.73.44,11.15s.78,6.84,1.42,10.26a10.54,10.54,0,0,0,1.57,3,2.71,2.71,0,0,0,2.17,1.11,2.64,2.64,0,0,0,2.24-1.11,11.39,11.39,0,0,0,1.49-3,99.67,99.67,0,0,0,1.42-10.22Q466.23,512.36,466.23,506.48Z"/><path class="cls-8" d="M572.38,525.07q-1.18,7.57-2,15.44t-1.82,16.71h-4.08q-14.1,0-24-3.12a50.91,50.91,0,0,1-18.63-10.85,41.74,41.74,0,0,1-11.65-16,55.14,55.14,0,0,1-3.64-20.72,52.58,52.58,0,0,1,5.31-23.7A42.21,42.21,0,0,1,526.28,466a55.27,55.27,0,0,1,18.86-8.21,91.85,91.85,0,0,1,20-2.19h3.12q.6,5.34,1.56,14.69t2.3,17.52c-.49,0-1.07,0-1.74,0s-1.28,0-1.82,0q-2.37.23-6.53,1a31,31,0,0,0-7.28,2.16,22.15,22.15,0,0,0-8.27,6.51,14.57,14.57,0,0,0-3,9q0,6.4,3,9.93a19.39,19.39,0,0,0,7.72,5.47,42.35,42.35,0,0,0,7.24,2.12,40.27,40.27,0,0,0,6.86.93c.89,0,1.7.07,2.41.07Z"/><path class="cls-8" d="M659.08,553.69l-36.26,3.53c-.24-3.07-.53-6.49-.85-10.25s-.68-7.25-1.06-10.46H610.78c-.31,3.16-.64,6.68-1,10.54s-.67,7.25-.91,10.17L573,553.32q2.74-11.51,10.36-45.52t11.54-51.09h42.38q4.31,18.1,11.81,51.94T659.08,553.69Zm-40-37.67c-.52-3.65-1-8.78-1.47-15.41s-.91-11.72-1.34-15.27l-.74-.1q-.68,5.34-1.46,15.46T612.65,516v.15h6.43Z"/><path class="cls-8" d="M742.06,456.71q0,14.93,0,27.54t0,19.37q0,7.58.07,24.39t.08,25.49l-31.4,3.72q-4.46-9-8.8-19.38t-6.42-16.48l-.52.3V556.1H661.08q-.08-6.45,0-19.63t.11-31.66q0-8.54,0-20.82t-.11-24.68l31.77-3.71a120.07,120.07,0,0,0,6.24,17.22q3.93,8.83,8.53,17.81l.37-.22v-33.7Z"/><path class="cls-1" d="M238.84,476.9H222v69.48H185.17V476.9H168.32V447l14.33,0q11.06,0,21.38,0,7.13,0,19.59,0l15.22,0Z"/><path class="cls-1" d="M323.46,544l-36.26,3.52c-.24-3.06-.52-6.48-.85-10.24s-.68-7.25-1.05-10.47H275.16q-.45,4.76-1,10.54c-.38,3.86-.68,7.25-.92,10.17l-35.87-3.9q2.74-11.49,10.35-45.52T259.25,447h42.39q4.31,18.11,11.8,51.94T323.46,544Zm-40-37.67q-.78-5.48-1.47-15.42t-1.34-15.26l-.74-.1q-.66,5.34-1.46,15.46T277,506.3v.14h6.42Z"/><path class="cls-1" d="M405,449.25q-1.48,6.76-9.61,42.62T383,546.53H343.2q-3.85-18.27-9-40.7t-13.25-56.58l36.29-3.08q.6,5.06,2.45,26.43T363,505.85h.82q1.69-12.32,3.49-33.59t2.22-26.16Z"/><path class="cls-1" d="M490.47,496.72a79.06,79.06,0,0,1-2.85,21.49,42.12,42.12,0,0,1-9.77,17.55,36.32,36.32,0,0,1-13.47,9.51,47.24,47.24,0,0,1-33.44-.34A35.25,35.25,0,0,1,417.28,535a45.76,45.76,0,0,1-9.42-17.52,82.32,82.32,0,0,1,.15-42.16,47.5,47.5,0,0,1,9.65-17.66,33.28,33.28,0,0,1,12.87-9.25,48.23,48.23,0,0,1,33.59-.26,39.12,39.12,0,0,1,14,9.58,40.8,40.8,0,0,1,9.46,17A78.36,78.36,0,0,1,490.47,496.72Zm-37.18,0q0-5-.42-10.78a74.22,74.22,0,0,0-1.45-10.56,9.69,9.69,0,0,0-1.5-3.16,2.69,2.69,0,0,0-2.17-1,2.87,2.87,0,0,0-2.27,1,8.68,8.68,0,0,0-1.54,3.34,43.62,43.62,0,0,0-1.42,9.52q-.43,6.54-.44,11.59c0,4,.15,7.73.44,11.15s.78,6.84,1.42,10.26a10.73,10.73,0,0,0,1.57,3,2.71,2.71,0,0,0,2.17,1.11,2.64,2.64,0,0,0,2.24-1.11,11.69,11.69,0,0,0,1.5-3.05,102.51,102.51,0,0,0,1.42-10.22Q453.29,502.63,453.29,496.76Z"/><path class="cls-1" d="M559.43,515.35q-1.18,7.57-2,15.44t-1.82,16.7h-4.08q-14.1,0-24-3.12a50.88,50.88,0,0,1-18.63-10.84,41.81,41.81,0,0,1-11.65-16,55.18,55.18,0,0,1-3.64-20.72,52.55,52.55,0,0,1,5.31-23.7,42.25,42.25,0,0,1,14.44-16.79,55.11,55.11,0,0,1,18.85-8.2,92,92,0,0,1,20-2.2h3.11q.6,5.36,1.56,14.7t2.3,17.52c-.49,0-1.07,0-1.74,0l-1.82,0c-1.58.15-3.76.48-6.53,1a30.66,30.66,0,0,0-7.28,2.16,22,22,0,0,0-8.27,6.51,14.55,14.55,0,0,0-3,9q0,6.41,3,9.93a19.39,19.39,0,0,0,7.72,5.47,42.35,42.35,0,0,0,7.24,2.12,40.4,40.4,0,0,0,6.86.93c.89.05,1.7.07,2.42.07Z"/><path class="cls-1" d="M646.13,544l-36.26,3.52c-.24-3.06-.52-6.48-.85-10.24s-.68-7.25-1.06-10.47H597.83c-.31,3.17-.64,6.68-1,10.54s-.68,7.25-.92,10.17L560,543.59q2.76-11.49,10.36-45.52T581.92,447h42.39q4.31,18.11,11.8,51.94T646.13,544Zm-40-37.67q-.78-5.48-1.47-15.42t-1.34-15.26l-.74-.1q-.67,5.34-1.46,15.46t-1.39,15.32v.14h6.42Z"/><path class="cls-1" d="M729.12,447q0,14.91,0,27.54t0,19.37q0,7.58.08,24.38t.07,25.5l-31.4,3.71q-4.45-9-8.79-19.37t-6.42-16.48l-.52.3v34.44H648.13q-.07-6.46,0-19.63t.11-31.66q0-8.54,0-20.82t-.11-24.69l31.77-3.71a119.74,119.74,0,0,0,6.24,17.23q3.93,8.83,8.53,17.81l.38-.22V447Z"/><path class="cls-2" d="M564.11,838.54l14.39,41.59c.82,2.38.07,4.07-2.31,4.9L564,889.24c-2.38.83-4,0-4.83-2.43l-24.25-70.08c-.82-2.38,0-4,2.34-4.81l14-4.85c2.38-.82,4.62-.26,6.82,1.64l39.49,32.91L583.2,800c-.82-2.38,0-4,2.43-4.84L597.72,791q3.59-1.25,4.81,2.33l24.25,70.09c.82,2.38.07,4.07-2.31,4.9l-13.93,4.81c-2.38.83-4.75.21-6.94-1.7Z"/><path class="cls-2" d="M84.67,522.51l2,5.68c.82,2.38,0,4-2.34,4.81L41.42,547.83a1.74,1.74,0,0,0-1.19,2.47l5.45,15.75a1.67,1.67,0,0,0,2.43,1.11l41.13-14.23q3.58-1.23,4.81,2.34l2,5.77c.82,2.38,0,4-2.34,4.81L52.58,580.08a1.67,1.67,0,0,0-1.23,2.37l5.45,15.76a1.74,1.74,0,0,0,2.46,1.2l42.88-14.83c2.38-.83,4-.05,4.81,2.34l2,5.68c.83,2.38.08,4.07-2.3,4.9L46.14,618.41c-2.38.83-4,0-4.84-2.43L17.06,545.9c-.82-2.38,0-4,2.34-4.81l60.46-20.91C82.24,519.35,83.85,520.13,84.67,522.51Z"/><path class="cls-2" d="M360,59.63,365.68,76c3.29,9.52.21,16-9.32,19.32l-39,13.5c-9.53,3.3-16,.09-19.26-9.44l-2-5.68q-1.23-3.57,2.34-4.81l12.18-4.21c2.39-.82,4,0,4.81,2.34l1.24,3.57c.82,2.38,2.43,3.16,4.81,2.33l21.8-7.54q3.57-1.23,2.34-4.8L341.4,68.42q-1.23-3.57-4.81-2.34L306.18,76.6q-14.3,5-19.24-9.34l-5.7-16.5q-5-14.28,9.35-19.23l39-13.5q14.29-4.94,19.24,9.35l2,5.68c.86,2.47.08,4.07-2.3,4.9l-12.09,4.18c-2.48.86-4.08.08-4.94-2.39l-1.23-3.58q-1.25-3.57-4.81-2.34l-21.8,7.55c-2.39.82-3.16,2.42-2.34,4.81l4.21,12.18q1.25,3.57,4.81,2.34l30.42-10.52C350.26,46.89,356.68,50,360,59.63Z"/><path class="cls-2" d="M798.49,284c-1.19-2.26-.69-3.76,1.69-4.59L812,275.29a4.07,4.07,0,0,1,5.45,2.11l16.38,30.44-6-34c-.36-2.54.6-4.21,3-5l10.08-3.49c2.38-.82,4.17-.11,5.45,2.12l16.28,30.47-5.93-34.05a4.07,4.07,0,0,1,3-5l11.82-4.09c2.38-.82,3.71.05,4.16,2.56l13,74c.36,2.54-.57,4.3-3,5.12l-14.11,4.88a4.14,4.14,0,0,1-5.48-2.2l-15-27.86,5.44,31.15a4.14,4.14,0,0,1-2.94,5.12l-14.11,4.88c-2.38.83-4.2,0-5.48-2.2Z"/><path class="cls-2" d="M636.11,398.16V378.47q0-4.74-4.74-4.74h-2q-4.74,0-4.74,4.74v19.17Z"/><path class="cls-2" d="M559.87,350.51l.72-.49a4.56,4.56,0,0,0,4,1.82h43.77a4.53,4.53,0,0,0,4-1.82l.73.49c3.16,1.82,4.75,1.21,4.75-1.95v-9.48c0-3.29-1.59-5.72-4.75-7.54l-26.62-16.3-26.63,16.3c-3.17,1.82-4.75,4.25-4.75,7.54v9.48C555.12,351.72,556.7,352.33,559.87,350.51Zm26.63-16.3,7.78,4.87H578.83Z"/><path class="cls-2" d="M612.15,393.67q0-4.74-4.74-4.74h-9q-4.74,0-4.74,4.74v2.58l18.48.83Z"/><path class="cls-2" d="M629.42,369h9v29.27l16.17.73v-4.35H657a6,6,0,0,0,2.8-.6v1.09c0,3.16,1.58,4.62,4.74,4.13l13.86-3.52v4.32l13.74.62v-66a6.22,6.22,0,0,0,2.31-.36q0,4.74,4.75,4.74h14.34v19.33l-2.67,3.4-2.56-3.4V348.08q0-4.75-4.74-4.75h-4.37q-4.76,0-4.75,4.75v10.57q0,4.74,4.75,11l2.91,3.64-2.91,3.65q-4.76,6.21-4.75,10.94v12.95l3.75.17c.31-.36.63-.76,1-1.2l11.67-15.08,11.67,15.08a20.76,20.76,0,0,0,2.13,2.39l2.49.11a5.16,5.16,0,0,0,.12-1.16V387.83q0-4.74-4.74-10.94l-2.92-3.65,2.92-3.64q4.74-6.21,4.74-11v-32q0-4.74-4.74-4.74H699.22a6.36,6.36,0,0,0-2.31.37c0-3.16-1.59-4.62-4.75-4.62h-27.6q-4.74,0-4.74,4.74v4.38a5.9,5.9,0,0,0-2.8-.61h-2.43V320c0-3.16-1.58-4.75-4.74-4.75h-9c-3.16,0-4.74,1.59-4.74,4.75v6.2h-6.69q-4.74,0-4.74,4.74v7.66q0,4.74,4.74,4.74h6.69v8.51h-6.69q-4.74,0-4.74,4.75v7.66Q624.68,369,629.42,369ZM676,334.7h4.74v4.38H676Zm0,19.58h4.74v4.25H676Zm0,19.45h4.74v4.38L676,379.32ZM654.59,369H657c3.16,0,4.75-1.58,4.75-4.74v-7.66c0-3.17-1.59-4.75-4.75-4.75h-2.43v-8.51H657c3.16,0,4.75-1.58,4.75-4.74v-4.5a4.73,4.73,0,0,0,2.79.61v47.42a4.81,4.81,0,0,0-2.79,1.1v-1c0-3.16-1.59-4.74-4.75-4.74h-2.43Z"/><path class="cls-2" d="M613.12,386c3.16,0,4.75-1.58,4.75-4.74V359.38c0-3.16-1.59-4.74-4.75-4.74H592.7c-3.16,0-4.75,1.58-4.75,4.74v21.89c0,3.16,1.59,4.74,4.75,4.74Zm-12.89-18.48H605v5.71h-4.75Z"/><path class="cls-2" d="M547.59,317.68H520q-4.75,0-4.75,4.74v93c0,3.16,1.58,4.86,4.75,4.86h9c3.16,0,4.74-1.7,4.74-4.86V403.16h13.87q4.74,0,4.74-4.75V356.59q0-4.75-4.74-4.75h-.25l4.26-17.14a21.49,21.49,0,0,0,.73-5.72v-6.56Q552.33,317.68,547.59,317.68Zm-16.18,17h4l-4,16.17ZM536.16,386h-4.75V369h4.75Z"/><path class="cls-2" d="M580.29,401.33l-1-.73v-6.93q0-4.74-4.74-4.74h-9q-4.74,0-4.74,4.74v6.93l-1,.73c-3.17,2.68-4.75,5.47-4.75,8.76v7.54c0,3.16,1.58,3.4,4.75.85l10.21-8.15,10.21,8.15c3.17,2.55,4.75,2.31,4.75-.85v-7.54C585,406.8,583.46,404,580.29,401.33Z"/><path class="cls-2" d="M664.56,403.16h-10v-.9l-16.17-1.46v2.36h-2.31V400.6l-11.43-1v15.87c0,3.16,1.58,4.86,4.74,4.86h93.14c3.16,0,4.74-1.7,4.74-4.86V408.8Z"/><path class="cls-2" d="M503.69,317.68h-58q-4.74,0-4.74,4.74v16.17q0,4.74,4.74,4.74h7.66q4.74,0,4.74-4.74V334.7h2.31v8.15q0,4.74-4.74,4.74h-10q-4.74,0-4.74,4.74v7.54q0,4.74,4.74,4.74h8.63a25.65,25.65,0,0,0,9.12-1.46,6,6,0,0,0-.12,1.46v4.86H445.69c-3.16,0-4.74,1.59-4.74,4.75v7.54q0,4.74,4.74,4.74h10.7L445.69,397q-4.74,4.76-4.74,9.49v11.43q0,4.74,4.74,0l17.63-17.15v14.72c0,3.16,1.58,4.86,4.74,4.86h13.25c3.17,0,4.75-1.7,4.75-4.86V400.72l17.63,17.15q4.74,4.74,4.74,0V406.44q0-4.74-4.74-9.49L493,386.5h10.7q4.74,0,4.74-4.74v-7.54c0-3.16-1.58-4.75-4.74-4.75H486.06v-4.86h17.63q4.74,0,4.74-4.74v-7.54q0-4.74-4.74-4.74H489V334.7h2.31v3.89c0,3.16,1.59,4.74,4.75,4.74h7.66q4.74,0,4.74-4.74V322.42Q508.43,317.68,503.69,317.68Zm-27.6,42.19h-7.54q4.74-4.74,4.74-14.23V334.7h2.8Z"/><path class="cls-2" d="M559.87,386h20.42q4.76,0,4.75-4.74V359.38q0-4.74-4.75-4.74H559.87q-4.75,0-4.75,4.74v21.89Q555.12,386,559.87,386ZM568,367.53h4.75v5.71H568Z"/><path class="cls-2" d="M613.12,401.33l-1-.73v-2.16l-18.48-1.66v3.82l-1,.73c-3.16,2.68-4.75,5.47-4.75,8.76v7.54c0,3.16,1.59,3.4,4.75.85l10.21-8.15,10.21,8.15c3.16,2.55,4.75,2.31,4.75-.85v-7.54C617.87,406.8,616.28,404,613.12,401.33Z"/><path class="cls-2" d="M231.59,328.56l-44.66-3.17V330q0,4.74,4.74,4.74h5.72v2.43q0,4.74,4.74,4.74h13.74q4.74,0,4.74-4.74V334.7h10.46q4.74,0,4.74-4.74v-5.23q0-4.74-4.74-4.74H212.59c0-3.16-1.58-4.75-4.75-4.75H191.67c-3.16,0-4.74,1.59-4.74,4.75v2.22Z"/><path class="cls-2" d="M284.81,344.67H251v-2.31q0-4.74-4.74-4.74H230.22c-3.16,0-4.75,1.58-4.75,4.74v2.31h-33.8q-4.74,0-4.74,4.74v16.17q0,4.76,4.74,4.75h2.43V413l25.66-5.74v-4.14h39.4v4.25H221.57l-27.45,8.2c.06,3.05,1.63,4.69,4.73,4.69h81.22c3.16,0,4.74-1.7,4.74-4.86V397q0-4.74-4.74-4.74H219.76V388h57.88q4.74,0,4.74-4.74V370.33h2.43q4.74,0,4.74-4.75V349.41Q289.55,344.67,284.81,344.67ZM256.72,377h-37v-4.25h37Zm7.18-15.2H212.59v-4.25H263.9Z"/><path class="cls-2" d="M441,364.12c0-3.16-1.59-4.37-4.75-3.4v-8.88c3.16,0,4.75-1.58,4.75-4.74v-7.66c0-3.16-1.59-4.74-4.75-4.74V320c0-3.16-1.58-4.75-4.74-4.75H417.72c-3.16,0-4.74,1.59-4.74,4.75V334.7h-2.43q-4.74,0-4.74,4.74v7.66q0,4.74,4.74,4.74H413v6.71l17.92,13.51L413,365.3v2.59l-2.43.73c-3.16,1-4.74,2.92-4.74,6.08v7.66c0,3.17,1.58,4.26,4.74,3.29l2.43-.73v18.24h-2.43q-4.74,0-4.74,4.74v7.54c0,3.16,1.58,4.86,4.74,4.86h20.91c3.16,0,4.74-1.7,4.74-4.86V377.86c3.16-1,4.75-3,4.75-6.2Z"/><path class="cls-2" d="M394.25,353.79q-4.74,0-4.74,4.74h-1.46l10-19.09c1.7-3.16,1.09-4.74-2.19-4.74h-6.57c-3,0-5.35,1.46-7.17,4.38h-.73l10-19.09c1.82-3.16,1.09-4.75-2.07-4.75H385c-3.16,0-5.72,1.59-7.42,4.75l-10,19.09a12.85,12.85,0,0,0-1.46,6.08V326.67q0-4.74-4.74-4.74h-1V320c0-3.16-1.58-4.75-4.75-4.75H339.65c-3.16,0-4.74,1.59-4.74,4.75v1.94h-1q-4.74,0-4.74,4.74v31.86q0-4.74-4.74-4.74t-4.75,4.74h-1.46l10-19.09q2.56-4.74-2.18-4.74h-6.57a8,8,0,0,0-7.18,4.38h-.72l10-19.09c1.7-3.16,1.09-4.75-2.07-4.75h-4.38q-4.74,0-7.29,4.75l-1.88,3.59,8.53,4.28-9.52-2.38-4.19,8,7.68,3.86-8.57-2.15-2,3.87a12.73,12.73,0,0,0-1.46,6.08v4.25c0,3.28,1.58,4.87,4.74,4.87h3.28l-2.31,4.25h-1q-4.74,0-4.74,4.74V369q0,4.74,4.74,4.74h23.35q4.74,0,4.74-4.74,0,4.74,4.74,4.74h1v2.8h-33.8q-4.74,0-4.74,4.74v7.66q0,4.74,4.74,4.74H318l-16.9,6.93c-3.16,1.34-4.74,3.65-4.74,6.81v9.49c0,3.16,1.58,4.13,4.74,2.79l33.8-14.1v9.85c0,3.16,1.58,4.86,4.74,4.86H355.7c3.17,0,4.75-1.7,4.75-4.86v-9.85l33.8,14.1c3.16,1.34,4.74.37,4.74-2.79v-9.49c0-3.16-1.58-5.47-4.74-6.81l-16.9-6.93h16.9q4.74,0,4.74-4.74v-7.66q0-4.74-4.74-4.74h-33.8v-2.8h1q4.74,0,4.74-4.74,0,4.74,4.74,4.74h23.35q4.74,0,4.74-4.74V358.53Q399,353.79,394.25,353.79Zm-44.14,4.74h-4.86v-4.25h4.86Zm0-17.14h-4.86v-4.26h4.86Zm21.77,17.14h-1q-4.74,0-4.74,4.74V349.41c0,3.28,1.58,4.87,4.74,4.87h3.29Z"/><path class="cls-2" d="M284.81,320H263.9c0-3.16-1.58-4.75-4.74-4.75H243c-3.16,0-4.74,1.59-4.74,4.75v10q0,4.74,4.74,4.74h12.89v2.43q0,4.74,4.74,4.74h13.74q4.75,0,4.75-4.74V334.7h5.71q4.74,0,4.74-4.74v-5.23Q289.55,320,284.81,320Z"/><path class="cls-8" d="M237.23,578.62q-3.24,10.53-5.88,20.09c-1.76,6.36-2.83,10.29-3.2,11.67l-5.88.59c-.2-.82-.82-3.08-1.85-6.82s-2.35-8.38-4-14h-.14c-1.53,5.15-2.9,9.92-4.11,14.27s-1.91,7-2.13,7.81l-5.9.65c-.21-.81-1.08-4.13-2.64-10.06s-3.61-13.38-6.15-22.49c2.7-1.14,4-1.7,6.74-2.81.13.65.73,3.2,1.81,7.59s2.36,9.54,3.87,15.41l.14,0q2.2-7.9,3.93-14.43l1.93-7.3,5.57-.2c.17.8.8,3.23,1.89,7.26s2.28,8.48,3.59,13.32H225q2.35-8.77,4-15t1.87-7.54C233.39,577.44,234.67,577.84,237.23,578.62Z"/><path class="cls-8" d="M248.24,608.39l-6.73.62c0-1.36.05-3.32.08-5.89s0-6.06.07-10.46q0-2.77,0-7t0-8.67l6.74-.2c0,2.16,0,4.64-.09,7.45s0,5.32-.06,7.5c0,4.46,0,7.9,0,10.33S248.23,606.6,248.24,608.39Z"/><path class="cls-8" d="M281.7,575.89c-.05,2.58-.08,5.17-.11,7.77s0,4.64,0,6.12q0,5,0,9v5.06c-1.95,1-2.92,1.51-4.87,2.53q-5.1-7.12-9.46-12.87c-2.9-3.82-4.66-6.18-5.3-7l-.1.05q0,4.95,0,12c0,4.68,0,7.56,0,8.63l-6.26.54c0-.78,0-2.49.08-5.13s0-5.92.07-9.85c0-1.59,0-3.65,0-6.15s0-5.19,0-8.07L261,576c.59.8,2.35,3.23,5.27,7.19s6,7.92,9.13,11.86l.08,0q0-3.11,0-9.18c0-4,0-7.31,0-9.76Z"/><path class="cls-8" d="M314.5,589.41a12.55,12.55,0,0,1-1.8,6.58,15.51,15.51,0,0,1-4.59,4.78,22,22,0,0,1-5.51,2.65,29.84,29.84,0,0,1-7.1,1.28c-1.26.08-2.65.17-4.16.24s-2.35.11-2.53.13c0-.15,0-1.7.07-4.65s.08-6.39.1-10.34q0-2.45,0-6.13c0-2.45,0-5.19,0-8.23l2.7-.08,3.34-.1a34,34,0,0,1,7.79.62,17.71,17.71,0,0,1,5.89,2.36,12.2,12.2,0,0,1,4.39,4.61A13.19,13.19,0,0,1,314.5,589.41Zm-6.92.05a8.45,8.45,0,0,0-.87-3.85,7.37,7.37,0,0,0-2.8-2.89,10.64,10.64,0,0,0-3.72-1.39,18.47,18.47,0,0,0-3.84-.3h-.73c0,1.48,0,2.88,0,4.2s0,2.42,0,3.27,0,2,0,3.66,0,4,0,6.88l.32,0,.35,0a17.46,17.46,0,0,0,3.88-.71,12.61,12.61,0,0,0,3.37-1.49,9.51,9.51,0,0,0,3.1-3.2A8.5,8.5,0,0,0,307.58,589.46Z"/><path class="cls-8" d="M352.73,593.41a6.49,6.49,0,0,1-1.43,4,9.63,9.63,0,0,1-4,2.86,22.07,22.07,0,0,1-4.91,1.28q-2.79.42-6.11.6c-1.2.06-2.45.11-3.75.14l-2.89.07c0-2.26.07-4.55.1-6.9s0-4.85.06-7.55c0-2.93,0-5.81,0-8.61s0-4.29,0-4.44l2.26-.12c1.28-.08,2.65-.13,4.12-.15,2.21,0,4,0,5.51.09a18.87,18.87,0,0,1,4,.67,7.66,7.66,0,0,1,3.57,2.06,4.92,4.92,0,0,1,1.3,3.5,5.89,5.89,0,0,1-1.15,3.5,7,7,0,0,1-3,2.41V587a9.14,9.14,0,0,1,2.21.5,7.08,7.08,0,0,1,1.84,1.06,5.86,5.86,0,0,1,1.77,2.06A6.37,6.37,0,0,1,352.73,593.41Zm-6.92-.49a3.34,3.34,0,0,0-.36-1.6,4.43,4.43,0,0,0-1-1.22,4.48,4.48,0,0,0-1.47-.72,6,6,0,0,0-2-.23l-1.34.06-.66,0-.55-2.57a8.13,8.13,0,0,0,2-.38,5.34,5.34,0,0,0,1.57-.76,4.28,4.28,0,0,0,1.11-1.28,3.5,3.5,0,0,0,.45-1.83,3,3,0,0,0-.47-1.67,3.18,3.18,0,0,0-1.3-1.19,5.85,5.85,0,0,0-1.68-.47,11.25,11.25,0,0,0-2-.12L337,579c-.39,0-.65,0-.79,0,0,1.38-.06,2.9-.08,4.58s0,3.16,0,4.45,0,3.18,0,5.53v3.81H337l1.32,0a26.85,26.85,0,0,0,3.06-.31,7.32,7.32,0,0,0,2.46-.82,4.18,4.18,0,0,0,1.47-1.39A3.73,3.73,0,0,0,345.81,592.92Z"/><path class="cls-8" d="M383.61,598.59,377,600.93c-.14-.42-.48-1.35-1-2.79s-1.21-3.07-2-4.88l-10.37.31c-.8,1.92-1.49,3.62-2.05,5.12s-.92,2.46-1,2.88l-6.24-1.82c.37-.81,1.8-4,4.3-9.64s4.87-10.9,7.13-16l6.9-.08q3.46,7.84,7.12,15.89Zm-11.23-9.36-1.68-4.37q-.9-2.39-1.82-4.68h-.08q-.78,1.92-1.86,4.76c-.73,1.9-1.31,3.39-1.76,4.48v0l7.21-.19Z"/><path class="cls-8" d="M413.17,573.93q0,3.32-.08,6.65t0,5.25c0,2.88,0,5.46,0,7.75s0,3.73,0,4.34l-4.88,1.94q-5.13-6.32-9.51-11.28c-2.92-3.3-4.69-5.32-5.33-6l-.1,0q0,4.14,0,10t0,7.23L387,600c0-.65,0-2.07.07-4.26s0-4.92.06-8.18v-5.12q0-3.12,0-6.7l5.29-2.06c.59.68,2.35,2.73,5.29,6.12s6,6.83,9.18,10.29l.08,0q0-2.64,0-7.81c0-3.45-.05-6.21,0-8.3Z"/><path class="cls-8" d="M446.07,586.55a9.94,9.94,0,0,1-1.76,5.83,13.48,13.48,0,0,1-4.58,4,21.89,21.89,0,0,1-5.5,2.08,32.87,32.87,0,0,1-7.12.77c-1.26,0-2.65,0-4.16,0h-2.54c0-.13,0-1.47,0-4s.05-5.53.06-8.94c0-1.42,0-3.18,0-5.31s0-4.49-.05-7.12l2.71,0,3.34,0a37.66,37.66,0,0,1,7.8.67,19.12,19.12,0,0,1,5.91,2.19,11.93,11.93,0,0,1,4.41,4.2A11,11,0,0,1,446.07,586.55Zm-6.93-.18a6.66,6.66,0,0,0-.89-3.44,7.18,7.18,0,0,0-2.81-2.63,12,12,0,0,0-3.73-1.31,21.92,21.92,0,0,0-3.84-.35h-.74c0,1.28,0,2.5,0,3.66s0,2.11,0,2.85v3.2c0,1.46,0,3.46,0,6h.67a19.53,19.53,0,0,0,3.88-.47,12.54,12.54,0,0,0,3.38-1.16,8.34,8.34,0,0,0,3.08-2.71A6.57,6.57,0,0,0,439.14,586.37Z"/><path class="cls-8" d="M486.83,597.73l-6.65,2c-.14-.42-.49-1.33-1.05-2.75s-1.22-3-2-4.8l-10.38-.06c-.79,1.8-1.47,3.39-2,4.8s-.9,2.3-1,2.69l-6.26-2q.56-1.12,4.25-9t7.05-15l6.9,0q3.51,7.59,7.21,15.53C485.33,594.48,486.66,597.34,486.83,597.73Zm-11.28-9.49L473.84,584c-.62-1.55-1.23-3.06-1.85-4.55h-.08c-.52,1.21-1.13,2.72-1.84,4.51s-1.29,3.21-1.73,4.24v0l7.21,0Z"/><path class="cls-8" d="M515.87,587.08a10,10,0,0,1-1.74,5.9,12.69,12.69,0,0,1-4.56,4,20.59,20.59,0,0,1-5.49,1.95,31.93,31.93,0,0,1-7.11.56q-1.89,0-4.17-.12l-2.53-.08c0-.13,0-1.47,0-4s0-5.53,0-8.95c0-1.41,0-3.18,0-5.3s-.05-4.5-.08-7.13h6a37.42,37.42,0,0,1,7.81.75,19.22,19.22,0,0,1,5.91,2.29,12.26,12.26,0,0,1,4.44,4.34A11.57,11.57,0,0,1,515.87,587.08Zm-6.93-.33a7.06,7.06,0,0,0-.9-3.51,7.45,7.45,0,0,0-2.82-2.71,12,12,0,0,0-3.75-1.38,21.24,21.24,0,0,0-3.84-.4h-.73c0,1.29,0,2.52,0,3.69s0,2.12,0,2.86,0,1.75,0,3.22,0,3.48,0,6h.67a19.16,19.16,0,0,0,3.89-.36,12.45,12.45,0,0,0,3.37-1.1,8,8,0,0,0,3.07-2.66A6.65,6.65,0,0,0,508.94,586.75Z"/><path class="cls-8" d="M546.76,575.88c-.24.57-1.65,3.74-4.23,9.45s-4.9,10.81-7,15.32l-6.69-.23q-3.28-7.3-6.34-13.9t-4.9-10.91l6.67-2c.17.54,1.16,3,3,7.25s3.5,8.3,5.1,12h.14q2.47-5.79,5.11-12.11c1.76-4.22,2.71-6.55,2.85-7Z"/><path class="cls-8" d="M570.48,601.93l-4.06-.22q-3.31-.19-6.6-.34c-1.89-.08-3.73-.16-5.52-.22l-3.91-.15c0-.7,0-2.22,0-4.57s0-5.33,0-8.93c0-1.52,0-3.46,0-5.82s-.06-4.76-.1-7.21l3.94.07,5.14.08,6.9.1,3.83,0c0,2,0,3,0,5l-2.67-.08c-1.55-.05-3.1-.09-4.66-.12l-3.18-.05-2.85,0c0,1,0,2.06,0,3.17s0,2.11,0,3l2.7.09,2.7.08,4.92.12L570,586c0,1.62,0,2.42,0,4l-3.15-.13-4.61-.18-2.72-.07-2.76-.08c0,1.56,0,2.89,0,4a17.14,17.14,0,0,0,0,2.73,17.59,17.59,0,0,0,3.26.16l3.69.16c1.55.07,3,.12,4.22.16l2.46.09C570.46,598.91,570.47,599.91,570.48,601.93Z"/><path class="cls-8" d="M602.48,575.31c0,2.47,0,5,0,7.44s0,4.44,0,5.86q0,4.83.08,8.66c0,2.55.06,4.17.06,4.85l-4.85,1.75c-3.46-5-6.67-9.28-9.61-13s-4.74-6-5.39-6.77l-.1,0c0,2.95.06,6.54.12,10.74s.08,6.79.09,7.76l-6.27-.34c0-.69,0-2.19,0-4.51s0-5.2,0-8.66c0-1.4,0-3.21-.05-5.41s-.06-4.57-.1-7.1l5.26-2c.6.74,2.39,3,5.35,6.76s6.06,7.7,9.27,11.72l.08,0q0-2.91-.11-8.62t-.12-9.16Z"/><path class="cls-8" d="M630.82,582.08l-3.25-.14-5.8-.22c0,2.3,0,4.14,0,5.53s0,3.19,0,5.39c0,2.5,0,4.92.07,7.25s.06,4.07.08,5.22l-6.73-.49c0-1.08,0-2.73,0-5s0-4.68,0-7.38q0-3,0-5.1c0-1.41,0-3.3-.08-5.69q-3.33-.11-6-.16l-3.11-.08c0-2.33,0-3.5,0-5.83l5.19.12,7.19.17,7.9.17,4.57.1C630.8,578.43,630.81,579.64,630.82,582.08Z"/><path class="cls-8" d="M659.35,576.7q0,4.39,0,6.93c0,1.69,0,3.25,0,4.66,0,1.78,0,3.32,0,4.61s0,2.4,0,3.33a14,14,0,0,1-.93,5.48,9.25,9.25,0,0,1-2.55,3.64,10.41,10.41,0,0,1-4,2.15,14.23,14.23,0,0,1-5,.35,15.49,15.49,0,0,1-5.4-1.33,13.52,13.52,0,0,1-3.78-2.68,11.6,11.6,0,0,1-2.58-4,15,15,0,0,1-.91-5.33v-3.18c0-1.23,0-2.7,0-4.4,0-1.48,0-3,0-4.47s0-3.66-.07-6.47l6.74.17c0,1.29,0,2.89,0,4.81s0,4.08,0,6.49l0,3.48q0,1.74,0,3.57a7.5,7.5,0,0,0,1.64,5.13,6.21,6.21,0,0,0,4.35,2,5.25,5.25,0,0,0,4.42-1.35c1-1.06,1.5-2.75,1.48-5.07v-3.74c0-1.25,0-2.4,0-3.47q0-3.74-.06-6.69c0-2,0-3.6-.06-4.87Z"/><path class="cls-8" d="M691.34,609c-2.48.95-3.72,1.42-6.19,2.34-.51-.94-1.5-2.63-3-5s-3.73-6.13-6.75-11.06l.1-.48a6.59,6.59,0,0,0,1.76-.71,6.15,6.15,0,0,0,3-3.23,7.11,7.11,0,0,0,.37-2.56,5.67,5.67,0,0,0-.65-2.7,4.42,4.42,0,0,0-1.76-1.82,5.82,5.82,0,0,0-1.89-.65,15.92,15.92,0,0,0-1.89-.19l-.84,0h-.38c0,1.91,0,3.87,0,5.88s0,3.8,0,5.4q0,3.93,0,8.61t.07,6.75l-6.72-.63c0-1.25,0-3.1,0-5.54s0-6,0-10.81c0-1.27,0-3.09,0-5.45s-.06-5.74-.12-10.11c.4,0,1.21,0,2.45,0s2.4,0,3.47.06a51.88,51.88,0,0,1,5.26.38,15.1,15.1,0,0,1,4.2,1.16,8.94,8.94,0,0,1,4.21,3.51,9.67,9.67,0,0,1,1.39,5.06,9.46,9.46,0,0,1-1.43,5.36,11.37,11.37,0,0,1-2.93,3.19v.15c1.41,2.25,2.91,4.56,4.51,7A62.46,62.46,0,0,1,691.34,609Z"/><path class="cls-8" d="M714.82,613.82l-4-.48q-3.3-.4-6.57-.76-2.82-.32-5.49-.57l-3.9-.39c0-.89,0-2.83,0-5.82s0-6.78,0-11.37q0-2.89,0-7.4t-.08-9.19l3.93.15,5.13.19,6.89.23,3.82.12c0,2.61,0,3.91,0,6.52l-2.66-.16c-1.55-.1-3.1-.18-4.65-.26l-3.17-.14-2.85-.13c0,1.29,0,2.64,0,4.06s0,2.71,0,3.86l2.69.18,2.69.2,4.9.3,2.92.17v5.25l-3.14-.28c-1.83-.16-3.36-.29-4.59-.38l-2.71-.2-2.75-.2c0,2,0,3.71,0,5.14a20.73,20.73,0,0,0,0,3.5,17.19,17.19,0,0,0,3.24.34l3.67.37,4.2.39,2.46.22Z"/><path class="cls-1" d="M232.67,575.33q-3.24,10.51-5.88,20.09c-1.76,6.36-2.82,10.28-3.19,11.67l-5.89.59c-.2-.82-.81-3.09-1.85-6.82s-2.35-8.38-4-14h-.14q-2.3,7.73-4.1,14.27c-1.21,4.35-1.92,7-2.14,7.81l-5.9.64c-.2-.8-1.08-4.13-2.64-10.06s-3.61-13.37-6.14-22.48c2.69-1.14,4-1.71,6.73-2.81.13.65.74,3.2,1.81,7.59s2.37,9.53,3.87,15.41l.14,0q2.22-7.9,3.93-14.43l1.93-7.31,5.57-.19c.17.8.8,3.23,1.89,7.26s2.28,8.48,3.59,13.32h.15c1.57-5.86,2.9-10.84,4-15s1.7-6.66,1.87-7.55C228.83,574.15,230.11,574.55,232.67,575.33Z"/><path class="cls-1" d="M243.68,605.1l-6.72.62c0-1.36,0-3.32.07-5.89s.06-6.06.07-10.46q0-2.77,0-7t0-8.67l6.73-.2c0,2.16,0,4.64-.09,7.45s0,5.31-.06,7.5q0,6.69,0,10.33C243.67,601.19,243.67,603.3,243.68,605.1Z"/><path class="cls-1" d="M277.14,572.6q-.06,3.87-.11,7.77t0,6.12c0,3.36,0,6.37,0,9s0,4.35,0,5.06c-1.95,1-2.92,1.51-4.87,2.53q-5.1-7.12-9.46-12.87c-2.9-3.82-4.66-6.18-5.3-7l-.1,0c0,3.3,0,7.29,0,12s0,7.56,0,8.64l-6.26.54c0-.78.05-2.49.08-5.13s.06-5.92.07-9.85q0-2.4,0-6.15t0-8.07l5.28-2.56c.59.8,2.35,3.23,5.27,7.19s6,7.92,9.13,11.86l.08,0q0-3.09,0-9.17c0-4.06,0-7.31,0-9.77Z"/><path class="cls-1" d="M309.94,586.12a12.46,12.46,0,0,1-1.8,6.58,15.4,15.4,0,0,1-4.59,4.78,22.14,22.14,0,0,1-5.51,2.65,29.37,29.37,0,0,1-7.1,1.27c-1.26.09-2.64.17-4.15.25l-2.53.12c0-.14,0-1.69.06-4.64s.08-6.4.1-10.34c0-1.63,0-3.68,0-6.13s0-5.19,0-8.23l2.71-.08,3.33-.1a33.46,33.46,0,0,1,7.79.62,18,18,0,0,1,5.9,2.35,12.39,12.39,0,0,1,4.38,4.61A13.2,13.2,0,0,1,309.94,586.12Zm-6.92,0a8.2,8.2,0,0,0-.87-3.85,7.21,7.21,0,0,0-2.79-2.89,10.76,10.76,0,0,0-3.73-1.39,18.43,18.43,0,0,0-3.83-.3h-.74c0,1.47,0,2.87,0,4.2s0,2.42,0,3.27,0,2,0,3.66,0,4,0,6.88l.33,0,.34,0a17.35,17.35,0,0,0,3.88-.71,12.69,12.69,0,0,0,3.38-1.49,9.57,9.57,0,0,0,3.09-3.2A8.5,8.5,0,0,0,303,586.17Z"/><path class="cls-1" d="M348.17,590.12a6.39,6.39,0,0,1-1.43,4,9.59,9.59,0,0,1-4,2.87,21.93,21.93,0,0,1-4.91,1.28c-1.86.28-3.89.48-6.11.59-1.19.07-2.44.11-3.75.15l-2.89.07q.06-3.39.1-6.9c0-2.34.05-4.86.06-7.55q0-4.41,0-8.62c0-2.8,0-4.28,0-4.44.22,0,1,0,2.26-.12s2.64-.12,4.11-.15c2.21,0,4.05,0,5.51.1a19.32,19.32,0,0,1,4,.66,7.75,7.75,0,0,1,3.57,2.07,4.87,4.87,0,0,1,1.3,3.5,6,6,0,0,1-1.14,3.5,7,7,0,0,1-3,2.4v.14a9.64,9.64,0,0,1,2.21.51,6.92,6.92,0,0,1,1.84,1.06,5.78,5.78,0,0,1,1.77,2.06A6.37,6.37,0,0,1,348.17,590.12Zm-6.92-.49a3.34,3.34,0,0,0-.36-1.6,3.74,3.74,0,0,0-2.45-1.94,6.05,6.05,0,0,0-2-.23c-.54,0-1,0-1.34.06l-.65,0c-.23-1-.34-1.53-.56-2.56a8.13,8.13,0,0,0,2-.38,5.11,5.11,0,0,0,1.57-.77,4.33,4.33,0,0,0,1.12-1.28,3.55,3.55,0,0,0,.44-1.82,3,3,0,0,0-.46-1.67,3.2,3.2,0,0,0-1.31-1.19,5.47,5.47,0,0,0-1.68-.47,11.2,11.2,0,0,0-2-.12l-1.13,0c-.39,0-.65,0-.79,0,0,1.38-.06,2.9-.07,4.58s0,3.16,0,4.45,0,3.18,0,5.53v3.81h.86l1.32,0a26.85,26.85,0,0,0,3.06-.31,7.32,7.32,0,0,0,2.46-.82,4.15,4.15,0,0,0,1.48-1.4A3.78,3.78,0,0,0,341.25,589.63Z"/><path class="cls-1" d="M379.05,595.3l-6.66,2.34c-.14-.42-.48-1.35-1-2.79s-1.21-3.07-2-4.89l-10.37.32c-.8,1.91-1.49,3.62-2,5.12s-.92,2.46-1.05,2.87l-6.24-1.81c.37-.81,1.81-4.05,4.3-9.64s4.87-10.9,7.13-16l6.91-.08q3.47,7.83,7.11,15.89C377.57,592,378.88,594.9,379.05,595.3Zm-11.22-9.36q-.78-2-1.68-4.37t-1.83-4.69h-.08c-.52,1.28-1.14,2.86-1.86,4.76s-1.31,3.39-1.75,4.48v0l7.21-.19Z"/><path class="cls-1" d="M408.62,570.64c0,2.21-.06,4.42-.08,6.65s0,4,0,5.25q0,4.32,0,7.74c0,2.29,0,3.74,0,4.34l-4.88,2q-5.13-6.32-9.51-11.28c-2.92-3.31-4.69-5.32-5.33-6l-.1,0q0,4.14,0,10t0,7.23l-6.28.18c0-.65,0-2.07.07-4.26s0-4.92.06-8.18c0-1.33,0-3,0-5.12s0-4.31,0-6.7l5.28-2.06,5.29,6.12q4.41,5.1,9.18,10.29l.08,0q0-2.64,0-7.81t0-8.3Z"/><path class="cls-1" d="M441.52,583.26a9.9,9.9,0,0,1-1.77,5.82,13.4,13.4,0,0,1-4.58,4.06,21.88,21.88,0,0,1-5.5,2.07,32.19,32.19,0,0,1-7.11.78c-1.27,0-2.66,0-4.17,0s-2.36,0-2.54,0c0-.13,0-1.47,0-4s.05-5.53.06-8.94c0-1.42,0-3.19,0-5.31s0-4.49,0-7.12l2.7,0,3.34,0a38.3,38.3,0,0,1,7.8.68,19.11,19.11,0,0,1,5.91,2.18,12,12,0,0,1,4.41,4.21A10.91,10.91,0,0,1,441.52,583.26Zm-6.93-.18a6.77,6.77,0,0,0-.9-3.44,7,7,0,0,0-2.81-2.63,12,12,0,0,0-3.73-1.31,21.92,21.92,0,0,0-3.84-.35h-.73q0,1.92,0,3.66c0,1.16,0,2.11,0,2.85v3.2q0,2.19,0,6h.67a19.71,19.71,0,0,0,3.89-.47,12.23,12.23,0,0,0,3.37-1.17,8.24,8.24,0,0,0,3.08-2.7A6.58,6.58,0,0,0,434.59,583.08Z"/><path class="cls-1" d="M482.28,594.44l-6.65,2c-.14-.42-.5-1.34-1.06-2.75s-1.22-3-2-4.8l-10.38-.06c-.79,1.79-1.46,3.39-2,4.8s-.9,2.3-1,2.68l-6.26-2q.56-1.12,4.25-9t7.05-15l6.9,0q3.51,7.59,7.22,15.53T482.28,594.44ZM471,584.94l-1.71-4.24c-.61-1.55-1.23-3.06-1.85-4.55h-.08c-.51,1.22-1.13,2.73-1.84,4.52s-1.28,3.21-1.73,4.24v0l7.22,0Z"/><path class="cls-1" d="M511.31,583.79a10,10,0,0,1-1.74,5.9,12.69,12.69,0,0,1-4.56,4,20.46,20.46,0,0,1-5.49,1.95,31.93,31.93,0,0,1-7.11.56q-1.89,0-4.17-.12l-2.53-.09c0-.12,0-1.46,0-4s0-5.53,0-9c0-1.41,0-3.18,0-5.3s-.05-4.5-.08-7.13h6a38,38,0,0,1,7.81.76,19.38,19.38,0,0,1,5.92,2.29,12.3,12.3,0,0,1,4.43,4.34A11.47,11.47,0,0,1,511.31,583.79Zm-6.93-.33a7,7,0,0,0-.9-3.51,7.31,7.31,0,0,0-2.82-2.71,11.91,11.91,0,0,0-3.74-1.38,21.44,21.44,0,0,0-3.85-.4h-.73c0,1.29,0,2.52,0,3.68s0,2.13,0,2.87,0,1.74,0,3.21,0,3.49,0,6h.68a18.48,18.48,0,0,0,3.88-.37,12,12,0,0,0,3.37-1.09,7.89,7.89,0,0,0,3.07-2.67A6.61,6.61,0,0,0,504.38,583.46Z"/><path class="cls-1" d="M542.2,572.59c-.24.56-1.65,3.74-4.23,9.45s-4.9,10.81-7,15.32l-6.68-.23q-3.3-7.3-6.35-13.9t-4.9-10.91l6.67-2c.17.55,1.16,3,3,7.26s3.5,8.3,5.1,12h.14q2.47-5.79,5.11-12.12c1.76-4.21,2.71-6.54,2.86-7Z"/><path class="cls-1" d="M565.92,598.64l-4.06-.23-6.6-.33c-1.88-.08-3.72-.16-5.52-.22l-3.91-.15c0-.7,0-2.23,0-4.57s0-5.33,0-8.93c0-1.52,0-3.46-.05-5.82s0-4.76-.09-7.21l3.94.07,5.14.08,6.9.09,3.82.05c0,2,0,3,0,5l-2.67-.08c-1.54,0-3.1-.09-4.66-.12l-3.17-.06-2.85,0c0,1,0,2.06,0,3.16s0,2.11,0,3l2.69.08,2.7.09,4.92.12,2.92.07c0,1.61,0,2.42,0,4l-3.16-.13-4.6-.18-2.72-.08-2.76-.07c0,1.56,0,2.89,0,4a17.19,17.19,0,0,0,0,2.73,17.66,17.66,0,0,0,3.26.16l3.69.16c1.55.07,2.95.12,4.22.16l2.46.09C565.9,595.61,565.91,596.62,565.92,598.64Z"/><path class="cls-1" d="M597.92,572q0,3.71,0,7.44c0,2.48,0,4.44,0,5.86,0,3.22.05,6.1.08,8.66s.06,4.17.06,4.85l-4.85,1.75c-3.46-5-6.67-9.28-9.61-13.05s-4.74-6-5.38-6.77l-.11,0c0,3,.06,6.55.12,10.75s.09,6.79.09,7.76l-6.27-.35q0-1,0-4.5c0-2.32,0-5.2,0-8.66,0-1.4,0-3.21,0-5.42s-.06-4.57-.11-7.09l5.26-2c.61.73,2.39,3,5.35,6.76s6.06,7.69,9.27,11.72l.08,0q0-2.91-.11-8.62t-.11-9.16Z"/><path class="cls-1" d="M626.26,578.78l-3.25-.13-5.8-.22c0,2.3,0,4.14,0,5.53s0,3.18,0,5.39c0,2.5,0,4.92.07,7.25s.06,4.07.08,5.22l-6.73-.49c0-1.08,0-2.73,0-5s0-4.68,0-7.39c0-2,0-3.69,0-5.09s0-3.3-.07-5.69q-3.35-.11-6-.16l-3.11-.08c0-2.33,0-3.5,0-5.83l5.18.12,7.19.17,7.9.17,4.57.1C626.24,575.13,626.25,576.35,626.26,578.78Z"/><path class="cls-1" d="M654.79,573.41q0,4.4,0,6.93c0,1.69,0,3.24,0,4.65q0,2.68,0,4.62t0,3.33a14.25,14.25,0,0,1-.92,5.48,9.37,9.37,0,0,1-2.56,3.64,10.41,10.41,0,0,1-4,2.15,14.42,14.42,0,0,1-5,.35,15.43,15.43,0,0,1-5.4-1.33,13.4,13.4,0,0,1-3.79-2.69,11.47,11.47,0,0,1-2.58-3.95,14.84,14.84,0,0,1-.9-5.34c0-.88,0-1.93,0-3.17s0-2.7,0-4.4q0-2.22-.06-4.47c0-1.51-.05-3.66-.07-6.47l6.74.17c0,1.28,0,2.89,0,4.81s0,4.08,0,6.48c0,1.17,0,2.33,0,3.49s0,2.35,0,3.57a7.5,7.5,0,0,0,1.65,5.13,6.17,6.17,0,0,0,4.35,2,5.21,5.21,0,0,0,4.41-1.36q1.5-1.57,1.49-5.06c0-1.25,0-2.5,0-3.75s0-2.39,0-3.46q0-3.74-.06-6.7c0-2-.05-3.59-.05-4.86Z"/><path class="cls-1" d="M686.78,605.68c-2.48,1-3.72,1.42-6.19,2.34-.51-.94-1.5-2.63-3-5s-3.73-6.14-6.75-11.06l.1-.48a6.59,6.59,0,0,0,1.76-.71,6.74,6.74,0,0,0,1.83-1.39,6.27,6.27,0,0,0,1.13-1.85,7,7,0,0,0,.37-2.55,5.64,5.64,0,0,0-.64-2.7,4.38,4.38,0,0,0-1.77-1.82,5.82,5.82,0,0,0-1.89-.65,15.92,15.92,0,0,0-1.89-.19l-.84,0h-.38c0,1.91,0,3.87,0,5.88s0,3.8,0,5.4q0,3.93.06,8.61c0,3.11,0,5.37.06,6.75l-6.72-.63c0-1.26,0-3.1,0-5.54s0-6,0-10.81q0-1.9,0-5.46c0-2.36,0-5.73-.11-10.1.39,0,1.21,0,2.45,0s2.39,0,3.46.06c2,.06,3.78.18,5.26.37a15.37,15.37,0,0,1,4.2,1.17,8.93,8.93,0,0,1,4.21,3.5,9.73,9.73,0,0,1,1.39,5.07,9.48,9.48,0,0,1-1.43,5.36,11.66,11.66,0,0,1-2.93,3.19v.15c1.41,2.25,2.91,4.56,4.52,7A62.14,62.14,0,0,1,686.78,605.68Z"/><path class="cls-1" d="M710.26,610.53l-4-.49-6.57-.75q-2.82-.31-5.49-.57l-3.9-.39c0-.89,0-2.83,0-5.82s0-6.78,0-11.37c0-1.94,0-4.41,0-7.41s0-6.06-.08-9.18l3.93.15,5.13.19,6.89.23,3.83.12v6.52l-2.66-.17c-1.54-.09-3.09-.18-4.65-.25l-3.17-.14-2.85-.13c0,1.29,0,2.64,0,4.06s0,2.71,0,3.85l2.69.19,2.69.19,4.9.31,2.92.17v5.24l-3.14-.27-4.59-.39-2.71-.19-2.75-.2c0,2,0,3.71,0,5.14a20.56,20.56,0,0,0,0,3.49,17,17,0,0,0,3.25.35l3.67.37,4.2.39,2.45.21Z"/></svg>