<svg id="圖層_1" data-name="圖層 1" xmlns="http://www.w3.org/2000/svg" viewBox="0 0 913.63 237.85"><defs><style>.cls-1{fill:#543a00;}.cls-2{fill:#fff;}</style></defs><title>start_title</title><path class="cls-1" d="M232.06,55.35q0,9.85-9.85,9.85H178.8V88.92l4.79,2.78,5-2.52V80.85q0-9.85,9.85-9.85h23.72q9.85,0,9.85,9.85V93c0,6.57-3.28,11.87-9.85,16.16l-4.29,2.27,4.29,2.52c6.57,4.29,9.85,9.59,9.85,16.16v19.69q0,9.84-9.85,3.78l-38.62-22.21-38.36,22.21q-9.85,6.06-9.85-3.78V130.07c0-6.57,3.28-11.87,9.85-16.16l4.29-2.52-4.29-2.27c-6.57-4.29-9.85-9.59-9.85-16.16V65.2h-58V71h43.16c6.82,0,10.1,3.28,10.1,9.85V146c0,6.56-3.28,9.84-10.1,9.84H87.17q-9.84,0-9.84-9.84V134.11q0-9.86,9.84-9.85V97.76H77.33v18.68c0,26.25-13.13,39.37-39.63,39.37H28.87Q19,155.81,19,146V134.11c0-6.57,1.77-9.85,5.05-9.85s4.8-3.28,4.8-9.84V43.49q0-9.84,9.84-9.84h91.88v-4q0-9.85,9.84-9.85H169q9.86,0,9.85,9.85v4h4.79v-4c0-6.57,3.29-9.85,10.1-9.85h28.52q9.85,0,9.85,9.85ZM19,212.1q0-9.84,9.85-9.84V171.72q0-9.85,9.84-9.85H212.37q9.84,0,9.84,9.85v30.54q9.85,0,9.85,9.84v15.65c0,6.56-3.28,10.1-9.85,10.1H28.87c-6.57,0-9.85-3.54-9.85-10.1Zm63.1-18.68H72.28v8.84h9.84Zm48.47,0h-10.1v8.84h10.1Zm48.21,0H169v8.84h9.85Z"/><path class="cls-1" d="M246.19,212.1q0-9.84,9.84-9.84h1c45.94,0,69.16-29.53,69.16-88.85H256q-9.84,0-9.84-9.85V87.91q0-9.84,9.84-9.84H326.2V29.61q0-9.85,9.85-9.85h33.31q9.86,0,9.85,9.85V78.07h70.17q9.84,0,9.84,9.84v15.65q0,9.85-9.84,9.85H379.21c0,59.32,23.22,88.85,69.16,88.85h1q9.84,0,9.84,9.84v15.65c0,6.56-3.28,10.1-9.84,10.1H424.64c-31.55,0-55.53-15.9-71.93-47.2-16.41,31.3-40.39,47.2-71.94,47.2H256c-6.56,0-9.84-3.54-9.84-10.1Z"/><path class="cls-1" d="M473.35,34.66q0-9.85,9.85-9.85H565q9.84,0,9.84,9.85v74q0,9.86-9.84,9.85H521.82V227.75c0,6.56-3.29,10.1-10.1,10.1H483.2c-6.57,0-9.85-3.54-9.85-10.1Zm58.31,25.49V51.32h-9.84v8.83Zm0,31.55V82.87h-9.84V91.7Zm-5,42.41q0-9.86,9.85-9.85h86.83q9.84,0,9.84,9.85V150q0,9.84-9.84,9.84v8.84q9.84,0,9.84,9.84v15.9q0,9.84-9.84,9.85v23.47c0,6.56-3.29,10.1-9.85,10.1H594.76c-6.56,0-9.84-3.54-9.84-10.1V204.28h-10.1v23.47c0,6.56-3.28,10.1-9.84,10.1H546.3c-6.56,0-9.84-3.54-9.84-10.1V204.28q-9.86,0-9.85-9.85v-15.9q0-9.84,9.85-9.84v-8.84q-9.86,0-9.85-9.84Zm48.21,34.58h10.1v-8.84h-10.1Zm101.72,69.16H648c-6.81,0-10.09-3.54-10.09-10.1V118.46H594.76q-9.84,0-9.84-9.85V34.66q0-9.85,9.84-9.85h81.78q9.86,0,9.85,9.85V227.75C686.39,234.31,683.11,237.85,676.54,237.85ZM628.08,51.32v8.83h9.85V51.32Zm0,31.55V91.7h9.85V82.87Z"/><path class="cls-1" d="M700.52,27.08c0-6.81,3.28-8.58,9.84-6.06L749,36.42q9.85,3.8,9.85,13.63V66c0,6.57-3.28,8.59-9.85,5.81L710.36,56.62c-6.56-2.78-9.84-7.32-9.84-13.89Zm0,48.21c0-6.56,3.28-8.58,9.84-5.8L749,84.63c6.57,2.53,9.85,7.32,9.85,13.89v15.65q0,9.84-9.85,6l-38.62-15.39c-6.56-2.53-9.84-7.32-9.84-13.89Zm0,136.81c0-6.56,1.77-9.84,5.05-9.84s4.79-3.28,4.79-9.85V141.17q0-9.84,9.85-9.84H749q9.85,0,9.85,9.84v57.05c0,26.25-13.13,39.63-39.63,39.63h-8.84c-6.56,0-9.84-3.54-9.84-10.1Zm71.18,3q5.29-9.84,15.14-9.84h28.53c6.56,0,8.07,3.28,4.79,9.84l-6.56,12.62c-3.28,6.56-8.33,10.1-14.89,10.1H770.18c-6.81,0-8.33-3.54-4.79-10.1ZM763.62,39.45q0-9.84,9.85-9.84h38.62q0-9.85,9.84-9.85h33.32q9.84,0,9.84,9.85h38.62q9.84,0,9.84,9.84V77.06q0,9.84-9.84,9.84h-5.05v3.79c0,6.82-3.28,10.1-9.84,10.1H865.09v5.8h38.62q9.84,0,9.84,9.85v73.95q0,9.86-9.84,9.85H773.47q-9.86,0-9.85-9.85V116.44q0-9.85,9.85-9.85h38.62v-5.8H788.36c-6.56,0-9.85-3.28-9.85-10.1V86.9h-5q-9.86,0-9.85-9.84ZM807,142.18h9.84V133.1H807Zm0,31.55h9.84v-9.08H807ZM812.09,74h53V65.2h-53ZM907,237.85H878.47c-6.56,0-11.61-3.54-14.89-10.1L857,215.13c-3.28-6.56-1.76-9.84,4.8-9.84h28.52q9.85,0,15.15,9.84l6.31,12.62C915.32,234.31,913.81,237.85,907,237.85ZM860.3,142.18h9.84V133.1H860.3Zm0,31.55h9.84v-9.08H860.3Z"/><path class="cls-2" d="M213,35.59q0,9.84-9.85,9.84H159.78V69.16l4.79,2.78,5.05-2.53V61.08q0-9.84,9.84-9.84h23.73q9.84,0,9.85,9.84V73.2c0,6.56-3.29,11.86-9.85,16.15l-4.29,2.28,4.29,2.52c6.56,4.29,9.85,9.59,9.85,16.15V130q0,9.85-9.85,3.79l-38.62-22.21-38.36,22.21q-9.85,6.06-9.85-3.79V110.3c0-6.56,3.28-11.86,9.85-16.15l4.29-2.52-4.29-2.28c-6.57-4.29-9.85-9.59-9.85-16.15V45.43h-58v5.81h43.16c6.81,0,10.1,3.28,10.1,9.84v65.13c0,6.56-3.29,9.84-10.1,9.84H68.15q-9.84,0-9.84-9.84V114.34q0-9.84,9.84-9.84V78H58.31V96.67c0,26.25-13.13,39.38-39.63,39.38H9.84Q0,136.05,0,126.21V114.34c0-6.56,1.77-9.84,5.05-9.84s4.79-3.28,4.79-9.85V23.73q0-9.85,9.85-9.85h91.88v-4q0-9.84,9.84-9.84h28.52q9.85,0,9.85,9.84v4h4.79v-4c0-6.56,3.28-9.84,10.1-9.84h28.52Q213,0,213,9.84ZM0,192.34q0-9.84,9.84-9.85V152q0-9.84,9.85-9.84H193.35q9.84,0,9.84,9.84v30.54q9.84,0,9.85,9.85V208c0,6.56-3.29,10.09-9.85,10.09H9.84C3.28,218.08,0,214.55,0,208Zm63.1-18.68H53.26v8.83H63.1Zm48.47,0h-10.1v8.83h10.1Zm48.21,0h-9.85v8.83h9.85Z"/><path class="cls-2" d="M227.17,192.34q0-9.84,9.84-9.85h1c45.94,0,69.16-29.53,69.16-88.85H237q-9.84,0-9.84-9.84V68.15q0-9.84,9.84-9.84h70.17V9.84Q307.18,0,317,0h33.32q9.86,0,9.85,9.84V58.31h70.17q9.84,0,9.84,9.84V83.8q0,9.84-9.84,9.84H360.19c0,59.32,23.22,88.85,69.16,88.85h1q9.84,0,9.84,9.85V208c0,6.56-3.28,10.09-9.84,10.09H405.62c-31.55,0-55.53-15.9-71.94-47.2-16.4,31.3-40.38,47.2-71.93,47.2H237c-6.56,0-9.84-3.53-9.84-10.09Z"/><path class="cls-2" d="M454.33,14.89q0-9.84,9.85-9.84H546q9.84,0,9.84,9.84v74q0,9.84-9.84,9.84H502.79V208c0,6.56-3.28,10.09-10.09,10.09H464.18c-6.57,0-9.85-3.53-9.85-10.09Zm58.31,25.5V31.55h-9.85v8.84Zm0,31.55V63.1h-9.85v8.84Zm-5.05,42.4q0-9.84,9.84-9.84h86.83q9.86,0,9.85,9.84v15.9q0,9.85-9.85,9.85v8.83q9.86,0,9.85,9.85v15.9q0,9.84-9.85,9.84V208c0,6.56-3.28,10.09-9.84,10.09H575.74c-6.56,0-9.84-3.53-9.84-10.09V184.51H555.8V208c0,6.56-3.28,10.09-9.84,10.09H527.28c-6.56,0-9.85-3.53-9.85-10.09V184.51q-9.84,0-9.84-9.84v-15.9q0-9.86,9.84-9.85v-8.83q-9.84,0-9.84-9.85Zm48.21,34.58h10.1v-8.83H555.8Zm101.72,69.16H629c-6.81,0-10.1-3.53-10.1-10.09V98.69H575.74q-9.84,0-9.84-9.84v-74q0-9.84,9.84-9.84h81.78q9.86,0,9.85,9.84V208C667.37,214.55,664.09,218.08,657.52,218.08ZM609.06,31.55v8.84h9.84V31.55Zm0,31.55v8.84h9.84V63.1Z"/><path class="cls-2" d="M681.5,7.32c0-6.82,3.28-8.58,9.84-6.06L730,16.66q9.84,3.78,9.84,13.63v15.9c0,6.56-3.28,8.58-9.84,5.81L691.34,36.85c-6.56-2.77-9.84-7.32-9.84-13.88Zm0,48.21c0-6.56,3.28-8.58,9.84-5.81L730,64.87c6.56,2.52,9.84,7.32,9.84,13.88V94.4q0,9.84-9.84,6.06l-38.62-15.4c-6.56-2.52-9.84-7.32-9.84-13.88Zm0,136.81c0-6.56,1.76-9.85,5-9.85s4.79-3.28,4.79-9.84V121.41q0-9.84,9.85-9.84H730q9.84,0,9.84,9.84v57.05c0,26.25-13.12,39.62-39.62,39.62h-8.84c-6.56,0-9.84-3.53-9.84-10.09Zm71.18,3q5.3-9.85,15.14-9.85h28.52c6.57,0,8.08,3.28,4.8,9.85L794.58,208c-3.28,6.56-8.33,10.09-14.89,10.09H751.16c-6.81,0-8.33-3.53-4.79-10.09ZM744.6,19.69q0-9.84,9.84-9.85h38.62q0-9.84,9.85-9.84h33.32q9.84,0,9.84,9.84h38.62q9.84,0,9.84,9.85V57.3q0,9.84-9.84,9.84h-5.05v3.79c0,6.81-3.28,10.09-9.84,10.09H846.07v5.81h38.62q9.84,0,9.84,9.84v74q0,9.84-9.84,9.84H754.44q-9.84,0-9.84-9.84v-74q0-9.84,9.84-9.84h38.62V81H769.34c-6.57,0-9.85-3.28-9.85-10.09V67.14h-5q-9.84,0-9.84-9.84ZM788,122.42h9.84v-9.09H788ZM788,154h9.84v-9.09H788Zm5-99.7h53V45.43h-53ZM888,218.08H859.45c-6.56,0-11.61-3.53-14.89-10.09L838,195.37c-3.28-6.57-1.76-9.85,4.8-9.85h28.52q9.84,0,15.15,9.85L892.77,208C896.3,214.55,894.79,218.08,888,218.08Zm-46.7-95.66h9.85v-9.09h-9.85Zm0,31.55h9.85v-9.09h-9.85Z"/></svg>